<svg id="구성_요소_1249_46" data-name="구성 요소 1249 – 46" xmlns="http://www.w3.org/2000/svg" xmlns:xlink="http://www.w3.org/1999/xlink" width="20" height="20" viewBox="0 0 20 20">
  <defs>
    <clipPath id="clip-path">
      <rect id="사각형_29214" data-name="사각형 29214" width="20" height="20" fill="#fff"/>
    </clipPath>
  </defs>
  <g id="그룹_28133" data-name="그룹 28133" clip-path="url(#clip-path)">
    <path id="패스_85669" data-name="패스 85669" d="M10,4.671l.753-1.282A2.818,2.818,0,0,1,13.181,2h.069A2.75,2.75,0,0,1,16,4.75,2.837,2.837,0,0,1,15.7,6h.8A1.5,1.5,0,0,1,18,7.5v2a1.506,1.506,0,0,1-1,1.416V16a2,2,0,0,1-2,2H5a2,2,0,0,1-2-2V10.916A1.5,1.5,0,0,1,2,9.5v-2A1.5,1.5,0,0,1,3.5,6h.8A2.824,2.824,0,0,1,4,4.75,2.75,2.75,0,0,1,6.75,2h.069A2.818,2.818,0,0,1,9.247,3.389ZM9,7.5H3.5v2H9ZM9,11H4.5v5a.5.5,0,0,0,.5.5H9Zm.041-5L7.953,4.149A1.318,1.318,0,0,0,6.819,3.5H6.75a1.25,1.25,0,0,0,0,2.5ZM13.25,6a1.25,1.25,0,0,0,0-2.5h-.069a1.318,1.318,0,0,0-1.134.649L10.959,6ZM11,9.5h5.5v-2H11Zm0,7h4a.5.5,0,0,0,.5-.5V11H11Z" fill="#fff"/>
  </g>
</svg>
