<svg id="icon_문의하기" xmlns="http://www.w3.org/2000/svg" xmlns:xlink="http://www.w3.org/1999/xlink" width="20" height="20" viewBox="0 0 20 20">
  <defs>
    <clipPath id="clip-path">
      <rect id="사각형_23957" data-name="사각형 23957" width="20" height="20" fill="#fff"/>
    </clipPath>
  </defs>
  <g id="그룹_21566" data-name="그룹 21566" clip-path="url(#clip-path)">
    <path id="패스_50632" data-name="패스 50632" d="M3.6,12.823l8.907-8.935a1.91,1.91,0,0,1,2.636,0L16.32,5.059a1.89,1.89,0,0,1,0,2.637L7.415,16.6c-.02.018-.039.038-.059.058-.019,0-.039.018-.058.058a3.552,3.552,0,0,1-1,.557L2.785,18.3a.646.646,0,0,1-.7-.205.611.611,0,0,1-.176-.673l1.026-3.516A2.5,2.5,0,0,1,3.6,12.823M5.92,15.928a1.456,1.456,0,0,0,.5-.294L13.1,8.927,11.252,7.081,4.6,13.79l-.06.058a1.488,1.488,0,0,0-.263.439L3.6,16.6Zm12.832,1.7a.7.7,0,0,1-.7.7H9.143a.7.7,0,1,1,0-1.407h8.905a.7.7,0,0,1,.7.7" transform="translate(-0.312 -0.56)" fill="#fff"/>
  </g>
</svg>
