<svg xmlns="http://www.w3.org/2000/svg" xmlns:xlink="http://www.w3.org/1999/xlink" width="287.218" height="24" viewBox="0 0 287.218 24">
  <defs>
    <clipPath id="clip-path">
      <rect id="사각형_23964" data-name="사각형 23964" width="114.576" height="24" fill="none"/>
    </clipPath>
    <clipPath id="clip-path-2">
      <rect id="사각형_23963" data-name="사각형 23963" width="146.642" height="24" fill="none"/>
    </clipPath>
  </defs>
  <g id="그룹_21591" data-name="그룹 21591" transform="translate(-254.709)">
    <g id="logo_노트" transform="translate(427.351)">
      <g id="그룹_21578" data-name="그룹 21578" clip-path="url(#clip-path)">
        <path id="패스_50691" data-name="패스 50691" d="M29.57,5.168a1.754,1.754,0,1,1,1.755,1.755A1.755,1.755,0,0,1,29.57,5.168" transform="translate(0)" fill="#fff"/>
        <path id="패스_50692" data-name="패스 50692" d="M34.42,5.168a1.754,1.754,0,1,1,1.755,1.755A1.755,1.755,0,0,1,34.42,5.168" transform="translate(0)" fill="#fff"/>
        <path id="패스_50693" data-name="패스 50693" d="M21.535,12.057l6.572,5.512a1.548,1.548,0,1,1-1.827,2.5l-6.274-5.229v4.069a1.548,1.548,0,0,1-3.1,0V4.917a1.548,1.548,0,1,1,3.1,0V9.3l5.962-2.956a1.548,1.548,0,1,1,1.2,2.856Z" transform="translate(0 0)" fill="#fff"/>
        <path id="패스_50694" data-name="패스 50694" d="M29.82,18.97V9.617a1.548,1.548,0,1,1,3.1,0V18.97a1.548,1.548,0,1,1-3.1,0" transform="translate(0)" fill="#fff"/>
        <path id="패스_50695" data-name="패스 50695" d="M6.867,18.97V5.136a1.548,1.548,0,0,1,3.1,0V18.97a1.548,1.548,0,1,1-3.1,0" transform="translate(0 0)" fill="#fff"/>
        <path id="패스_50696" data-name="패스 50696" d="M13.676,6.923H3.152a1.742,1.742,0,0,1,0-3.483H13.676a1.742,1.742,0,1,1,0,3.483" transform="translate(0 0)" fill="#fff"/>
        <path id="패스_50697" data-name="패스 50697" d="M58.465,8.189a1.547,1.547,0,0,0-2.988-.563,5.981,5.981,0,0,0-3.25-.956h-.661a6.01,6.01,0,0,0-6.01,6.01v1.733a6.011,6.011,0,0,0,6.01,6.011h.661a5.987,5.987,0,0,0,3.231-.943,1.547,1.547,0,0,0,3.008-.511Zm-5.97,9.2H51.3a2.875,2.875,0,0,1-2.874-2.875V12.491A2.874,2.874,0,0,1,51.3,9.617h1.2a2.874,2.874,0,0,1,2.874,2.872v2.023a2.873,2.873,0,0,1-2.874,2.873" transform="translate(0 0)" fill="#fff"/>
        <path id="패스_50698" data-name="패스 50698" d="M34.552,9.4A1.548,1.548,0,0,1,36.1,7.852l1.548.018h4.638a1.548,1.548,0,1,1,0,3.1H37.671v5.005a1.54,1.54,0,0,0,3.081,0v.006a1.56,1.56,0,1,1,3.119,0v-.006a4.66,4.66,0,0,1-9.319,0Z" transform="translate(0)" fill="#fff"/>
        <path id="패스_50699" data-name="패스 50699" d="M82.418,6.641h-.464a6.165,6.165,0,0,0-6.165,6.165v1.547a6.165,6.165,0,0,0,6.165,6.165h.464a6.165,6.165,0,0,0,6.165-6.165V12.806a6.165,6.165,0,0,0-6.165-6.165m.326,10.744h-1.2a2.875,2.875,0,0,1-2.874-2.875V12.491a2.874,2.874,0,0,1,2.874-2.874h1.2a2.874,2.874,0,0,1,2.874,2.872v2.023a2.873,2.873,0,0,1-2.874,2.873" transform="translate(0 0)" fill="#fff"/>
        <path id="패스_50700" data-name="패스 50700" d="M91.906,6.846a1.738,1.738,0,1,0-1.738-1.738,1.739,1.739,0,0,0,1.738,1.738" transform="translate(0 0)" fill="#fff"/>
        <path id="패스_50701" data-name="패스 50701" d="M97.986,14.272a1.545,1.545,0,0,0-1.545,1.545v-.006a1.527,1.527,0,0,1-3.053,0V10.852H97.96a1.534,1.534,0,1,0,0-3.067H93.366l-1.534-.018A1.534,1.534,0,0,0,90.3,9.3v6.51a4.617,4.617,0,0,0,9.233,0,1.546,1.546,0,0,0-1.545-1.543" transform="translate(0 0)" fill="#fff"/>
        <path id="패스_50702" data-name="패스 50702" d="M64.566,5.446l6.457,9.77V5.356a2.168,2.168,0,0,1,.412-1.443,1.4,1.4,0,0,1,1.114-.48,1.436,1.436,0,0,1,1.142.48,2.146,2.146,0,0,1,.419,1.443V18.393q0,2.182-1.809,2.182a2.391,2.391,0,0,1-.815-.13,2.077,2.077,0,0,1-.678-.412,4.035,4.035,0,0,1-.588-.662q-.271-.38-.543-.775l-6.3-9.656v9.713a2.072,2.072,0,0,1-.441,1.436,1.458,1.458,0,0,1-1.131.486,1.443,1.443,0,0,1-1.142-.491,2.117,2.117,0,0,1-.43-1.431V5.864a3.642,3.642,0,0,1,.181-1.278,1.824,1.824,0,0,1,.713-.831A1.936,1.936,0,0,1,62.2,3.433a1.762,1.762,0,0,1,1.34.543,4.094,4.094,0,0,1,.5.644q.255.4.526.826" transform="translate(0)" fill="#fff"/>
        <path id="패스_50703" data-name="패스 50703" d="M110.152,15.058h-6.038a4.105,4.105,0,0,0,.424,1.854,2.838,2.838,0,0,0,2.607,1.617,3.679,3.679,0,0,0,1.011-.13,3.279,3.279,0,0,0,.888-.407,6.814,6.814,0,0,0,.792-.594q.362-.317.938-.859a1.009,1.009,0,0,1,.678-.2,1.118,1.118,0,0,1,.769.259.933.933,0,0,1,.295.736,2.011,2.011,0,0,1-.328.977,3.881,3.881,0,0,1-.99,1.075,5.656,5.656,0,0,1-1.662.854,7.166,7.166,0,0,1-2.3.339,6.155,6.155,0,0,1-4.625-1.7,6.312,6.312,0,0,1-1.651-4.6,7.684,7.684,0,0,1,.407-2.538,5.61,5.61,0,0,1,1.187-2.007,5.155,5.155,0,0,1,1.923-1.284A6.912,6.912,0,0,1,107.009,8a6,6,0,0,1,3.1.763,5.024,5.024,0,0,1,1.94,1.973A5.184,5.184,0,0,1,112.7,13.2q0,1.166-.667,1.51a4.156,4.156,0,0,1-1.877.345m-6.038-1.753h5.6a3.755,3.755,0,0,0-.853-2.369,2.558,2.558,0,0,0-1.951-.786,2.472,2.472,0,0,0-1.894.8,3.964,3.964,0,0,0-.9,2.358" transform="translate(0 0)" fill="#fff"/>
      </g>
    </g>
    <g id="그룹_21590" data-name="그룹 21590" transform="translate(-4 4.5)">
      <line id="선_7" data-name="선 7" x2="14" y2="14" transform="translate(411.5)" fill="none" stroke="#fff" stroke-width="1"/>
      <line id="선_8" data-name="선 8" x1="14" y2="14" transform="translate(411.5)" fill="none" stroke="#fff" stroke-width="1"/>
    </g>
    <g id="logo_캡션" transform="translate(254.709)">
      <g id="그룹_21576" data-name="그룹 21576" clip-path="url(#clip-path-2)">
        <path id="패스_50675" data-name="패스 50675" d="M106.605,4.908a1.75,1.75,0,1,0-1.75-1.75,1.75,1.75,0,0,0,1.75,1.75" transform="translate(0 0)" fill="#fff"/>
        <path id="패스_50676" data-name="패스 50676" d="M118.56,1.527a1.637,1.637,0,0,0-1.077-.39,1.6,1.6,0,0,0-1.105.43,1.408,1.408,0,0,0-.475,1.094,1.417,1.417,0,0,0,.464,1.133,1.645,1.645,0,0,0,1.116.4,1.583,1.583,0,0,0,1.088-.406,1.428,1.428,0,0,0,.459-1.128,1.389,1.389,0,0,0-.47-1.134" transform="translate(0 0)" fill="#fff"/>
        <path id="패스_50677" data-name="패스 50677" d="M30.889,1.766a1.75,1.75,0,1,0,1.75,1.75,1.75,1.75,0,0,0-1.75-1.75" transform="translate(0)" fill="#fff"/>
        <path id="패스_50678" data-name="패스 50678" d="M35.726,5.266a1.75,1.75,0,1,0-1.75-1.75,1.75,1.75,0,0,0,1.75,1.75" transform="translate(0)" fill="#fff"/>
        <path id="패스_50679" data-name="패스 50679" d="M112.54,12.382a1.555,1.555,0,0,0-1.555,1.555v-.006a1.536,1.536,0,1,1-3.073,0V8.94h4.6a1.544,1.544,0,0,0,0-3.088h-4.625l-1.543-.017A1.544,1.544,0,0,0,104.8,7.379v6.552a4.647,4.647,0,0,0,9.293,0,1.555,1.555,0,0,0-1.555-1.553" transform="translate(0 0)" fill="#fff"/>
        <path id="패스_50680" data-name="패스 50680" d="M73.34,11.3a1.217,1.217,0,0,0-1.031.418,3.617,3.617,0,0,0-.538,1.082,4.4,4.4,0,0,1-1.529,2.136,4.14,4.14,0,0,1-2.479.727,4.3,4.3,0,0,1-2.36-.641,4.113,4.113,0,0,1-1.557-1.941,8.393,8.393,0,0,1-.55-3.258A7.2,7.2,0,0,1,64.539,5.3,4.016,4.016,0,0,1,67.877,3.7a3.818,3.818,0,0,1,2.216.618,5.126,5.126,0,0,1,1.563,1.867,4.286,4.286,0,0,0,.728,1.065,1.376,1.376,0,0,0,.979.31,1.307,1.307,0,0,0,1-.447,1.473,1.473,0,0,0,.412-1.031,3.968,3.968,0,0,0-.847-2.262,6.579,6.579,0,0,0-2.439-2.01A7.874,7.874,0,0,0,67.854,1a8.341,8.341,0,0,0-3.149.6,7.364,7.364,0,0,0-2.577,1.735,7.742,7.742,0,0,0-1.689,2.743,10.446,10.446,0,0,0-.59,3.63,11.354,11.354,0,0,0,.235,2.359,9.2,9.2,0,0,0,.7,2.09,8.333,8.333,0,0,0,1.134,1.77,6.682,6.682,0,0,0,1.632,1.4,6.781,6.781,0,0,0,1.975.784,10.731,10.731,0,0,0,2.417.252,7.782,7.782,0,0,0,3.069-.561,6.355,6.355,0,0,0,2.165-1.46,6.268,6.268,0,0,0,1.242-1.833,4.479,4.479,0,0,0,.4-1.735,1.409,1.409,0,0,0-.435-1.053A1.44,1.44,0,0,0,73.34,11.3" transform="translate(0 0)" fill="#fff"/>
        <path id="패스_50681" data-name="패스 50681" d="M100.813,6.417a4.988,4.988,0,0,0-2.657-.744A4.5,4.5,0,0,0,96,6.182a6.182,6.182,0,0,0-1.832,1.6V7.4a1.847,1.847,0,0,0-.418-1.3,1.409,1.409,0,0,0-1.082-.452,1.346,1.346,0,0,0-1.065.441,1.964,1.964,0,0,0-.39,1.334V20.916a3.345,3.345,0,0,0,.287,1.551A1.2,1.2,0,0,0,92.671,23q1.5,0,1.5-2.061v-4.7a6.437,6.437,0,0,0,1.735,1.581,4.353,4.353,0,0,0,2.25.538,4.953,4.953,0,0,0,2.079-.441,4.882,4.882,0,0,0,1.678-1.26,5.94,5.94,0,0,0,1.116-2.027,8.267,8.267,0,0,0,.407-2.651,7.6,7.6,0,0,0-.705-3.39,5.12,5.12,0,0,0-1.918-2.176M99.9,14.136a3.1,3.1,0,0,1-1.065,1.357,2.51,2.51,0,0,1-1.443.452A2.757,2.757,0,0,1,95.2,14.909a4.346,4.346,0,0,1-.882-2.9,4.449,4.449,0,0,1,.887-3,2.785,2.785,0,0,1,2.182-1.019,2.51,2.51,0,0,1,1.483.475A3.113,3.113,0,0,1,99.92,9.824a5.407,5.407,0,0,1,.378,2.125,5.383,5.383,0,0,1-.4,2.187" transform="translate(0 0)" fill="#fff"/>
        <path id="패스_50682" data-name="패스 50682" d="M117.449,5.65a1.448,1.448,0,0,0-1.117.469,2.011,2.011,0,0,0-.429,1.4v8.944a2.082,2.082,0,0,0,.429,1.409,1.414,1.414,0,0,0,1.117.492,1.48,1.48,0,0,0,1.134-.481,2.016,2.016,0,0,0,.447-1.42V7.425a1.82,1.82,0,0,0-.447-1.306,1.5,1.5,0,0,0-1.134-.469" transform="translate(0 0)" fill="#fff"/>
        <path id="패스_50683" data-name="패스 50683" d="M131.36,7.413a5.6,5.6,0,0,0-1.981-1.305,7.445,7.445,0,0,0-5.131-.006,5.5,5.5,0,0,0-1.97,1.288,5.666,5.666,0,0,0-1.248,2.016,7.461,7.461,0,0,0-.435,2.6,7.377,7.377,0,0,0,.429,2.571,5.637,5.637,0,0,0,3.224,3.326,6.754,6.754,0,0,0,2.554.459,6.96,6.96,0,0,0,2.577-.453,5.549,5.549,0,0,0,1.97-1.3,5.691,5.691,0,0,0,1.259-2.027,7.39,7.39,0,0,0,.436-2.576,7.4,7.4,0,0,0-.43-2.577,5.634,5.634,0,0,0-1.254-2.016m-2.3,7.553a2.728,2.728,0,0,1-2.262,1.071,2.763,2.763,0,0,1-1.632-.487,3.066,3.066,0,0,1-1.065-1.4,5.669,5.669,0,0,1-.372-2.141,5.709,5.709,0,0,1,.378-2.165,3.007,3.007,0,0,1,1.076-1.4,2.8,2.8,0,0,1,1.615-.475,2.733,2.733,0,0,1,2.262,1.065,4.694,4.694,0,0,1,.842,2.978,4.677,4.677,0,0,1-.842,2.96" transform="translate(0 0)" fill="#fff"/>
        <path id="패스_50684" data-name="패스 50684" d="M145.546,8.948a3.625,3.625,0,0,0-.4-1.237,3.429,3.429,0,0,0-1.454-1.523,4.49,4.49,0,0,0-2.211-.538,4.814,4.814,0,0,0-2.25.509,5.481,5.481,0,0,0-1.8,1.6V7.379a2.063,2.063,0,0,0-.2-.95,1.4,1.4,0,0,0-.533-.585,1.449,1.449,0,0,0-.744-.194,1.346,1.346,0,0,0-1.065.441,1.964,1.964,0,0,0-.39,1.334v9.036a2.054,2.054,0,0,0,.436,1.408,1.413,1.413,0,0,0,1.11.493,1.487,1.487,0,0,0,1.14-.475,2.031,2.031,0,0,0,.441-1.426V12.544a9.782,9.782,0,0,1,.229-2.611,2.867,2.867,0,0,1,1.008-1.369,2.534,2.534,0,0,1,1.523-.5,1.748,1.748,0,0,1,1.712.819,5.212,5.212,0,0,1,.429,2.365v5.211a2.054,2.054,0,0,0,.436,1.408,1.439,1.439,0,0,0,1.133.493,1.425,1.425,0,0,0,1.117-.481,2.073,2.073,0,0,0,.43-1.42V10.643a12.823,12.823,0,0,0-.092-1.695" transform="translate(0 0)" fill="#fff"/>
        <path id="패스_50685" data-name="패스 50685" d="M87.579,5.086a1.543,1.543,0,0,0-1.437.983A5.965,5.965,0,0,0,82.9,5.116h-.659a5.993,5.993,0,0,0-5.993,5.993v1.729a5.993,5.993,0,0,0,5.993,5.993H82.9a5.968,5.968,0,0,0,3.222-.94,1.543,1.543,0,0,0,3-.509V6.63a1.544,1.544,0,0,0-1.544-1.544m-1.544,7.85A2.867,2.867,0,0,1,83.168,15.8H81.975a2.866,2.866,0,0,1-2.866-2.866V10.921a2.867,2.867,0,0,1,2.866-2.867h1.193a2.867,2.867,0,0,1,2.867,2.865Z" transform="translate(0 0)" fill="#fff"/>
        <path id="패스_50686" data-name="패스 50686" d="M27.681,15.883l-6.554-5.5L26.739,7.54a1.544,1.544,0,1,0-1.191-2.848L19.6,7.64V3.266a1.544,1.544,0,1,0-3.088,0V17.218a1.544,1.544,0,0,0,3.088,0V13.16l6.256,5.215a1.544,1.544,0,1,0,1.823-2.492" transform="translate(0)" fill="#fff"/>
        <path id="패스_50687" data-name="패스 50687" d="M30.933,6.409a1.544,1.544,0,0,0-1.544,1.544V17.28a1.544,1.544,0,1,0,3.088,0V7.953a1.544,1.544,0,0,0-1.544-1.544" transform="translate(0 0)" fill="#fff"/>
        <path id="패스_50688" data-name="패스 50688" d="M13.29,1.792H2.8a1.737,1.737,0,0,0,0,3.474H6.5V17.28a1.544,1.544,0,0,0,3.088,0V5.266h3.7a1.737,1.737,0,1,0,0-3.474" transform="translate(0 0)" fill="#fff"/>
        <path id="패스_50689" data-name="패스 50689" d="M56.412,4.984a1.544,1.544,0,0,0-1.437.983,5.965,5.965,0,0,0-3.241-.953h-.659a5.993,5.993,0,0,0-5.993,5.994v1.728a5.993,5.993,0,0,0,5.993,5.993h.659a5.962,5.962,0,0,0,3.222-.94,1.543,1.543,0,0,0,3-.509V6.528a1.544,1.544,0,0,0-1.544-1.544m-1.544,7.85A2.866,2.866,0,0,1,52,15.7H50.808a2.866,2.866,0,0,1-2.866-2.866V10.819a2.867,2.867,0,0,1,2.866-2.867H52a2.867,2.867,0,0,1,2.866,2.865Z" transform="translate(0 0)" fill="#fff"/>
        <path id="패스_50690" data-name="패스 50690" d="M41.846,12.74A1.555,1.555,0,0,0,40.291,14.3v-.006a1.537,1.537,0,1,1-3.073,0V9.3h4.6a1.544,1.544,0,0,0,0-3.088H37.195l-1.543-.017a1.543,1.543,0,0,0-1.544,1.543v6.553a4.647,4.647,0,0,0,9.293,0,1.555,1.555,0,0,0-1.555-1.553" transform="translate(0 0)" fill="#fff"/>
      </g>
    </g>
  </g>
</svg>
