<svg id="icon_check_인증" xmlns="http://www.w3.org/2000/svg" xmlns:xlink="http://www.w3.org/1999/xlink" width="18" height="18" viewBox="0 0 18 18">
  <defs>
    <clipPath id="clip-path">
      <rect id="사각형_26569" data-name="사각형 26569" width="18" height="18" fill="#007aff"/>
    </clipPath>
  </defs>
  <g id="그룹_22099" data-name="그룹 22099" clip-path="url(#clip-path)">
    <path id="패스_74064" data-name="패스 74064" d="M13.946,5.185a1.081,1.081,0,0,1,.679,1.007,10.8,10.8,0,0,1-1.195,5.063,9.731,9.731,0,0,1-2.461,2.977A3.983,3.983,0,0,1,9,15.216a4.1,4.1,0,0,1-1.992-.984,9.781,9.781,0,0,1-2.437-3,10.751,10.751,0,0,1-1.2-5.04,1.08,1.08,0,0,1,.7-1.007l4.5-1.875A1.02,1.02,0,0,1,9,3.216a1.078,1.078,0,0,1,.446.094ZM9,14.091a6.226,6.226,0,0,0,2.133-1.547,8.49,8.49,0,0,0,1.688-2.672A9.958,9.958,0,0,0,13.5,6.216L9,4.341,4.5,6.216a9.68,9.68,0,0,0,1.383,5.062A7.061,7.061,0,0,0,9,14.091M7.688,9.005l.727.7,1.851-2.2a.536.536,0,0,1,.422-.187.575.575,0,0,1,.445.21.775.775,0,0,1,.118.352.558.558,0,0,1-.141.375L8.86,10.88c-.188.156-.328.219-.422.188a.448.448,0,0,1-.4-.165L6.915,9.778a.492.492,0,0,1-.164-.4.579.579,0,0,1,.562-.562.544.544,0,0,1,.375.187" fill="#007aff"/>
  </g>
</svg>
