<svg xmlns="http://www.w3.org/2000/svg" xmlns:xlink="http://www.w3.org/1999/xlink" width="18" height="18" viewBox="0 0 18 18">
  <defs>
    <clipPath id="clip-path">
      <rect id="사각형_26565" data-name="사각형 26565" width="18" height="18" fill="#e34d59"/>
    </clipPath>
  </defs>
  <g id="그룹_22094" data-name="그룹 22094" clip-path="url(#clip-path)">
    <path id="패스_74060" data-name="패스 74060" d="M9,3.217a6.007,6.007,0,1,1-3.023.82A5.957,5.957,0,0,1,9,3.217M9,14.092a4.882,4.882,0,1,0-3.445-1.43A4.839,4.839,0,0,0,9,14.092m.937-3a.563.563,0,1,1,0,1.125H8.063a.563.563,0,1,1,0-1.125h.375v-1.5H8.25a.563.563,0,0,1,0-1.125H9a.559.559,0,0,1,.562.562v2.063ZM9,7.717a.722.722,0,1,1,.539-.211A.729.729,0,0,1,9,7.717" fill="#e34d59"/>
  </g>
</svg>
