<svg xmlns="http://www.w3.org/2000/svg" xmlns:xlink="http://www.w3.org/1999/xlink" width="18" height="18" viewBox="0 0 18 18">
  <defs>
    <clipPath id="clip-path">
      <rect id="사각형_26566" data-name="사각형 26566" width="18" height="18" fill="#00a870"/>
    </clipPath>
  </defs>
  <g id="그룹_22095" data-name="그룹 22095" clip-path="url(#clip-path)">
    <path id="패스_74061" data-name="패스 74061" d="M14.18,12.24A5.984,5.984,0,1,1,15,9.217a5.945,5.945,0,0,1-.82,3.023M5.555,5.771A4.867,4.867,0,1,0,9,4.342,4.842,4.842,0,0,0,5.555,5.771m2.7,5.6a.69.69,0,0,1-.469-.187l-1.5-1.5a.663.663,0,0,1,.938-.938L8.25,9.779l2.531-2.531a.663.663,0,0,1,.938.937l-3,3a.69.69,0,0,1-.469.187" fill="#00a870"/>
  </g>
</svg>
