<svg xmlns="http://www.w3.org/2000/svg" width="142.983" height="134.777" viewBox="0 0 142.983 134.777">
  <g id="그룹_29612" data-name="그룹 29612" transform="translate(-641.009 -473)">
    <text id="베이직" transform="translate(679.5 533)" fill="#335fff" font-size="24" font-family="NotoSansKR-Medium, Noto Sans KR" font-weight="500"><tspan x="0" y="0">베이직</tspan></text>
    <path id="패스_86998" data-name="패스 86998" d="M112.344,0H30.639A30.91,30.91,0,0,0,0,31.1v41.47a30.911,30.911,0,0,0,30.639,31.1h17.6L96.87,133.294a10.127,10.127,0,0,0,14.014-3.543,10.482,10.482,0,0,0,1.46-5.342V103.675a30.91,30.91,0,0,0,30.639-31.1V31.1A30.909,30.909,0,0,0,112.344,0m10.212,72.573a10.3,10.3,0,0,1-10.212,10.367H102.131A10.289,10.289,0,0,0,91.919,93.3v12.787L56.325,84.413a10.153,10.153,0,0,0-5.26-1.472H30.639A10.3,10.3,0,0,1,20.426,72.573V31.1A10.3,10.3,0,0,1,30.639,20.735h81.705A10.3,10.3,0,0,1,122.556,31.1Z" transform="translate(641.009 473)" fill="#335fff"/>
  </g>
</svg>
