<svg id="icon_map" xmlns="http://www.w3.org/2000/svg" xmlns:xlink="http://www.w3.org/1999/xlink" width="20" height="20" viewBox="0 0 20 20">
  <defs>
    <clipPath id="clip-path">
      <rect id="사각형_26792" data-name="사각형 26792" width="20" height="20" fill="#335fff"/>
    </clipPath>
  </defs>
  <g id="그룹_22589" data-name="그룹 22589" clip-path="url(#clip-path)">
    <path id="패스_74190" data-name="패스 74190" d="M10,18.289q-.031-.031-.937-1.063Q8.187,16.2,7,14.6A28.511,28.511,0,0,1,4.938,11.32,7.466,7.466,0,0,1,4,8.289a6,6,0,1,1,12,0,6.893,6.893,0,0,1-.938,3.031A23.914,23.914,0,0,1,13,14.6q-1.156,1.594-2.063,2.625-.875,1.032-.937,1.063m0-8a2.029,2.029,0,1,0-1.406-.594A2.021,2.021,0,0,0,10,10.289" fill="#335fff"/>
  </g>
</svg>
