<svg id="icon_homepage" xmlns="http://www.w3.org/2000/svg" xmlns:xlink="http://www.w3.org/1999/xlink" width="20" height="20" viewBox="0 0 20 20">
  <defs>
    <clipPath id="clip-path">
      <rect id="사각형_26795" data-name="사각형 26795" width="20" height="20" fill="#335fff"/>
    </clipPath>
  </defs>
  <g id="그룹_22597" data-name="그룹 22597" clip-path="url(#clip-path)">
    <path id="패스_74193" data-name="패스 74193" d="M2.25,8.289H6.188a10.789,10.789,0,0,0,0,4H2.25a8.125,8.125,0,0,1,0-4m4.156-1H2.594A7.7,7.7,0,0,1,5,4.07,7.9,7.9,0,0,1,8.719,2.383,18.355,18.355,0,0,0,7.438,4.508,14.481,14.481,0,0,0,6.406,7.289m0,6A14.456,14.456,0,0,0,7.438,16.07a18.355,18.355,0,0,0,1.281,2.125,8.1,8.1,0,0,1-3.75-1.687,7.792,7.792,0,0,1-2.375-3.219Zm6.594-3a10.5,10.5,0,0,1-.187,2H7.188a10.789,10.789,0,0,1,0-4h5.625a10.5,10.5,0,0,1,.187,2m-.437-3H7.438A12.89,12.89,0,0,1,8.875,4.008,20.049,20.049,0,0,1,10,2.32q.5.657,1.157,1.688a13.664,13.664,0,0,1,1.407,3.281m-5.125,6h5.125a13.646,13.646,0,0,1-1.407,3.281Q10.5,17.6,10,18.258A20.049,20.049,0,0,1,8.875,16.57a12.875,12.875,0,0,1-1.437-3.281m9.968-6H13.593a14.682,14.682,0,0,0-1.03-2.781,18.635,18.635,0,0,0-1.282-2.125,8.113,8.113,0,0,1,3.75,1.687,7.823,7.823,0,0,1,2.375,3.219m0,6A7.693,7.693,0,0,1,15,16.508a7.9,7.9,0,0,1-3.718,1.687,18.635,18.635,0,0,0,1.282-2.125,14.657,14.657,0,0,0,1.03-2.781Zm-3.593-5H17.75a8.157,8.157,0,0,1,0,4H13.813a10.846,10.846,0,0,0,0-4" fill="#335fff"/>
  </g>
</svg>
