<svg xmlns="http://www.w3.org/2000/svg" xmlns:xlink="http://www.w3.org/1999/xlink" width="188" height="192.626" viewBox="0 0 188 192.626">
  <defs>
    <clipPath id="clip-path">
      <rect id="사각형_24094" data-name="사각형 24094" width="181.891" height="187.591" fill="none"/>
    </clipPath>
  </defs>
  <g id="그룹_21908" data-name="그룹 21908" transform="translate(-866 -1233.975)">
    <rect id="사각형_24068" data-name="사각형 24068" width="188" height="143" rx="71.5" transform="translate(866 1283.601)" fill="#f5f5f7"/>
    <g id="그룹_21840" data-name="그룹 21840" transform="translate(868.836 1233.975)">
      <g id="그룹_21839" data-name="그룹 21839" clip-path="url(#clip-path)">
        <path id="패스_55233" data-name="패스 55233" d="M143.7,199.982,78.789,164.221a8.467,8.467,0,0,0-4.053-1.01,7.586,7.586,0,0,0-3.832.976L25.554,191.021a4.953,4.953,0,0,0-2.516,4.8,6.255,6.255,0,0,0,3.353,4.783L91.309,236.37a8.471,8.471,0,0,0,4.05,1.006,7.591,7.591,0,0,0,3.829-.974l45.35-26.836a4.949,4.949,0,0,0,2.517-4.8,6.248,6.248,0,0,0-3.353-4.783" transform="translate(-9.698 -68.777)" fill="#e8eeff"/>
        <path id="패스_55234" data-name="패스 55234" d="M47.952,287.256c-3.749-2.011-8.65-4.695-14.8-8.171a5.41,5.41,0,0,0-5.366.023l-11.259,6.5a5.989,5.989,0,0,0,.122,10.441l14.98,8.188a5.4,5.4,0,0,0,5.294-.062l11.188-6.462a5.985,5.985,0,0,0-.158-10.459" transform="translate(-5.702 -117.311)" fill="#e8eeff"/>
        <path id="패스_55235" data-name="패스 55235" d="M146.261,223.195s-1.178,4.289-2.362,4.989l-43.3,25.623a7.257,7.257,0,0,1-3.656.93,8.093,8.093,0,0,1-3.867-.961L31.089,219.628c-1.245-.685-3.213-4.746-3.213-4.746s.166,1.6.218,2.156a5.976,5.976,0,0,0,3.2,4.568l61.986,34.148a8.087,8.087,0,0,0,3.866.961,7.254,7.254,0,0,0,3.656-.93l43.3-25.623a4.728,4.728,0,0,0,2.4-4.587c-.057-.592-.249-2.38-.249-2.38" transform="translate(-11.747 -90.551)" fill="#1b3bef"/>
        <path id="패스_55236" data-name="패스 55236" d="M143.094,196.482,81.113,162.336a8.075,8.075,0,0,0-3.87-.965,7.24,7.24,0,0,0-3.658.933l-43.3,25.622a4.729,4.729,0,0,0-2.4,4.586,5.973,5.973,0,0,0,3.2,4.567l61.985,34.148a8.1,8.1,0,0,0,3.867.96,7.256,7.256,0,0,0,3.656-.93l43.3-25.624a4.727,4.727,0,0,0,2.4-4.586,5.966,5.966,0,0,0-3.2-4.566" transform="translate(-11.739 -68.002)" fill="#335fff"/>
        <path id="패스_55237" data-name="패스 55237" d="M132.8,212.694l-24.823-13.948a4.12,4.12,0,0,0-4.046.005L80.962,211.74a4.119,4.119,0,0,0,.01,7.177l24.823,13.949a4.12,4.12,0,0,0,4.046-.005l22.972-12.99a4.119,4.119,0,0,0-.01-7.178" transform="translate(-33.236 -83.528)" fill="#1b3bef"/>
        <path id="패스_55238" data-name="패스 55238" d="M86.945,221.481l23.323,13.44,24.577-14.44-13.861-7.934Z" transform="translate(-36.638 -89.568)" fill="#6e6fda"/>
        <path id="패스_55239" data-name="패스 55239" d="M98.716,196.269a13.963,13.963,0,0,1-6.357,11.712l-5.415,3.493,23.329,13.444,5.366-3.458a13.856,13.856,0,0,0,6.306-11.618V207.01L98.716,193.448Z" transform="translate(-36.638 -81.519)" fill="#8ec2fe"/>
        <path id="패스_55240" data-name="패스 55240" d="M86.945,226.546l23.319,13.44.027-1.978L86.971,224.568Z" transform="translate(-36.638 -94.633)" fill="#e8eeff"/>
        <path id="패스_55241" data-name="패스 55241" d="M148.163,75.506l-83.3-47.552a2.139,2.139,0,0,0-2.135-.208l-2.962,1.7a2.139,2.139,0,0,1,2.134.208l83.3,47.552a6.463,6.463,0,0,1,2.969,5.085l-.138,73a2.068,2.068,0,0,1-.875,1.9l2.962-1.7a2.065,2.065,0,0,0,.875-1.9l.138-73a6.461,6.461,0,0,0-2.969-5.085" transform="translate(-25.185 -11.608)" fill="#6e6fda"/>
        <path id="패스_55242" data-name="패스 55242" d="M144.469,78.449,61.168,30.9c-1.65-.942-3-.2-3,1.676l-.138,73a6.492,6.492,0,0,0,2.983,5.108l83.3,47.551c1.637.935,2.983.176,2.988-1.7l.137-73a6.461,6.461,0,0,0-2.969-5.085" transform="translate(-24.453 -12.848)" fill="#d1ddff"/>
        <path id="패스_55243" data-name="패스 55243" d="M63.726,107.934,146.4,155.128v-67.3l-82.679-47.2Z" transform="translate(-26.854 -17.121)" fill="#2d4383"/>
        <path id="패스_55244" data-name="패스 55244" d="M131.865,103.323v-.015h0l-.159-61.537L69.527,5.636l.16,61.554c-.006,9.361-4.562,14.4-10.208,17.665-2.842,1.64-5.42,1.79-7.283.707L114.374,121.7c1.863,1.082,4.442.933,7.285-.707a19.844,19.844,0,0,0,10.2-17.473l.008,0Z" transform="translate(-21.995 -2.375)" fill="#8ec2fe"/>
        <path id="패스_55245" data-name="패스 55245" d="M108.28,165.733,46.1,129.6c.012,4.119,1.47,7.019,3.821,8.384L112.1,174.118c-2.35-1.365-3.808-4.265-3.82-8.385" transform="translate(-19.427 -54.613)" fill="#fff"/>
        <path id="패스_55246" data-name="패스 55246" d="M93.3,32.361V33.4l18.449,11.288V43.65Z" transform="translate(-39.318 -13.637)" fill="#15cef4" fill-rule="evenodd"/>
        <path id="패스_55247" data-name="패스 55247" d="M93.3,36.811v1.041l3.736,2.285V39.1Z" transform="translate(-39.318 -15.512)" fill="#2d4383" fill-rule="evenodd"/>
        <path id="패스_55248" data-name="패스 55248" d="M93.3,41.249V42.29l7.986,4.887V46.135Z" transform="translate(-39.318 -17.382)" fill="#fff" fill-rule="evenodd"/>
        <path id="패스_55249" data-name="패스 55249" d="M96.768,48.86l6.529,4V51.813l-6.529-4Z" transform="translate(-40.778 -20.15)" fill="#2d4383" fill-rule="evenodd"/>
        <path id="패스_55250" data-name="패스 55250" d="M96.768,53.3l6.529,4V56.252l-6.529-4Z" transform="translate(-40.778 -22.021)" fill="#2d4383" fill-rule="evenodd"/>
        <path id="패스_55251" data-name="패스 55251" d="M104.6,62.541l6.35,3.885V65.384L104.6,61.5Z" transform="translate(-44.078 -25.916)" fill="#2d4383" fill-rule="evenodd"/>
        <path id="패스_55252" data-name="패스 55252" d="M103.8,44.272l11.832,7.24V50.471L103.8,43.231Z" transform="translate(-43.74 -18.217)" fill="#fff" fill-rule="evenodd"/>
        <path id="패스_55253" data-name="패스 55253" d="M127.159,58.567l5.651,3.458V60.983l-5.651-3.458Z" transform="translate(-53.585 -24.241)" fill="#fff" fill-rule="evenodd"/>
        <path id="패스_55254" data-name="패스 55254" d="M110.339,52.714,117,56.787V55.746l-6.657-4.073Z" transform="translate(-46.497 -21.775)" fill="#2d4383" fill-rule="evenodd"/>
        <path id="패스_55255" data-name="패스 55255" d="M111.5,57.872l3.811,2.331V59.161L111.5,56.83Z" transform="translate(-46.984 -23.948)" fill="#fff" fill-rule="evenodd"/>
        <path id="패스_55256" data-name="패스 55256" d="M111.5,62.31l6.529,4V65.264l-6.529-4Z" transform="translate(-46.984 -25.819)" fill="#fff" fill-rule="evenodd"/>
        <path id="패스_55257" data-name="패스 55257" d="M121.217,63.82l7.255,4.439V67.217l-7.255-4.438Z" transform="translate(-51.081 -26.455)" fill="#fff" fill-rule="evenodd"/>
        <path id="패스_55258" data-name="패스 55258" d="M136.263,73.025l3.806,2.329V74.312l-3.806-2.329Z" transform="translate(-57.421 -30.334)" fill="#fff" fill-rule="evenodd"/>
        <path id="패스_55259" data-name="패스 55259" d="M125.287,70.749l8.246,5.045V74.753l-8.246-5.045Z" transform="translate(-52.796 -29.375)" fill="#fff" fill-rule="evenodd"/>
        <path id="패스_55260" data-name="패스 55260" d="M118.709,71.173l4.721,2.889V73.02l-4.721-2.888Z" transform="translate(-50.024 -29.553)" fill="#fff" fill-rule="evenodd"/>
        <path id="패스_55261" data-name="패스 55261" d="M96.768,66.636l6.529,4V69.589l-6.529-3.995Z" transform="translate(-40.778 -27.642)" fill="#2d4383" fill-rule="evenodd"/>
        <path id="패스_55262" data-name="패스 55262" d="M96.768,71.086l6.529,4V74.039l-6.529-4Z" transform="translate(-40.778 -29.517)" fill="#2d4383" fill-rule="evenodd"/>
        <path id="패스_55263" data-name="패스 55263" d="M111.5,75.648l3.811,2.332V76.939L111.5,74.607Z" transform="translate(-46.984 -31.439)" fill="#fff" fill-rule="evenodd"/>
        <path id="패스_55264" data-name="패스 55264" d="M111.5,80.1l5.88,3.6V82.654l-5.88-3.6Z" transform="translate(-46.984 -33.314)" fill="#fff" fill-rule="evenodd"/>
        <path id="패스_55265" data-name="패스 55265" d="M121.217,81.6,126.8,85.01V83.969l-5.579-3.414Z" transform="translate(-51.081 -33.946)" fill="#fff" fill-rule="evenodd"/>
        <path id="패스_55266" data-name="패스 55266" d="M132.783,88.674l2.933,1.794V89.426l-2.933-1.794Z" transform="translate(-55.955 -36.928)" fill="#fff" fill-rule="evenodd"/>
        <path id="패스_55267" data-name="패스 55267" d="M140.024,93.1l3.627,2.22V94.282l-3.627-2.22Z" transform="translate(-59.006 -38.795)" fill="#fff" fill-rule="evenodd"/>
        <path id="패스_55268" data-name="패스 55268" d="M131.548,92.367l6.534,4V95.323l-6.534-4Z" transform="translate(-55.434 -38.485)" fill="#fff" fill-rule="evenodd"/>
        <path id="패스_55269" data-name="패스 55269" d="M96.768,75.525l6.529,3.994v-1.04l-6.529-4Z" transform="translate(-40.778 -31.387)" fill="#2d4383" fill-rule="evenodd"/>
        <path id="패스_55270" data-name="패스 55270" d="M96.768,79.974l6.529,3.995V82.927l-6.529-4Z" transform="translate(-40.778 -33.262)" fill="#2d4383" fill-rule="evenodd"/>
        <path id="패스_55271" data-name="패스 55271" d="M111.5,84.536l3.811,2.331V85.826L111.5,83.494Z" transform="translate(-46.984 -35.184)" fill="#fff" fill-rule="evenodd"/>
        <path id="패스_55272" data-name="패스 55272" d="M111.5,88.986l11.97,7.323V95.268L111.5,87.944Z" transform="translate(-46.984 -37.059)" fill="#fff" fill-rule="evenodd"/>
        <path id="패스_55273" data-name="패스 55273" d="M121.217,90.485l7.255,4.439V93.883l-7.255-4.439Z" transform="translate(-51.081 -37.691)" fill="#fff" fill-rule="evenodd"/>
        <path id="패스_55274" data-name="패스 55274" d="M136.263,99.69l3.806,2.329v-1.041l-3.806-2.329Z" transform="translate(-57.421 -41.571)" fill="#fff" fill-rule="evenodd"/>
        <path id="패스_55275" data-name="패스 55275" d="M134.691,103.179l6.713,4.107v-1.042l-6.713-4.107Z" transform="translate(-56.759 -43.04)" fill="#fff" fill-rule="evenodd"/>
        <path id="패스_55276" data-name="패스 55276" d="M123.919,87.7l2.779,1.7V88.358l-2.779-1.7Z" transform="translate(-52.219 -36.517)" fill="#fff" fill-rule="evenodd"/>
        <path id="패스_55277" data-name="패스 55277" d="M93.3,85.7v1.041l3.736,2.285v-1.04Z" transform="translate(-39.318 -36.115)" fill="#2d4383" fill-rule="evenodd"/>
        <path id="패스_55278" data-name="패스 55278" d="M93.3,90.14v1.042l7.986,4.886V95.026Z" transform="translate(-39.318 -37.985)" fill="#fff" fill-rule="evenodd"/>
        <path id="패스_55279" data-name="패스 55279" d="M96.768,96.709l6.529,4v1.041l-6.529-4Z" transform="translate(-40.778 -40.753)" fill="#2d4383" fill-rule="evenodd"/>
        <path id="패스_55280" data-name="패스 55280" d="M96.768,101.148l6.529,4v1.047L96.768,102.2Z" transform="translate(-40.778 -42.624)" fill="#2d4383" fill-rule="evenodd"/>
        <path id="패스_55281" data-name="패스 55281" d="M104.6,110.39l6.35,3.885v1.041l-6.35-3.885Z" transform="translate(-44.078 -46.518)" fill="#2d4383" fill-rule="evenodd"/>
        <path id="패스_55282" data-name="패스 55282" d="M103.8,92.121l6.565,4.017V97.18L103.8,93.163Z" transform="translate(-43.74 -38.82)" fill="#fff" fill-rule="evenodd"/>
        <path id="패스_55283" data-name="패스 55283" d="M118.048,100.842l3.315,2.029v1.041l-3.315-2.029Z" transform="translate(-49.745 -42.495)" fill="#fff" fill-rule="evenodd"/>
        <path id="패스_55284" data-name="패스 55284" d="M127.487,106.617l10.544,6.453v1.041l-10.544-6.453Z" transform="translate(-53.723 -44.928)" fill="#fff" fill-rule="evenodd"/>
        <path id="패스_55285" data-name="패스 55285" d="M110.339,100.564,117,104.637v1.042l-6.657-4.073Z" transform="translate(-46.497 -42.378)" fill="#2d4383" fill-rule="evenodd"/>
        <path id="패스_55286" data-name="패스 55286" d="M111.5,105.721l7.438,4.552v1.041l-7.438-4.552Z" transform="translate(-46.984 -44.551)" fill="#fff" fill-rule="evenodd"/>
        <path id="패스_55287" data-name="패스 55287" d="M111.5,110.159l5.078,3.108v1.048l-5.078-3.106Z" transform="translate(-46.984 -46.421)" fill="#fff" fill-rule="evenodd"/>
        <path id="패스_55288" data-name="패스 55288" d="M127.487,115.505l5.527,3.382v1.042l-5.527-3.382Z" transform="translate(-53.723 -48.674)" fill="#fff" fill-rule="evenodd"/>
        <path id="패스_55289" data-name="패스 55289" d="M122.779,117.064l9.7,5.933v1.048l-9.7-5.934Z" transform="translate(-51.739 -49.331)" fill="#fff" fill-rule="evenodd"/>
        <path id="패스_55290" data-name="패스 55290" d="M118.709,119.023l4.721,2.888v1.041l-4.721-2.888Z" transform="translate(-50.024 -50.156)" fill="#fff" fill-rule="evenodd"/>
        <path id="패스_55291" data-name="패스 55291" d="M128.678,125.122l8.788,5.376v1.043l-8.788-5.377Z" transform="translate(-54.225 -52.726)" fill="#fff" fill-rule="evenodd"/>
        <path id="패스_55292" data-name="패스 55292" d="M96.768,114.486l6.529,3.995v1.042l-6.529-4Z" transform="translate(-40.778 -48.244)" fill="#2d4383" fill-rule="evenodd"/>
        <path id="패스_55293" data-name="패스 55293" d="M96.768,118.936l6.529,3.995v1.042l-6.529-3.995Z" transform="translate(-40.778 -50.12)" fill="#2d4383" fill-rule="evenodd"/>
        <path id="패스_55294" data-name="패스 55294" d="M111.5,123.5l10.749,6.577v1.041L111.5,124.539Z" transform="translate(-46.984 -52.042)" fill="#fff" fill-rule="evenodd"/>
        <path id="패스_55295" data-name="패스 55295" d="M111.5,127.947l5.88,3.6v1.042l-5.88-3.6Z" transform="translate(-46.984 -53.917)" fill="#fff" fill-rule="evenodd"/>
        <path id="패스_55296" data-name="패스 55296" d="M132.783,136.522l2.933,1.795v1.041l-2.933-1.794Z" transform="translate(-55.955 -57.53)" fill="#fff" fill-rule="evenodd"/>
        <path id="패스_55297" data-name="패스 55297" d="M140.024,140.953l3.627,2.22v1.042L140.024,142Z" transform="translate(-59.006 -59.398)" fill="#fff" fill-rule="evenodd"/>
        <path id="패스_55298" data-name="패스 55298" d="M131.548,140.216l6.534,4v1.042l-6.534-4Z" transform="translate(-55.434 -59.087)" fill="#fff" fill-rule="evenodd"/>
        <path id="패스_55299" data-name="패스 55299" d="M123.919,135.549l2.779,1.7v1.041l-2.779-1.7Z" transform="translate(-52.219 -57.12)" fill="#fff" fill-rule="evenodd"/>
        <path id="패스_55300" data-name="패스 55300" d="M93.3,124.106v1.041l3.736,2.287v-1.042Z" transform="translate(-39.318 -52.298)" fill="#2d4383" fill-rule="evenodd"/>
        <path id="패스_55301" data-name="패스 55301" d="M93.3,128.544v1.042l7.986,4.887v-1.041Z" transform="translate(-39.318 -54.168)" fill="#fff" fill-rule="evenodd"/>
        <path id="패스_55302" data-name="패스 55302" d="M96.768,135.114l6.529,3.995v1.042l-6.529-4Z" transform="translate(-40.778 -56.937)" fill="#2d4383" fill-rule="evenodd"/>
        <path id="패스_55303" data-name="패스 55303" d="M96.768,139.552l6.529,4v1.041l-6.529-3.995Z" transform="translate(-40.778 -58.807)" fill="#2d4383" fill-rule="evenodd"/>
        <path id="패스_55304" data-name="패스 55304" d="M104.6,148.794l6.35,3.885v1.041l-6.35-3.885Z" transform="translate(-44.078 -62.702)" fill="#2d4383" fill-rule="evenodd"/>
        <path id="패스_55305" data-name="패스 55305" d="M103.8,130.526l6.565,4.017v1.042l-6.565-4.017Z" transform="translate(-43.74 -55.003)" fill="#fff" fill-rule="evenodd"/>
        <path id="패스_55306" data-name="패스 55306" d="M118.048,139.245l3.315,2.029v1.041l-3.315-2.029Z" transform="translate(-49.745 -58.678)" fill="#fff" fill-rule="evenodd"/>
        <path id="패스_55307" data-name="패스 55307" d="M127.487,145.021l15.235,9.321v1.042l-15.235-9.322Z" transform="translate(-53.723 -61.112)" fill="#fff" fill-rule="evenodd"/>
        <path id="패스_55308" data-name="패스 55308" d="M110.339,138.967,117,143.04v1.041l-6.657-4.073Z" transform="translate(-46.497 -58.561)" fill="#2d4383" fill-rule="evenodd"/>
        <path id="패스_55309" data-name="패스 55309" d="M111.5,144.125l7.438,4.551v1.041l-7.438-4.551Z" transform="translate(-46.984 -60.734)" fill="#fff" fill-rule="evenodd"/>
        <path id="패스_55310" data-name="패스 55310" d="M111.5,148.564l5.078,3.107v1.041l-5.078-3.107Z" transform="translate(-46.984 -62.605)" fill="#fff" fill-rule="evenodd"/>
        <path id="패스_55311" data-name="패스 55311" d="M127.487,153.909l5.527,3.383v1.041l-5.527-3.382Z" transform="translate(-53.723 -64.857)" fill="#fff" fill-rule="evenodd"/>
        <path id="패스_55312" data-name="패스 55312" d="M139.547,161.289l3.362,2.058v1.04l-3.362-2.056Z" transform="translate(-58.805 -67.967)" fill="#fff" fill-rule="evenodd"/>
        <path id="패스_55313" data-name="패스 55313" d="M122.779,155.469l9.7,5.933v1.041l-9.7-5.933Z" transform="translate(-51.739 -65.514)" fill="#fff" fill-rule="evenodd"/>
        <path id="패스_55314" data-name="패스 55314" d="M118.709,157.427l4.721,2.889v1.042l-4.721-2.888Z" transform="translate(-50.024 -66.339)" fill="#fff" fill-rule="evenodd"/>
        <path id="패스_55315" data-name="패스 55315" d="M79.848,1.514,81.863,0,144.02,36.084,142.005,37.6Z" transform="translate(-33.648 0)" fill="#d1ddff"/>
        <path id="패스_55316" data-name="패스 55316" d="M187.275,63.879l2.015-1.514.019,6.245-2.016,1.515Z" transform="translate(-78.917 -26.281)" fill="#6e6fda"/>
        <path id="패스_55317" data-name="패스 55317" d="M79.848,2.617,142.005,38.7l.017,6.246L79.866,8.862Z" transform="translate(-33.648 -1.103)" fill="#fff"/>
        <path id="패스_55318" data-name="패스 55318" d="M128.763,34.483V36.7l8.2,4.758V39.241Z" transform="translate(-54.261 -14.531)" fill="#d1ddff"/>
        <path id="패스_55319" data-name="패스 55319" d="M90.52,12.281,82.864,7.835l.006,2.225L90.52,14.5Z" transform="translate(-34.919 -3.302)" fill="#d1ddff"/>
        <path id="패스_55320" data-name="패스 55320" d="M100.1,17.84v2.221l10.8,6.27V24.111Z" transform="translate(-42.18 -7.518)" fill="#d1ddff"/>
        <path id="패스_55321" data-name="패스 55321" d="M180.288,67.615a.579.579,0,0,1-.308-1.069l1.729-1.087a.578.578,0,1,1,.616.98L180.6,67.527a.574.574,0,0,1-.307.089" transform="translate(-75.729 -27.547)" fill="#335fff"/>
        <path id="패스_55322" data-name="패스 55322" d="M181.935,67.878a.581.581,0,0,1-.54-.371l-.964-2.5a.579.579,0,0,1,1.081-.416l.964,2.5a.58.58,0,0,1-.54.787" transform="translate(-76.017 -27.062)" fill="#335fff"/>
        <path id="패스_55323" data-name="패스 55323" d="M244.152,56.44,274.34,74.059c1.863,1.082,9.594-.414,9.594-9.94L253.747,46.5c0,9.5-7.731,11.023-9.6,9.94" transform="translate(-102.885 -19.595)" fill="#d8f1f5"/>
        <path id="패스_55324" data-name="패스 55324" d="M268.247,67.125,238.059,49.507c.012,4.119,1.47,7.02,3.82,8.385L272.067,75.51c-2.35-1.366-3.808-4.266-3.82-8.385" transform="translate(-100.318 -20.862)" fill="#8ec2fe"/>
        <path id="패스_55325" data-name="패스 55325" d="M260.459,9.217,260.619,31l30.187,17.619-.16-21.784Z" transform="translate(-109.757 -3.884)" fill="#d8f1f5"/>
        <path id="패스_55326" data-name="패스 55326" d="M287.471,55.409a3.117,3.117,0,0,1-.323-1.037,13.469,13.469,0,0,1-.078-1.813,13.15,13.15,0,0,0-.083-1.766,3.767,3.767,0,0,0-.323-1.105,3.287,3.287,0,0,0-.59-.875,4.649,4.649,0,0,0-1.012-.757l-.256-.15v1.782a2.662,2.662,0,0,1,.68.5,1.37,1.37,0,0,1,.236.435,2.533,2.533,0,0,1,.075.72c0,.226.012.759.042,1.6a9.612,9.612,0,0,0,.124,1.368,4.576,4.576,0,0,0,.75,1.847,1.146,1.146,0,0,0-.484.336,1.584,1.584,0,0,0-.257.595,5.546,5.546,0,0,0-.129,1.118c-.029.848-.046,1.427-.046,1.742a1.666,1.666,0,0,1-.071.6.247.247,0,0,1-.228.151,1.91,1.91,0,0,1-.692-.309v1.768l.256.15a3.054,3.054,0,0,0,.937.415.813.813,0,0,0,.668-.152,1.27,1.27,0,0,0,.316-.733,14.071,14.071,0,0,0,.087-1.95,11.4,11.4,0,0,1,.041-1.214,1.931,1.931,0,0,1,.178-.684.47.47,0,0,1,.311-.266,1.044,1.044,0,0,1,.535.148V56.093a2,2,0,0,1-.664-.684" transform="translate(-120.017 -20.187)" fill="#2d4383"/>
        <path id="패스_55327" data-name="패스 55327" d="M273.489,42.429a.815.815,0,0,0-.676.148,1.232,1.232,0,0,0-.311.733,14.494,14.494,0,0,0-.087,1.959,10.876,10.876,0,0,1-.042,1.206,1.861,1.861,0,0,1-.182.683.449.449,0,0,1-.307.269.973.973,0,0,1-.535-.15l0,0v1.776a2.057,2.057,0,0,1,.664.686,3.225,3.225,0,0,1,.327,1.037,13.914,13.914,0,0,1,.074,1.812,13.3,13.3,0,0,0,.083,1.759,4.012,4.012,0,0,0,.324,1.112,3.254,3.254,0,0,0,.59.876,4.908,4.908,0,0,0,1.007.747l.261.153V55.469a3,3,0,0,1-.709-.516,1.1,1.1,0,0,1-.219-.413,3.535,3.535,0,0,1-.067-.779c-.016-1.19-.046-1.965-.079-2.332A6.027,6.027,0,0,0,273.3,50a5.766,5.766,0,0,0-.527-1,.842.842,0,0,0,.456-.3,1.542,1.542,0,0,0,.281-.62,5.4,5.4,0,0,0,.133-1.153c.025-.838.042-1.4.042-1.707a1.6,1.6,0,0,1,.079-.6A.268.268,0,0,1,274,44.47a1.976,1.976,0,0,1,.685.307V43l-.261-.153a3.015,3.015,0,0,0-.933-.413" transform="translate(-114.346 -17.874)" fill="#2d4383"/>
        <path id="패스_55328" data-name="패스 55328" d="M277.542,60.077l3.957,2.316v-1.6l-3.957-2.314Z" transform="translate(-116.956 -24.643)" fill="#2d4383"/>
        <path id="패스_55329" data-name="패스 55329" d="M277.542,56.193l3.957,2.315v-1.6l-3.957-2.314Z" transform="translate(-116.956 -23.006)" fill="#2d4383"/>
        <path id="패스_55330" data-name="패스 55330" d="M280.413,53.988l2.3,1.342v-1.6l-2.3-1.342Z" transform="translate(-118.166 -22.077)" fill="#2d4383"/>
        <path id="패스_55331" data-name="패스 55331" d="M258.714,9.472l2.015-1.514L290.9,25.528l-2.015,1.514Z" transform="translate(-109.022 -3.353)" fill="#d1ddff"/>
        <path id="패스_55332" data-name="패스 55332" d="M310.851,39.838l2.015-1.514.018,6.245-2.016,1.514Z" transform="translate(-130.992 -16.149)" fill="#6e6fda"/>
        <path id="패스_55333" data-name="패스 55333" d="M258.714,10.575l30.167,17.57.017,6.245L258.732,16.82Z" transform="translate(-109.022 -4.456)" fill="#fff"/>
        <path id="패스_55334" data-name="패스 55334" d="M269.386,20.239l-7.656-4.445.006,2.225,7.65,4.441Z" transform="translate(-110.293 -6.655)" fill="#d1ddff"/>
        <path id="패스_55335" data-name="패스 55335" d="M278.418,25.481V27.7l5.136,2.982V28.463Z" transform="translate(-117.325 -10.738)" fill="#d1ddff"/>
        <path id="패스_55336" data-name="패스 55336" d="M303.864,43.575a.579.579,0,0,1-.308-1.069l1.729-1.087a.579.579,0,0,1,.616.98l-1.73,1.087a.579.579,0,0,1-.307.089" transform="translate(-127.804 -17.417)" fill="#335fff"/>
        <path id="패스_55337" data-name="패스 55337" d="M305.511,43.836a.58.58,0,0,1-.54-.371l-.963-2.5a.579.579,0,1,1,1.08-.416l.963,2.5a.578.578,0,0,1-.54.786" transform="translate(-128.092 -16.931)" fill="#335fff"/>
        <path id="패스_55338" data-name="패스 55338" d="M252.2,178.789c-4.083-2.311-10.169-5.759-15.72-8.916a3.123,3.123,0,0,0-3.107.011l-5.656,3.267a3.126,3.126,0,0,0,.015,5.421l15.681,8.941a3.124,3.124,0,0,0,3.111-.008l5.7-3.292a3.124,3.124,0,0,0-.023-5.425" transform="translate(-95.3 -71.413)" fill="#e8eeff"/>
        <path id="패스_55339" data-name="패스 55339" d="M250.18,87.584a1.762,1.762,0,0,0-2.441.206A20.507,20.507,0,0,1,240.674,93a1.652,1.652,0,0,0-.794,2.676,3.982,3.982,0,0,0,.429.461,2.159,2.159,0,0,0,2.8.3c2.676-1.28,5.1-3.868,7.2-6.182a1.884,1.884,0,0,0-.087-2.63l-.046-.041" transform="translate(-100.915 -36.739)" fill="#2d4383"/>
        <path id="패스_55340" data-name="패스 55340" d="M254.9,66.3a1.512,1.512,0,0,0-.5-.684l-1.242-.787a.537.537,0,0,0,.132.727c.08.054.749.634.749.634s.142.228.016.363a1.5,1.5,0,0,1-.782-.43c-.358-.435-.919-1.737-1.4-2.584-.152-.268-1.057-.731-.7.134.07.168.859,1.292.738,1.6a3.227,3.227,0,0,0-.406,1.675c.1.842,1.311,1.617,1.439,1.752.226.239.164,2.981.4,4.835l2.4-.576s-.793-4.25-1.032-5.331c-.1-.457.316-.911.191-1.327" transform="translate(-105.807 -26.621)" fill="#ffc4b1"/>
        <path id="패스_55341" data-name="패스 55341" d="M253.628,74.208a30.145,30.145,0,0,1-.363,8.818,1.614,1.614,0,0,0,1.176,1.839l.22.043a1.717,1.717,0,0,0,1.978-1.358c.525-2.328.176-6.834-.3-9.745a5.934,5.934,0,0,1-2.708.4" transform="translate(-106.716 -31.101)" fill="#2d4383"/>
        <path id="패스_55342" data-name="패스 55342" d="M242.577,185.846s.015,0,.005,0Z" transform="translate(-102.222 -78.314)" fill="#0845a9"/>
        <path id="패스_55343" data-name="패스 55343" d="M243.783,176.234a6.328,6.328,0,0,0-1.976.357c-1.357.413-5.465.977-5.465.977s-.078,1.706-.078,3.16c0,1.038,1.075,1.6,2.14,1.6a3.433,3.433,0,0,0,1.608-.654l.095-.7.413.26s3.991-2.641,4.306-3.318a1.241,1.241,0,0,0-1.044-1.683" transform="translate(-99.561 -74.265)" fill="#2d4383"/>
        <path id="패스_55344" data-name="패스 55344" d="M235.805,161.662c3.5.939,4.827-1.236,4.827-1.236l1.773-26.675-6.959.949Z" transform="translate(-99.217 -56.363)" fill="#6e6fda"/>
        <path id="패스_55345" data-name="패스 55345" d="M256.84,193.777s.014,0,0,0Z" transform="translate(-108.232 -81.656)" fill="#0845a9"/>
        <path id="패스_55346" data-name="패스 55346" d="M258.045,184.164a6.3,6.3,0,0,0-1.975.357c-1.358.412-5.466.977-5.466.977s-.077,1.707-.077,3.16c0,1.039,1.074,1.6,2.14,1.6a3.425,3.425,0,0,0,1.607-.655l.1-.7.414.26s3.99-2.64,4.305-3.318a1.24,1.24,0,0,0-1.043-1.683" transform="translate(-105.572 -77.607)" fill="#2d4383"/>
        <path id="패스_55347" data-name="패스 55347" d="M248.718,167.959c3.5.939,4.827-1.236,4.827-1.236l.117-28.916-7.156.834Z" transform="translate(-103.878 -58.072)" fill="#6e6fda"/>
        <path id="패스_55348" data-name="패스 55348" d="M249.047,102.833c.1-1.459-.16-4.507-1.676-5.558a11.1,11.1,0,0,0-5.584-1.3c-6.373,0-6.594,5.564-6.594,7.027,0,3.173-.93,15.568-.93,15.568a9.5,9.5,0,0,0,4.08,2.183,26.45,26.45,0,0,0,5.208.569,13.3,13.3,0,0,0,5.761-1.1s-.468-14.313-.264-17.391" transform="translate(-98.718 -40.445)" fill="#ffdb5a"/>
        <path id="패스_55349" data-name="패스 55349" d="M245.589,89.464a11.188,11.188,0,0,1-.252,3.8c-.366.871,4.577,1.313,3.62.067-.46-.6.34-2.349.34-2.349Z" transform="translate(-103.377 -37.7)" fill="#ffc4b1"/>
        <path id="패스_55350" data-name="패스 55350" d="M250.049,79.912c-1.191-.623-4.216-.03-4.952,2.093a5.808,5.808,0,0,0,.279,3.188,19.06,19.06,0,0,0,2.49,2.745c.182.119,1.4.7,2.026,0a6.865,6.865,0,0,0,1.247-4.62c-.156-2.082-.3-2.993-1.091-3.407" transform="translate(-103.223 -33.576)" fill="#ffc4b1"/>
        <path id="패스_55351" data-name="패스 55351" d="M248.918,79.228a4.522,4.522,0,0,0-6.215.249c-1.7,1.939-.9,5.6.387,6.914A3.2,3.2,0,0,0,246.7,87c1.449-.866,1.538-5.124,2.29-5.34a2.357,2.357,0,0,0,1.62-2.722s-.686,1.359-1.69.292" transform="translate(-101.866 -32.916)" fill="#713d23"/>
        <path id="패스_55352" data-name="패스 55352" d="M264.011,100.036c-2.837.251-6.284-.932-8.8-1.856-.885-.272-1.891.579-2.284,1.759a3.246,3.246,0,0,0-.062.886,2.16,2.16,0,0,0,1.8,2.166c2.809.952,6.352.794,9.473.605a1.883,1.883,0,0,0,1.775-1.943c0-.015,0-.046,0-.061a1.762,1.762,0,0,0-1.89-1.557" transform="translate(-106.554 -41.351)" fill="#2d4383"/>
        <path id="패스_55353" data-name="패스 55353" d="M286.031,89.27a13.077,13.077,0,0,1-1.646.627,1.5,1.5,0,0,1-.883-.134c-.018-.184.233-.278.233-.278s.884-.055.981-.05a.536.536,0,0,0,.546-.5L283.8,88.81a1.51,1.51,0,0,0-.816.237c-.352.255-.3.868-.653,1.171-.847.714-4.058,3.609-4.058,3.609l1.555,1.913c1.313-1.33,2.93-3.546,3.253-3.6.184-.03,2.114-.05,2.707-.656s.433-.806.718-1.685-.473-.53-.473-.53" transform="translate(-117.263 -37.424)" fill="#ffc4b1"/>
        <path id="패스_55354" data-name="패스 55354" d="M277.158,92.691a30.106,30.106,0,0,1-6.976,5.407,1.615,1.615,0,0,0-.648,2.085l.109.2a1.718,1.718,0,0,0,2.313.637c2.119-1.1,5.338-4.272,7.255-6.514a5.931,5.931,0,0,1-2.054-1.811" transform="translate(-113.515 -39.06)" fill="#2d4383"/>
        <path id="패스_55355" data-name="패스 55355" d="M78.491,234.61,73.375,237.6a.623.623,0,0,1-.309.079.646.646,0,0,1-.308-.076l-2.171-1.21a1.306,1.306,0,0,1-.235-.227s0,.145,0,.212a.438.438,0,0,0,.237.376l2.171,1.21a.646.646,0,0,0,.308.076.623.623,0,0,0,.309-.079l5.116-2.988a.43.43,0,0,0,.224-.375c0-.062,0-.172,0-.172a1.734,1.734,0,0,1-.224.186" transform="translate(-29.645 -98.786)" fill="#cd206b"/>
        <path id="패스_55356" data-name="패스 55356" d="M78.478,232.837l-2.171-1.21a.64.64,0,0,0-.308-.076.617.617,0,0,0-.31.079l-5.116,2.988a.431.431,0,0,0-.224.375.439.439,0,0,0,.237.376l2.171,1.21a.643.643,0,0,0,.308.076.62.62,0,0,0,.31-.079l5.115-2.988a.429.429,0,0,0,.224-.376.436.436,0,0,0-.237-.376" transform="translate(-29.645 -97.575)" fill="#8ec2fe"/>
        <path id="패스_55357" data-name="패스 55357" d="M79.28,234.3a1.127,1.127,0,0,0-.52-.111,1.416,1.416,0,0,0-.656.152c-.343.186-.374.471-.069.634a1.392,1.392,0,0,0,1.176-.041l.028-.016c.229-.135.3-.315.215-.464a.434.434,0,0,0-.174-.154" transform="translate(-32.796 -98.689)" fill="#2d4383"/>
        <path id="패스_55358" data-name="패스 55358" d="M80.4,233.73a.667.667,0,0,1,.244.253c.009.026.026.052.035.078l.148-.688-.959.183a1.272,1.272,0,0,1,.532.174" transform="translate(-33.658 -98.343)" fill="#fff"/>
        <path id="패스_55359" data-name="패스 55359" d="M80.178,235.665c-.009.009-.026.017-.035.026a1.751,1.751,0,0,1-.662.235l.95.253-.087-.654a1.233,1.233,0,0,1-.165.139" transform="translate(-33.493 -99.25)" fill="#fff"/>
        <path id="패스_55360" data-name="패스 55360" d="M77.289,234.089a.868.868,0,0,1,.288-.27,1.65,1.65,0,0,1,.61-.218l-1.054-.183Z" transform="translate(-32.503 -98.362)" fill="#fff"/>
        <path id="패스_55361" data-name="패스 55361" d="M77.152,235.391l-.157.723,1.09-.209a2.06,2.06,0,0,1-.662-.2.623.623,0,0,1-.27-.314" transform="translate(-32.446 -99.194)" fill="#fff"/>
        <path id="패스_55362" data-name="패스 55362" d="M24.578,299.957c-.277.158,0,.466,0,.786,0,.547.056.989.65.991s.657-.439.658-.986c0-.252.327-.486.157-.658-.013-.012-.025-.027-.039-.039s5.295-.682,6.4-.439a8.523,8.523,0,0,1,1.018-.626c-2.866-1.026-6.912-.125-8.849.971" transform="translate(-10.306 -125.803)" fill="#8ec2fe"/>
        <path id="패스_55363" data-name="패스 55363" d="M25.1,300.51a1.041,1.041,0,1,0,1.04,1.04,1.04,1.04,0,0,0-1.04-1.04" transform="translate(-10.138 -126.635)" fill="#335fff"/>
        <path id="패스_55364" data-name="패스 55364" d="M33.361,297.278l-.017-.028c-6.416-.588-9.093,2.346-9.093,2.346a14.77,14.77,0,0,1,9.09-1.185,1.01,1.01,0,0,1-.374-.315c-.18-.289-.01-.585.394-.818" transform="translate(-10.219 -125.228)" fill="#fff"/>
        <path id="패스_55365" data-name="패스 55365" d="M29.931,306.062a1.566,1.566,0,0,0-.192.671,1.253,1.253,0,0,0,2.5.006,1.065,1.065,0,0,0-.009-.151,1.049,1.049,0,0,0-.175-.45,18.137,18.137,0,0,1,5.371-5.443v-.788c-.05-.02-1.828-.078-1.878-.1-2.626,1.168-5.213,5.393-5.614,6.251" transform="translate(-12.532 -126.34)" fill="#8ec2fe"/>
        <path id="패스_55366" data-name="패스 55366" d="M31.035,309.531a1.25,1.25,0,1,0,1.25,1.25,1.25,1.25,0,0,0-1.25-1.25" transform="translate(-12.551 -130.436)" fill="#335fff"/>
        <path id="패스_55367" data-name="패스 55367" d="M35.522,299.314c-.306.157-4.142,3.861-5.125,5.923a.562.562,0,0,0,.34.784l.031.009a.57.57,0,0,0,.69-.348c.856-2.1,5.993-6.082,5.947-6.081a3.485,3.485,0,0,1-1.882-.288" transform="translate(-12.786 -126.131)" fill="#fff"/>
        <path id="패스_55368" data-name="패스 55368" d="M54.851,299.957c-1.937-1.1-5.983-2-8.849-.971a8.482,8.482,0,0,1,1.018.626c1.106-.244,6.4.439,6.4.439s-.025.028-.039.039c-.17.172.157.407.157.658,0,.547.058.987.658.986s.652-.444.65-.991c0-.32.28-.628,0-.786" transform="translate(-19.385 -125.803)" fill="#8ec2fe"/>
        <path id="패스_55369" data-name="패스 55369" d="M59.339,300.51a1.041,1.041,0,1,0,1.04,1.04,1.041,1.041,0,0,0-1.04-1.04" transform="translate(-24.567 -126.635)" fill="#335fff"/>
        <path id="패스_55370" data-name="패스 55370" d="M45.985,297.25l-.017.028c.4.233.573.529.393.818a1,1,0,0,1-.373.315,14.774,14.774,0,0,1,9.091,1.185s-2.678-2.935-9.093-2.346" transform="translate(-19.371 -125.228)" fill="#fff"/>
        <path id="패스_55371" data-name="패스 55371" d="M44.823,299.811c-.05.018-1.829.077-1.879.1v.787a18.128,18.128,0,0,1,5.371,5.444,1.048,1.048,0,0,0-.174.45,1.155,1.155,0,0,0-.01.151,1.254,1.254,0,0,0,2.5-.006,1.575,1.575,0,0,0-.192-.671c-.4-.859-2.987-5.084-5.613-6.251" transform="translate(-18.097 -126.34)" fill="#8ec2fe"/>
        <path id="패스_55372" data-name="패스 55372" d="M53.141,309.531a1.25,1.25,0,1,0,1.25,1.25,1.25,1.25,0,0,0-1.25-1.25" transform="translate(-21.867 -130.436)" fill="#335fff"/>
        <path id="패스_55373" data-name="패스 55373" d="M45.3,299.314a3.487,3.487,0,0,1-1.883.288c-.046,0,5.091,3.985,5.947,6.081a.57.57,0,0,0,.689.348l.031-.009a.561.561,0,0,0,.339-.784c-.982-2.062-4.819-5.766-5.124-5.923" transform="translate(-18.295 -126.131)" fill="#fff"/>
        <path id="패스_55374" data-name="패스 55374" d="M41.335,296.791c-1.557,0-2.82.493-2.82,1.1s1.263,1.1,2.82,1.1,2.82-.493,2.82-1.1-1.263-1.1-2.82-1.1" transform="translate(-16.23 -125.068)" fill="#064f8a"/>
        <path id="패스_55375" data-name="패스 55375" d="M41.335,296.291c-1.557,0-2.82.493-2.82,1.1s1.263,1.1,2.82,1.1,2.82-.494,2.82-1.1-1.263-1.1-2.82-1.1" transform="translate(-16.23 -124.857)" fill="#8ec2fe"/>
        <path id="패스_55376" data-name="패스 55376" d="M57.1,286.506a13.367,13.367,0,0,0-2.946.675s.187,2.046-1.571,1.23c-1.228-.57-2.74-2.507-3.2-2.507-.009.009-1.264,1-.161,2.934a10.4,10.4,0,0,1,1.256,2.794.476.476,0,0,0,.637-.108l-.647-2.467,2.863,1.312a1.827,1.827,0,0,0,1.472-.248,5.494,5.494,0,0,0,2.637-3.324c.028-.19-.156-.308-.337-.292" transform="translate(-20.551 -120.48)" fill="#2d4383"/>
        <path id="패스_55377" data-name="패스 55377" d="M48.046,254.774l2.193,4.591,1.035-.669a19.649,19.649,0,0,0-1.37,6.814c-.084,3.9-.133,6.019-.825,6.818a15.533,15.533,0,0,1,2.033,1.836c.61.686,2.347,1.414,3.362.582a.534.534,0,0,0-.132-.891c-.783-.356-1.891-1.048-2.022-2.154-.165-1.4,3.481-12.582,3.481-16.054s-6.5-1.381-7.756-.871" transform="translate(-20.247 -106.902)" fill="#ffaa83"/>
        <path id="패스_55378" data-name="패스 55378" d="M66.029,294.616a13.4,13.4,0,0,0-2.946.675s.187,2.047-1.571,1.23c-1.227-.569-2.74-2.505-3.2-2.505-.01.008-1.265,1-.162,2.934a10.422,10.422,0,0,1,1.257,2.793.475.475,0,0,0,.637-.107l-.647-2.467,2.864,1.312a1.832,1.832,0,0,0,1.471-.248,5.5,5.5,0,0,0,2.638-3.324c.028-.189-.155-.309-.338-.293" transform="translate(-24.312 -123.898)" fill="#2d4383"/>
        <path id="패스_55379" data-name="패스 55379" d="M54.748,261.191l3.48,5.578,1.035-.668a19.634,19.634,0,0,0-1.37,6.813c-.085,3.9-.134,6.018-.825,6.818a15.525,15.525,0,0,1,2.031,1.836c.611.685,2.349,1.414,3.363.58a.534.534,0,0,0-.132-.891c-.782-.355-1.891-1.047-2.021-2.154-.165-1.4,3.481-12.581,3.481-16.054,0-4.806-7.786-2.368-9.043-1.858" transform="translate(-23.071 -109.615)" fill="#ffaa83"/>
        <path id="패스_55380" data-name="패스 55380" d="M41.4,293.261a1.811,1.811,0,0,0,1.128.246c.98,0,1.209-.246,1.209-.246V285.9H41.4Z" transform="translate(-17.445 -120.479)" fill="#335fff"/>
        <path id="패스_55381" data-name="패스 55381" d="M48.954,275.887l10.038-5.154-11.133-6.364Z" transform="translate(-20.168 -111.405)" fill="#9899ef"/>
        <path id="패스_55382" data-name="패스 55382" d="M47.321,259.953c-1.073-.744-3.66-3.076-3.66-3.076l-.521,4.462c-3.09,2.909-7.153-1.121-7.186-1.151h0a5.906,5.906,0,0,0,1.24,7.533c3.751,3.359,8.184,1.584,12.789-2.28,0,0,.893-3.03-2.66-5.489" transform="translate(-14.791 -108.248)" fill="#ffdb5a"/>
        <path id="패스_55383" data-name="패스 55383" d="M41.592,243.189c-1.931-1.062-3.089-1.84-3.089-1.84a4.688,4.688,0,0,0-1.423-.38,2.325,2.325,0,0,0-1.831.5c-3.025,2.718.222,9.387.222,12.009,0,0,4.083,4.076,7.19,1.151l.52-4.463a1.935,1.935,0,0,0,1.361-1.9,7.773,7.773,0,0,0-2.95-5.073" transform="translate(-14.311 -101.537)" fill="#6e6fda"/>
        <path id="패스_55384" data-name="패스 55384" d="M45.86,228.228c-.294-1.819-1.817-2.653-3.7-2.653a3.669,3.669,0,0,0-3.669,3.669c0,.021,0,.041,0,.061h0v2.042c0,1.528,4.109,3.794,4.579,3.776a1.134,1.134,0,0,0,.671-.244c1.262-1.008,2.43-3.062,2.2-4.529-.137-.864.031-1.471-.075-2.123" transform="translate(-16.219 -95.057)" fill="#ffaa83"/>
        <path id="패스_55385" data-name="패스 55385" d="M42.017,227.537c.786-.532,2.38-.728,2.38-2.463,0-.8-2-2.881-4.485-2.881a5.523,5.523,0,0,0-4.975,3.82c-1.244,4.062-.477,12.652-.477,15.779,0,4.46,3.778,4.186,3.778,2.984,0-6.273,1.2-9.305,2.611-9.305,1.187,0,3.173,1.7,3.792,4.631.175-2.929-1.133-4.217-2.237-6.166-1.416-2.5-1.273-5.8-.385-6.4" transform="translate(-14.422 -93.632)" fill="#2d4383"/>
        <path id="패스_55386" data-name="패스 55386" d="M52.71,246.685c-2.692.239-5.964-.885-8.355-1.761-.841-.258-1.8.549-2.168,1.67a3.005,3.005,0,0,0-.059.841,2.049,2.049,0,0,0,1.7,2.056c2.667.9,6.03.753,8.991.574a1.787,1.787,0,0,0,1.684-1.844c0-.014,0-.043,0-.058a1.673,1.673,0,0,0-1.8-1.478" transform="translate(-17.751 -103.19)" fill="#6e6fda"/>
        <path id="패스_55387" data-name="패스 55387" d="M73.61,236.467a12.419,12.419,0,0,1-1.562.595,1.43,1.43,0,0,1-.838-.126c-.018-.175.221-.264.221-.264s.84-.052.931-.047a.508.508,0,0,0,.518-.472l-1.39-.122a1.437,1.437,0,0,0-.775.225c-.334.242-.281.825-.62,1.111-.8.678-3.851,3.425-3.851,3.425l1.476,1.816c1.247-1.262,2.781-3.365,3.088-3.415.175-.028,2.006-.047,2.57-.623s.411-.764.681-1.6-.449-.5-.449-.5" transform="translate(-27.915 -99.463)" fill="#ffc4b1"/>
        <path id="패스_55388" data-name="패스 55388" d="M65.189,239.713a28.609,28.609,0,0,1-6.62,5.132,1.533,1.533,0,0,0-.615,1.979l.1.186a1.629,1.629,0,0,0,2.2.6c2.011-1.043,5.067-4.054,6.886-6.183a5.631,5.631,0,0,1-1.949-1.719" transform="translate(-24.359 -101.015)" fill="#6e6fda"/>
        <path id="패스_55389" data-name="패스 55389" d="M25.139,271.587a5.3,5.3,0,0,0,2.626,4.576l7.922,4.633a4.278,4.278,0,0,0,4.173.082l1.261-.673-15.983-9.1Z" transform="translate(-10.594 -114.244)" fill="#8ec2fe"/>
        <path id="패스_55390" data-name="패스 55390" d="M33.458,243.562,25.5,238.751c-.831-.437-1.531-.321-1.887.225v0a1.868,1.868,0,0,0-.236,1.143l.67,16.646a2.677,2.677,0,0,0,1.326,2.15l11.609,6.745L35.755,247.1a4.944,4.944,0,0,0-2.3-3.539" transform="translate(-9.848 -100.497)" fill="#8ec2fe"/>
        <path id="패스_55391" data-name="패스 55391" d="M47.689,259.2l-8.306,4.3,0-.008.026-.019-1.426-17.728a4.925,4.925,0,0,0-2.252-3.481L28,237.407c-.934-.5-3.808-.006-4.212,1.032.356-.546,1.056-.663,1.887-.224l7.957,4.81a4.944,4.944,0,0,1,2.3,3.539l1.228,18.562v.026a1.556,1.556,0,0,0,2.287,1.359l9.332-5.169a1.188,1.188,0,0,0,.627-1.047v-.027a1.188,1.188,0,0,0-1.717-1.064" transform="translate(-10.025 -99.96)" fill="#e8eeff"/>
        <path id="패스_55392" data-name="패스 55392" d="M26.633,113.652,0,98.291V95.8l26.632,15.361Z" transform="translate(0 -40.371)" fill="#335fff"/>
        <path id="패스_55393" data-name="패스 55393" d="M22.9,110.7a.671.671,0,0,0-.04.241,1.087,1.087,0,0,0,.038.284L2.169,99.277l0-.525Z" transform="translate(-0.914 -41.614)" fill="#f6f4f6"/>
        <path id="패스_55394" data-name="패스 55394" d="M38.609,119.084a1.494,1.494,0,0,1,.679,1.176c0,.43-.307.6-.684.386a1.51,1.51,0,0,1-.638-.888,1.089,1.089,0,0,1-.039-.284.67.67,0,0,1,.041-.241c.095-.249.347-.32.64-.15" transform="translate(-15.983 -50.143)" fill="#fff"/>
        <path id="패스_55395" data-name="패스 55395" d="M26.646,95.409.031,80.059V58.415l26.614,15.35Z" transform="translate(-0.013 -24.616)" fill="#d1ddff"/>
        <path id="패스_55396" data-name="패스 55396" d="M43.251,122.237l-.833.323,0-1.538Z" transform="translate(-17.875 -50.999)" fill="#fff"/>
        <path id="패스_55397" data-name="패스 55397" d="M19.28,77.873A13.521,13.521,0,0,1,25.414,88.5c-.011,3.9-2.776,5.48-6.174,3.518A13.519,13.519,0,0,1,13.107,81.39c.01-3.9,2.775-5.479,6.173-3.518" transform="translate(-5.523 -32.46)" fill="#1b3bef"/>
        <path id="패스_55398" data-name="패스 55398" d="M22.447,93.161,16.9,86.75l5.55-2.328Z" transform="translate(-7.121 -35.575)" fill="#fff"/>
      </g>
    </g>
  </g>
</svg>
