<svg xmlns="http://www.w3.org/2000/svg" xmlns:xlink="http://www.w3.org/1999/xlink" width="24" height="24" viewBox="0 0 24 24">
  <defs>
    <clipPath id="clip-path">
      <rect id="사각형_27776" data-name="사각형 27776" width="24" height="24" fill="#09122a"/>
    </clipPath>
  </defs>
  <g id="icon_회의목록" clip-path="url(#clip-path)">
    <path id="패스_84601" data-name="패스 84601" d="M21.81,10.453a1.515,1.515,0,0,1,.211,1.476l-2.11,6.75a1.71,1.71,0,0,1-1.617,1.2H4.126a2.281,2.281,0,0,1-2.25-2.25V6.375a2.281,2.281,0,0,1,2.25-2.25H8.275a2.161,2.161,0,0,1,1.582.668l1.582,1.582h6.187a2.281,2.281,0,0,1,2.25,2.25H18.751A1.082,1.082,0,0,0,17.626,7.5H10.982L9.048,5.566a1.052,1.052,0,0,0-.773-.316H4.126A1.083,1.083,0,0,0,3,6.375v9.843l2-5.378A1.735,1.735,0,0,1,6.587,9.75H20.4a1.671,1.671,0,0,1,1.406.7m-.844,1.16a.465.465,0,0,0-.07-.492.539.539,0,0,0-.457-.246H6.587a.585.585,0,0,0-.527.351l-2.531,6.75a.534.534,0,0,0,.07.528.524.524,0,0,0,.211.175.7.7,0,0,0,.316.071H18.294a.564.564,0,0,0,.563-.387Z" fill="#09122a"/>
  </g>
</svg>
