<svg id="icon_노트열림" xmlns="http://www.w3.org/2000/svg" xmlns:xlink="http://www.w3.org/1999/xlink" width="24" height="24" viewBox="0 0 24 24">
  <defs>
    <clipPath id="clip-path">
      <rect id="사각형_27793" data-name="사각형 27793" width="24" height="24" fill="none"/>
    </clipPath>
  </defs>
  <g id="그룹_25173" data-name="그룹 25173" clip-path="url(#clip-path)">
    <path id="패스_84605" data-name="패스 84605" d="M18.643,19.242a1.17,1.17,0,0,1-1.055.633H4.123a2.281,2.281,0,0,1-2.25-2.25V6.375a2.281,2.281,0,0,1,2.25-2.25H8.272a2.16,2.16,0,0,1,1.582.668l1.723,1.582H16.5a2.28,2.28,0,0,1,2.25,2.25V9.75H17.061V8.625a.542.542,0,0,0-.563-.563H10.873L8.659,5.988a.54.54,0,0,0-.387-.176H4.123a.542.542,0,0,0-.562.563V16.5l2.5-4.992a1.14,1.14,0,0,1,1.02-.633H21a1.135,1.135,0,0,1,.95.527,1.12,1.12,0,0,1,.07,1.09Z" transform="translate(1.127)" fill="#2b2b2b"/>
  </g>
</svg>
