<svg id="icon_노트목록" xmlns="http://www.w3.org/2000/svg" xmlns:xlink="http://www.w3.org/1999/xlink" width="24" height="24" viewBox="0 0 24 24">
  <defs>
    <clipPath id="clip-path">
      <rect id="사각형_27775" data-name="사각형 27775" width="24" height="24" fill="#545d6c"/>
    </clipPath>
  </defs>
  <g id="그룹_24798" data-name="그룹 24798" clip-path="url(#clip-path)">
    <path id="패스_84600" data-name="패스 84600" d="M18.75,6.375a2.312,2.312,0,0,1,1.617.668A2.352,2.352,0,0,1,21,8.625v9a2.281,2.281,0,0,1-2.25,2.25H5.25A2.281,2.281,0,0,1,3,17.625V6.375a2.281,2.281,0,0,1,2.25-2.25H9.433a2.162,2.162,0,0,1,1.582.668L12.6,6.375Zm1.16,11.25v-9A1.082,1.082,0,0,0,18.785,7.5H12.14L10.207,5.566a1.052,1.052,0,0,0-.774-.316H5.285A1.082,1.082,0,0,0,4.16,6.375v11.25A1.082,1.082,0,0,0,5.285,18.75h13.5a1.082,1.082,0,0,0,1.125-1.125" fill="#545d6c"/>
  </g>
</svg>
