<svg xmlns="http://www.w3.org/2000/svg" width="206.512" height="20" viewBox="0 0 206.512 20">
  <g id="그룹_21887" data-name="그룹 21887" transform="translate(-540 86.8)">
    <g id="그룹_21888" data-name="그룹 21888">
      <path id="패스_50614" data-name="패스 50614" d="M90.238,17.8H84.486L82.02,22.36H78.426L88.854,4.625h4.172L93.98,22.36H90.265Zm-.028-2.757L90.2,13.108c-.058-1.846.008-3.883-.005-5.8h-.1c-.976,1.941-2.041,3.955-3.063,5.8l-1.046,1.939Z" transform="translate(494.323 -89.494)" fill="#838a94"/>
      <path id="패스_50615" data-name="패스 50615" d="M125.416,4.625h3.547L124.211,22.36h-3.546Z" transform="translate(469.722 -89.494)" fill="#838a94"/>
      <path id="패스_50616" data-name="패스 50616" d="M149.257,22.36l-1.846-6.713h-2.467l-1.8,6.713H139.6l4.755-17.735h6.182c3.717,0,6.317,1.293,5.222,5.368a7.185,7.185,0,0,1-4.744,5.1l2.2,7.264Zm-3.563-9.517H148c2.279,0,3.779-.956,4.288-2.85.513-1.918-.558-2.565-2.838-2.565h-2.3Z" transform="translate(458.695 -89.494)" fill="#838a94"/>
      <path id="패스_50617" data-name="패스 50617" d="M176.456,19.634l2.694-2.444a5.221,5.221,0,0,0,3.98,1.966c1.846,0,3.039-.79,3.372-2.036.351-1.319-.616-1.725-2.019-2.4l-2.1-1.006a3.783,3.783,0,0,1-2.318-4.77c.774-2.9,3.915-5.129,7.51-5.129a5.964,5.964,0,0,1,4.948,2.277l-2.391,2.229a4.339,4.339,0,0,0-3.372-1.462c-1.56,0-2.751.694-3.065,1.869-.341,1.271.808,1.725,2.158,2.325l2.058.982c1.92.889,2.966,2.252,2.281,4.817-.779,2.9-3.857,5.368-7.958,5.368a7.192,7.192,0,0,1-5.777-2.589" transform="translate(437.228 -89.023)" fill="#838a94"/>
      <path id="패스_50618" data-name="패스 50618" d="M216.583,12.948c1.55-5.774,5.682-9.13,10.378-9.13s7.025,3.38,5.488,9.13-5.722,9.276-10.418,9.276-6.991-3.523-5.449-9.276m12.245,0c1.023-3.807-.045-6.086-2.68-6.086s-4.927,2.278-5.947,6.086c-1.015,3.786.016,6.208,2.651,6.208s4.961-2.422,5.976-6.208" transform="translate(414.135 -89.024)" fill="#838a94"/>
      <path id="패스_50619" data-name="패스 50619" d="M261.957,14.375l2.614-9.75h3.548l-2.7,10.065c-.991,3.691-.055,4.936,2.027,4.936,2.114,0,3.787-1.245,4.778-4.936l2.7-10.065h3.4l-2.612,9.75c-1.581,5.9-4.746,8.319-9.083,8.319-4.314,0-6.251-2.422-4.673-8.319" transform="translate(387.747 -89.494)" fill="#838a94"/>
      <path id="패스_50620" data-name="패스 50620" d="M305.509,4.625h3.616l2.625,9.441.745,3.834h.121c.3-1.843.669-4.193,1.206-6.2l1.9-7.07h3.354L314.322,22.36h-3.6l-2.58-9.493-.779-3.808h-.123c-.346,1.917-.676,4.146-1.219,6.182l-1.909,7.119h-3.356Z" transform="translate(364.831 -89.494)" fill="#838a94"/>
      <path id="패스_50621" data-name="패스 50621" d="M348.491,4.625h4.867c5.415,0,8.018,2.8,6.414,8.793-1.6,5.968-5.747,8.942-10.976,8.942H343.74Zm.664,14.88c3.307,0,5.842-1.771,7-6.087,1.159-4.337-.464-5.965-3.773-5.965h-1.1l-3.23,12.052Z" transform="translate(339.797 -89.494)" fill="#838a94"/>
      <path id="패스_50622" data-name="패스 50622" d="M402.495,4.625h3.547L401.291,22.36h-3.548Z" transform="translate(308.344 -89.494)" fill="#838a94"/>
      <path id="패스_50623" data-name="패스 50623" d="M419.587,14.484h2.879l-.236,1.774h.092a8.272,8.272,0,0,1,4.929-2.111c2.9,0,3.608,2.014,2.7,5.393l-2.242,8.366h-3.521l2.126-7.935c.553-2.061.176-2.8-1.143-2.8-1.1,0-1.938.527-3.21,1.51l-2.47,9.228h-3.5Z" transform="translate(297.716 -95.04)" fill="#838a94"/>
      <path id="패스_50624" data-name="패스 50624" d="M454.6,21.216a9.318,9.318,0,0,1,8.745-7.069,4.5,4.5,0,0,1,3.514,1.487l-2.29,2.276a2.306,2.306,0,0,0-1.825-.886c-2.035,0-3.868,1.654-4.549,4.192-.674,2.517.278,4.146,2.219,4.146a5.437,5.437,0,0,0,2.9-1.075l.771,2.323a8.483,8.483,0,0,1-4.822,1.629c-3.721,0-5.853-2.589-4.665-7.023" transform="translate(275.421 -95.04)" fill="#838a94"/>
      <path id="패스_50625" data-name="패스 50625" d="M483.7,39.176a3.082,3.082,0,0,1,2.8-2.3,1.648,1.648,0,0,1,1.592,2.3,3.086,3.086,0,0,1-2.824,2.3,1.643,1.643,0,0,1-1.563-2.3" transform="translate(258.334 -108.277)" fill="#838a94"/>
    </g>
    <path id="패스_50626" data-name="패스 50626" d="M2.6,29.695,5.8,27.315,0,26.14l1.723,7.94,4.724-3.552Z" transform="translate(540 -102.025)" fill="#838a94" opacity="0.7"/>
    <path id="패스_50627" data-name="패스 50627" d="M14.54,15.3l19.926,4.317L30.182,0,13.9,12.091l3.878.784Z" transform="translate(531.907 -86.8)" fill="#838a94" opacity="0.4"/>
    <path id="패스_50628" data-name="패스 50628" d="M10.068,32.168,13.3,29.739l-3.878-.784L6.217,31.334Z" transform="translate(536.379 -103.664)" fill="#838a94"/>
    <rect id="사각형_23950" data-name="사각형 23950" width="206.512" height="20" transform="translate(540 -86.8)" fill="#838a94" opacity="0"/>
  </g>
</svg>
