<svg id="icon_구글" xmlns="http://www.w3.org/2000/svg" xmlns:xlink="http://www.w3.org/1999/xlink" width="19.138" height="19.529" viewBox="0 0 19.138 19.529">
  <defs>
    <clipPath id="clip-path">
      <rect id="사각형_26786" data-name="사각형 26786" width="19.138" height="19.529" fill="none"/>
    </clipPath>
  </defs>
  <g id="그룹_22571" data-name="그룹 22571" clip-path="url(#clip-path)">
    <path id="패스_74185" data-name="패스 74185" d="M68.9,50.7a11.225,11.225,0,0,0-.177-2h-9.2v3.777h5.255a4.491,4.491,0,0,1-1.948,2.947v2.45h3.156A9.523,9.523,0,0,0,68.9,50.7" transform="translate(-49.759 -40.712)" fill="#3e82f1" fill-rule="evenodd"/>
    <path id="패스_74186" data-name="패스 74186" d="M15.057,78.741a9.322,9.322,0,0,0,6.462-2.366l-3.156-2.45a5.891,5.891,0,0,1-8.77-3.094H6.331v2.53a9.76,9.76,0,0,0,8.726,5.379" transform="translate(-5.292 -59.212)" fill="#32a753" fill-rule="evenodd"/>
    <path id="패스_74187" data-name="패스 74187" d="M4.3,39.032a5.772,5.772,0,0,1,0-3.71v-2.53H1.039a9.777,9.777,0,0,0,0,8.77Z" transform="translate(0 -27.413)" fill="#f9bb00" fill-rule="evenodd"/>
    <path id="패스_74188" data-name="패스 74188" d="M15.057,3.884a5.275,5.275,0,0,1,3.733,1.46l2.8-2.8A9.384,9.384,0,0,0,15.057,0,9.76,9.76,0,0,0,6.331,5.379l3.262,2.53a5.819,5.819,0,0,1,5.463-4.025" transform="translate(-5.292)" fill="#e74133" fill-rule="evenodd"/>
  </g>
</svg>
