<svg id="icon_필터" xmlns="http://www.w3.org/2000/svg" xmlns:xlink="http://www.w3.org/1999/xlink" width="18" height="18" viewBox="0 0 18 18">
  <defs>
    <clipPath id="clip-path">
      <rect id="사각형_27799" data-name="사각형 27799" width="18" height="18" fill="#09122a"/>
    </clipPath>
  </defs>
  <g id="그룹_25185" data-name="그룹 25185" clip-path="url(#clip-path)">
    <path id="패스_84610" data-name="패스 84610" d="M1.375,2.375A1.135,1.135,0,0,1,2.25,2H15.781a1.1,1.1,0,0,1,.844.375A1.135,1.135,0,0,1,17,3.25a1.2,1.2,0,0,1-.281.781L11,10.937v4A1.065,1.065,0,0,1,9.937,16a1.125,1.125,0,0,1-.656-.219l-1.906-1.5A.92.92,0,0,1,7,13.5V10.937L1.281,4.031A1.2,1.2,0,0,1,1,3.25a1.135,1.135,0,0,1,.375-.875M2,3.25a.18.18,0,0,0,.062.125l5.813,7.062A.427.427,0,0,1,8,10.75V13.5L9.875,15h.062A.055.055,0,0,0,10,14.938V10.75a.424.424,0,0,1,.125-.313l5.813-7.062A.18.18,0,0,0,16,3.25.259.259,0,0,0,15.781,3H2.25A.269.269,0,0,0,2,3.25" fill="#09122a"/>
  </g>
</svg>
