<svg id="구성_요소_1246_9" data-name="구성 요소 1246 – 9" xmlns="http://www.w3.org/2000/svg" xmlns:xlink="http://www.w3.org/1999/xlink" width="26" height="26" viewBox="0 0 26 26">
  <defs>
    <linearGradient id="linear-gradient" x2="1" y2="0.908" gradientUnits="objectBoundingBox">
      <stop offset="0" stop-color="#33b3ff"/>
      <stop offset="0.459" stop-color="#3392ff"/>
      <stop offset="1" stop-color="#2848ff"/>
    </linearGradient>
    <clipPath id="clip-path">
      <rect id="사각형_27007" data-name="사각형 27007" width="26" height="26" fill="url(#linear-gradient)"/>
    </clipPath>
  </defs>
  <g id="그룹_23025" data-name="그룹 23025" clip-path="url(#clip-path)">
    <path id="패스_74281" data-name="패스 74281" d="M6.125,13.4a7,7,0,0,0,.129,1.375H3.461A10.929,10.929,0,0,1,3.375,13.4,9.512,9.512,0,0,1,5.867,6.952l-1.8-1.805.687-.688h5.5v5.5l-.688.688L7.8,8.885A6.852,6.852,0,0,0,6.125,13.4m8.25,6.746v2.793A11.144,11.144,0,0,1,13,23.022,9.517,9.517,0,0,1,6.555,20.53l-1.8,1.8-.687-.688v-5.5h5.5l.688.688L8.488,18.6A6.849,6.849,0,0,0,13,20.272a7.01,7.01,0,0,0,1.375-.129M11.625,6.651V3.858A11.12,11.12,0,0,1,13,3.772a9.521,9.521,0,0,1,6.445,2.492l1.805-1.8.688.688v5.5h-5.5l-.688-.688L17.512,8.2A6.863,6.863,0,0,0,13,6.522a7,7,0,0,0-1.375.129m11,6.746a9.517,9.517,0,0,1-2.492,6.445l1.805,1.805-.688.688h-5.5v-5.5l.688-.688L18.2,17.909A6.859,6.859,0,0,0,19.875,13.4a7.01,7.01,0,0,0-.129-1.375h2.793a11.144,11.144,0,0,1,.086,1.375" fill="url(#linear-gradient)"/>
  </g>
</svg>
