<svg id="icon_문의하기" xmlns="http://www.w3.org/2000/svg" xmlns:xlink="http://www.w3.org/1999/xlink" width="24" height="24" viewBox="0 0 24 24">
  <defs>
    <clipPath id="clip-path">
      <rect id="사각형_23957" data-name="사각형 23957" width="24" height="24" fill="none"/>
    </clipPath>
  </defs>
  <g id="그룹_21566" data-name="그룹 21566" clip-path="url(#clip-path)">
    <path id="패스_50632" data-name="패스 50632" d="M3.951,14.715,14.64,3.993a2.292,2.292,0,0,1,3.163,0L19.209,5.4a2.268,2.268,0,0,1,0,3.164L8.523,19.251c-.024.022-.047.046-.071.07-.023,0-.047.022-.07.07a4.262,4.262,0,0,1-1.2.668l-4.219,1.23a.775.775,0,0,1-.844-.246.733.733,0,0,1-.211-.808l1.231-4.219a3,3,0,0,1,.807-1.3M6.73,18.442a1.747,1.747,0,0,0,.6-.353l8.016-8.049L13.128,7.825l-7.98,8.051-.072.07a1.785,1.785,0,0,0-.316.527l-.809,2.778Zm15.4,2.038a.842.842,0,0,1-.845.845H10.6a.844.844,0,0,1,0-1.688H21.283a.842.842,0,0,1,.845.843" fill="#1d1d1f"/>
  </g>
</svg>
