<svg id="icon_휴지통" xmlns="http://www.w3.org/2000/svg" xmlns:xlink="http://www.w3.org/1999/xlink" width="24" height="24" viewBox="0 0 24 24">
  <defs>
    <clipPath id="clip-path">
      <rect id="사각형_28972" data-name="사각형 28972" width="24" height="24" fill="#666"/>
    </clipPath>
  </defs>
  <g id="그룹_27696" data-name="그룹 27696" clip-path="url(#clip-path)">
    <path id="패스_85545" data-name="패스 85545" d="M15.973,5.25h3.34a.563.563,0,0,1,0,1.125H18.68l-.914,12.551a2.2,2.2,0,0,1-.7,1.476,2.39,2.39,0,0,1-1.547.6H8.485a2.388,2.388,0,0,1-1.547-.6,2.2,2.2,0,0,1-.7-1.476L5.321,6.375H4.688a.563.563,0,1,1,0-1.125h3.34l.914-1.441A1.743,1.743,0,0,1,10.383,3h3.234a1.6,1.6,0,0,1,1.407.809ZM7.711,19.559a1.052,1.052,0,0,0,.774.316h7.031a1.146,1.146,0,0,0,1.125-1.055l.914-12.445H6.446L7.36,18.82a1.055,1.055,0,0,0,.351.739m2.778-3.8-2.25-2.25a.547.547,0,0,1,.773-.774l1.863,1.828,4.114-4.078a.547.547,0,0,1,.773.774l-4.5,4.5a.513.513,0,0,1-.773,0M14.637,5.25l-.527-.844a.554.554,0,0,0-.493-.281H10.383a.551.551,0,0,0-.492.281l-.527.844Z" fill="#666"/>
  </g>
</svg>
