<svg id="icon_라이센스" xmlns="http://www.w3.org/2000/svg" xmlns:xlink="http://www.w3.org/1999/xlink" width="20" height="20" viewBox="0 0 20 20">
  <defs>
    <clipPath id="clip-path">
      <rect id="사각형_26570" data-name="사각형 26570" width="20" height="20" fill="#838a94"/>
    </clipPath>
  </defs>
  <g id="그룹_22101" data-name="그룹 22101" clip-path="url(#clip-path)">
    <path id="패스_74065" data-name="패스 74065" d="M6.5,2,9.187,6.063A6.354,6.354,0,0,0,5.718,7.594L2,2Zm7.375,14.375a5.433,5.433,0,0,1-7.75,0A5.5,5.5,0,0,1,10,7a5.48,5.48,0,0,1,3.875,9.375M9.062,11.282,7,11.563l1.5,1.406-.344,1.969L10,14l1.843.938L11.5,12.969,13,11.563l-2.063-.281L10,9.5Zm5.219-3.688a6.357,6.357,0,0,0-3.469-1.531L13.5,2H18Z" fill="#838a94"/>
  </g>
</svg>
