<svg id="icon_추가업로드" xmlns="http://www.w3.org/2000/svg" xmlns:xlink="http://www.w3.org/1999/xlink" width="24" height="24" viewBox="0 0 24 24">
  <defs>
    <clipPath id="clip-path">
      <rect id="사각형_28977" data-name="사각형 28977" width="24" height="24" fill="#545d6c"/>
    </clipPath>
  </defs>
  <g id="그룹_27711" data-name="그룹 27711" clip-path="url(#clip-path)">
    <path id="패스_85548" data-name="패스 85548" d="M18.082,7.394a2.165,2.165,0,0,1,.668,1.582V18.75A2.281,2.281,0,0,1,16.5,21h-9a2.281,2.281,0,0,1-2.25-2.25V5.25A2.281,2.281,0,0,1,7.5,3h5.273a2.162,2.162,0,0,1,1.582.668ZM17.625,18.75v-9H13.687a1.832,1.832,0,0,1-1.2-.493A1.832,1.832,0,0,1,12,8.062V4.125H7.5A1.082,1.082,0,0,0,6.375,5.25v13.5A1.083,1.083,0,0,0,7.5,19.875h9a1.083,1.083,0,0,0,1.125-1.125M10.312,5.25a.563.563,0,1,1,0,1.125H8.063a.563.563,0,1,1,0-1.125Zm0,2.25a.563.563,0,1,1,0,1.125H8.063a.563.563,0,1,1,0-1.125Zm0,2.25a.563.563,0,1,1,0,1.125H8.063a.563.563,0,1,1,0-1.125Zm0,2.25a.541.541,0,0,1,.563.562V14.25a1.834,1.834,0,0,1-.492,1.195,1.827,1.827,0,0,1-1.2.492,1.826,1.826,0,0,1-1.2-.492A1.834,1.834,0,0,1,7.5,14.25V12.562A.541.541,0,0,1,8.063,12ZM9.75,14.25V13.125H8.625V14.25a.563.563,0,0,0,1.125,0M13.125,4.2V8.062a.541.541,0,0,0,.562.563h3.868a.972.972,0,0,0-.246-.422L13.547,4.441a.971.971,0,0,0-.422-.246" fill="#545d6c"/>
  </g>
</svg>
