<svg id="icon_surch" xmlns="http://www.w3.org/2000/svg" xmlns:xlink="http://www.w3.org/1999/xlink" width="18" height="18" viewBox="0 0 18 18">
  <defs>
    <clipPath id="clip-path">
      <rect id="사각형_27801" data-name="사각형 27801" width="18" height="18" fill="#09122a"/>
    </clipPath>
  </defs>
  <g id="그룹_25187" data-name="그룹 25187" clip-path="url(#clip-path)">
    <path id="패스_84612" data-name="패스 84612" d="M16.754,15.719a.736.736,0,0,1,.031,1.062.723.723,0,0,1-.531.219.913.913,0,0,1-.562-.219L11.5,12.594A6.32,6.32,0,0,1,7.473,14,6.347,6.347,0,0,1,2.91,12.094,6.486,6.486,0,1,1,13.973,7.5a6.413,6.413,0,0,1-1.406,4.031ZM2.5,7.5A5.016,5.016,0,1,0,3.973,3.969,5,5,0,0,0,2.5,7.5" fill="#09122a"/>
  </g>
</svg>
