<svg id="icon_파일이동_Loop" data-name="icon_파일이동 Loop" xmlns="http://www.w3.org/2000/svg" xmlns:xlink="http://www.w3.org/1999/xlink" width="18" height="18" viewBox="0 0 18 18">
  <defs>
    <clipPath id="clip-path">
      <rect id="사각형_28985" data-name="사각형 28985" width="18" height="18" fill="none"/>
    </clipPath>
  </defs>
  <g id="그룹_27734" data-name="그룹 27734" clip-path="url(#clip-path)">
    <path id="패스_85553" data-name="패스 85553" d="M13.836,15.986a.537.537,0,0,1-.376-.917l1.231-1.232H6.85A4.842,4.842,0,0,1,2.015,9,.537.537,0,0,1,3.089,9,3.761,3.761,0,0,0,6.85,12.76h7.837l-1.231-1.232a.536.536,0,0,1,.759-.758l2.15,2.152a.539.539,0,0,1,0,.76l-2.15,2.145a.526.526,0,0,1-.376.158m1.612-6.448A.538.538,0,0,1,14.91,9V9a3.761,3.761,0,0,0-3.761-3.761H3.312L4.544,6.47a.538.538,0,0,1-.76.76L1.635,5.082a.537.537,0,0,1,0-.76L3.784,2.173a.537.537,0,1,1,.8.714c-.012.013-.024.026-.037.038L3.317,4.157h7.837A4.841,4.841,0,0,1,15.985,9a.54.54,0,0,1-.538.539" fill="#09122a"/>
  </g>
</svg>
