<svg id="icon_close_16px" xmlns="http://www.w3.org/2000/svg" width="20" height="20" viewBox="0 0 20 20">
  <rect id="사각형_17127" data-name="사각형 17127" width="20" height="20" fill="#fff" opacity="0"/>
  <path id="패스_53511" data-name="패스 53511" d="M589.872,964.186l4.569-4.592a.419.419,0,0,0,0-.623l-.005-.005a.421.421,0,0,0-.625,0l-4.59,4.566-4.592-4.568a.444.444,0,0,0-.626.631l4.567,4.59L584,968.778a.421.421,0,0,0,.005.629.463.463,0,0,0,.31.138.471.471,0,0,0,.315-.14l4.589-4.566,4.593,4.569a.444.444,0,0,0,.626-.631Z" transform="translate(-579.22 -953.764)" fill="#fff"/>
</svg>
