<svg id="icon_삭제" xmlns="http://www.w3.org/2000/svg" xmlns:xlink="http://www.w3.org/1999/xlink" width="18" height="18" viewBox="0 0 18 18">
  <defs>
    <clipPath id="clip-path">
      <rect id="사각형_28986" data-name="사각형 28986" width="18" height="18" fill="none"/>
    </clipPath>
  </defs>
  <g id="그룹_27735" data-name="그룹 27735" clip-path="url(#clip-path)">
    <path id="패스_85554" data-name="패스 85554" d="M12.531,3H15.5a.481.481,0,0,1,.5.5.482.482,0,0,1-.5.5h-.562l-.813,11.156a1.964,1.964,0,0,1-.625,1.313A2.129,2.129,0,0,1,12.125,17H5.875A2.127,2.127,0,0,1,4.5,16.469a1.96,1.96,0,0,1-.625-1.313L3.063,4H2.5A.482.482,0,0,1,2,3.5.482.482,0,0,1,2.5,3H5.469l.813-1.281A1.55,1.55,0,0,1,7.563,1h2.875a1.422,1.422,0,0,1,1.25.719ZM5.188,15.719A.935.935,0,0,0,5.875,16h6.25a1.017,1.017,0,0,0,1-.937L13.938,4H4.063l.812,11.063a.939.939,0,0,0,.313.656M9.344,6.656l2.5,2.5a.486.486,0,0,1-.687.688L9.5,8.219V13.25a.5.5,0,0,1-.531.5.506.506,0,0,1-.5-.5V8.219L6.844,9.844a.486.486,0,1,1-.687-.688l2.5-2.5a.623.623,0,0,1,.313-.187H9a.513.513,0,0,1,.344.187m2-3.656-.469-.75A.489.489,0,0,0,10.438,2H7.563a.489.489,0,0,0-.438.25L6.657,3Z" fill="#09122a"/>
  </g>
</svg>
