<svg xmlns="http://www.w3.org/2000/svg" width="648" height="81.13" viewBox="0 0 648 81.13">
  <path id="사각형_1_복사" data-name="사각형 1 복사" d="M672.083,460H648l.022,0a13,13,0,0,0,12.772-10.7A10.509,10.509,0,0,0,661,448C662.408,457.107,668.128,459.477,672.083,460Zm-24.061,0H53a14.835,14.835,0,0,1-2.453-.2,13.035,13.035,0,0,1-6.225-3.012,13.435,13.435,0,0,1-3.294-4.879,16.868,16.868,0,0,1-.633-1.972A13.289,13.289,0,0,1,40,447V392a13,13,0,0,1,13-13H648a13,13,0,0,1,13,13v55a13.066,13.066,0,0,1-.206,2.3C660.16,452.257,657.643,459.339,648.022,460Zm-603.7-3.21a11.888,11.888,0,0,0,6.225,3.012c.426.086.84.15,1.238.2H28c12.783,0,12-12,12-12q.158,1.025.394,1.937a14.823,14.823,0,0,0,.633,1.972A12.644,12.644,0,0,0,44.322,456.788ZM672.083,460H676A14.144,14.144,0,0,1,672.083,460Zm-620.3,0H56A16.377,16.377,0,0,1,51.785,460Z" transform="translate(-28 -379.001)" fill="#fff"/>
</svg>
