<svg xmlns="http://www.w3.org/2000/svg" xmlns:xlink="http://www.w3.org/1999/xlink" width="144" height="164" viewBox="0 0 144 164">
  <defs>
    <linearGradient id="linear-gradient" y1="0.015" x2="1" y2="1.037" gradientUnits="objectBoundingBox">
      <stop offset="0" stop-color="#525a65"/>
      <stop offset="1" stop-color="#303c54"/>
    </linearGradient>
    <clipPath id="clip-path">
      <rect id="사각형_23964" data-name="사각형 23964" width="127.672" height="26" fill="#fff"/>
    </clipPath>
    <filter id="패스_50693" x="26.507" y="44.899" width="15.937" height="21.285" filterUnits="userSpaceOnUse">
      <feOffset dx="1" dy="1" input="SourceAlpha"/>
      <feGaussianBlur stdDeviation="0.25" result="blur"/>
      <feFlood flood-color="#061058" flood-opacity="0.102"/>
      <feComposite operator="in" in2="blur"/>
      <feComposite in="SourceGraphic"/>
    </filter>
    <filter id="패스_50691" x="40.614" y="44.948" width="6.66" height="6.552" filterUnits="userSpaceOnUse">
      <feOffset dx="1" dy="1" input="SourceAlpha"/>
      <feGaussianBlur stdDeviation="0.25" result="blur-2"/>
      <feFlood flood-color="#061058" flood-opacity="0.102"/>
      <feComposite operator="in" in2="blur-2"/>
      <feComposite in="SourceGraphic"/>
    </filter>
    <filter id="패스_50694" x="40.892" y="49.992" width="6.2" height="16.236" filterUnits="userSpaceOnUse">
      <feOffset dx="1" dy="1" input="SourceAlpha"/>
      <feGaussianBlur stdDeviation="0.25" result="blur-3"/>
      <feFlood flood-color="#061058" flood-opacity="0.102"/>
      <feComposite operator="in" in2="blur-3"/>
      <feComposite in="SourceGraphic"/>
    </filter>
    <filter id="합치기_1" x="9.237" y="44.977" width="18.358" height="21.252" filterUnits="userSpaceOnUse">
      <feOffset dx="1" dy="1" input="SourceAlpha"/>
      <feGaussianBlur stdDeviation="0.25" result="blur-4"/>
      <feFlood flood-color="#061058" flood-opacity="0.102"/>
      <feComposite operator="in" in2="blur-4"/>
      <feComposite in="SourceGraphic"/>
    </filter>
    <filter id="패스_50697" x="58.427" y="48.445" width="17.136" height="17.783" filterUnits="userSpaceOnUse">
      <feOffset dx="1" dy="1" input="SourceAlpha"/>
      <feGaussianBlur stdDeviation="0.25" result="blur-5"/>
      <feFlood flood-color="#061058" flood-opacity="0.102"/>
      <feComposite operator="in" in2="blur-5"/>
      <feComposite in="SourceGraphic"/>
    </filter>
    <filter id="패스_50692" x="46.018" y="44.948" width="6.66" height="6.552" filterUnits="userSpaceOnUse">
      <feOffset dx="1" dy="1" input="SourceAlpha"/>
      <feGaussianBlur stdDeviation="0.25" result="blur-6"/>
      <feFlood flood-color="#061058" flood-opacity="0.102"/>
      <feComposite operator="in" in2="blur-6"/>
      <feComposite in="SourceGraphic"/>
    </filter>
    <filter id="패스_50698" x="46.165" y="49.757" width="13.134" height="16.593" filterUnits="userSpaceOnUse">
      <feOffset dx="1" dy="1" input="SourceAlpha"/>
      <feGaussianBlur stdDeviation="0.25" result="blur-7"/>
      <feFlood flood-color="#061058" flood-opacity="0.102"/>
      <feComposite operator="in" in2="blur-7"/>
      <feComposite in="SourceGraphic"/>
    </filter>
    <filter id="패스_50699" x="92.116" y="48.445" width="17.006" height="17.783" filterUnits="userSpaceOnUse">
      <feOffset dx="1" dy="1" input="SourceAlpha"/>
      <feGaussianBlur stdDeviation="0.25" result="blur-8"/>
      <feFlood flood-color="#061058" flood-opacity="0.102"/>
      <feComposite operator="in" in2="blur-8"/>
      <feComposite in="SourceGraphic"/>
    </filter>
    <filter id="패스_50700" x="108.138" y="44.899" width="6.624" height="6.517" filterUnits="userSpaceOnUse">
      <feOffset dx="1" dy="1" input="SourceAlpha"/>
      <feGaussianBlur stdDeviation="0.25" result="blur-9"/>
      <feFlood flood-color="#061058" flood-opacity="0.102"/>
      <feComposite operator="in" in2="blur-9"/>
      <feComposite in="SourceGraphic"/>
    </filter>
    <filter id="패스_50701" x="108.283" y="49.664" width="13.038" height="16.466" filterUnits="userSpaceOnUse">
      <feOffset dx="1" dy="1" input="SourceAlpha"/>
      <feGaussianBlur stdDeviation="0.25" result="blur-10"/>
      <feFlood flood-color="#061058" flood-opacity="0.102"/>
      <feComposite operator="in" in2="blur-10"/>
      <feComposite in="SourceGraphic"/>
    </filter>
    <filter id="패스_50702" x="74.784" y="44.969" width="18.211" height="21.321" filterUnits="userSpaceOnUse">
      <feOffset dx="1" dy="1" input="SourceAlpha"/>
      <feGaussianBlur stdDeviation="0.25" result="blur-11"/>
      <feFlood flood-color="#061058" flood-opacity="0.102"/>
      <feComposite operator="in" in2="blur-11"/>
      <feComposite in="SourceGraphic"/>
    </filter>
    <filter id="패스_50703" x="120.162" y="49.919" width="15.829" height="16.372" filterUnits="userSpaceOnUse">
      <feOffset dx="1" dy="1" input="SourceAlpha"/>
      <feGaussianBlur stdDeviation="0.25" result="blur-12"/>
      <feFlood flood-color="#061058" flood-opacity="0.102"/>
      <feComposite operator="in" in2="blur-12"/>
      <feComposite in="SourceGraphic"/>
    </filter>
    <filter id="티키타노트_목록" x="12" y="79.25" width="121.75" height="27.75" filterUnits="userSpaceOnUse">
      <feOffset dx="1" dy="1" input="SourceAlpha"/>
      <feGaussianBlur stdDeviation="0.25" result="blur-13"/>
      <feFlood flood-color="#061058" flood-opacity="0.2"/>
      <feComposite operator="in" in2="blur-13"/>
      <feComposite in="SourceGraphic"/>
    </filter>
    <filter id="Shape" x="94" y="114" width="12.75" height="10.75" filterUnits="userSpaceOnUse">
      <feOffset dx="1" dy="1" input="SourceAlpha"/>
      <feGaussianBlur stdDeviation="0.25" result="blur-14"/>
      <feFlood flood-color="#061058" flood-opacity="0.2"/>
      <feComposite operator="in" in2="blur-14"/>
      <feComposite in="SourceGraphic"/>
    </filter>
    <filter id="바로가기" x="39" y="108" width="53.75" height="21.75" filterUnits="userSpaceOnUse">
      <feOffset dx="1" dy="1" input="SourceAlpha"/>
      <feGaussianBlur stdDeviation="0.25" result="blur-15"/>
      <feFlood flood-color="#061058" flood-opacity="0.2"/>
      <feComposite operator="in" in2="blur-15"/>
      <feComposite in="SourceGraphic"/>
    </filter>
  </defs>
  <g id="그룹_21606" data-name="그룹 21606" transform="translate(-1555 -187)">
    <g id="사각형_23965" data-name="사각형 23965" transform="translate(1555 187)" stroke="#fff" stroke-width="1" fill="url(#linear-gradient)">
      <path d="M12,0H132a12,12,0,0,1,12,12V164a0,0,0,0,1,0,0H0a0,0,0,0,1,0,0V12A12,12,0,0,1,12,0Z" stroke="none"/>
      <path d="M12,.5H132A11.5,11.5,0,0,1,143.5,12V163.5a0,0,0,0,1,0,0H.5a0,0,0,0,1,0,0V12A11.5,11.5,0,0,1,12,.5Z" fill="none"/>
    </g>
    <g id="logo_그림자포함" transform="translate(1563.164 228.75)">
      <g id="그룹_21578" data-name="그룹 21578" clip-path="url(#clip-path)">
        <g id="그룹_28089" data-name="그룹 28089" transform="translate(1.573 3.649)">
          <g transform="matrix(1, 0, 0, 1, -9.74, -45.4)" filter="url(#패스_50693)">
            <path id="패스_50693-2" data-name="패스 50693" d="M22.064,12.781l7.323,5.971a1.648,1.648,0,0,1,.374,2.344,1.756,1.756,0,0,1-2.41.363L20.36,15.795V20.2a1.726,1.726,0,0,1-3.45,0V5.046a1.726,1.726,0,0,1,3.45,0V9.8L27,6.6a1.743,1.743,0,0,1,2.258.9,1.66,1.66,0,0,1-.926,2.194Z" transform="translate(10.1 42.03)" fill="#fff" stroke="rgba(0,0,0,0)" stroke-miterlimit="10" stroke-width="1"/>
          </g>
          <g id="그룹_21592" data-name="그룹 21592" transform="translate(31.377 0.049)">
            <g transform="matrix(1, 0, 0, 1, -41.11, -45.45)" filter="url(#패스_50691)">
              <path id="패스_50691-2" data-name="패스 50691" d="M29.57,5.314a1.956,1.956,0,0,1,3.91,0,1.956,1.956,0,0,1-3.91,0" transform="translate(11.54 42.03)" fill="#fff" stroke="rgba(0,0,0,0)" stroke-miterlimit="10" stroke-width="1"/>
            </g>
            <g transform="matrix(1, 0, 0, 1, -41.11, -45.45)" filter="url(#패스_50694)">
              <path id="패스_50694-2" data-name="패스 50694" d="M29.82,19.878V9.746a1.726,1.726,0,0,1,3.45,0V19.878a1.726,1.726,0,0,1-3.45,0" transform="translate(11.57 42.42)" fill="#fff" stroke="rgba(0,0,0,0)" stroke-miterlimit="10" stroke-width="1"/>
            </g>
          </g>
          <g transform="matrix(1, 0, 0, 1, -9.74, -45.4)" filter="url(#합치기_1)">
            <path id="합치기_1-2" data-name="합치기 1" d="M6.079,16.825V3.773H1.94A1.915,1.915,0,0,1,0,1.886,1.914,1.914,0,0,1,1.94,0H13.667a1.914,1.914,0,0,1,1.94,1.886,1.915,1.915,0,0,1-1.94,1.888H9.529V16.825a1.726,1.726,0,0,1-3.45,0Z" transform="translate(9.74 45.48)" fill="#fff" stroke="rgba(0,0,0,0)" stroke-miterlimit="10" stroke-width="1"/>
          </g>
          <g transform="matrix(1, 0, 0, 1, -9.74, -45.4)" filter="url(#패스_50697)">
            <path id="패스_50697-2" data-name="패스 50697" d="M59.94,8.318a1.7,1.7,0,0,0-1.725-1.677,1.721,1.721,0,0,0-1.6,1.067,6.8,6.8,0,0,0-3.621-1.036h-.737a6.606,6.606,0,0,0-6.7,6.511v1.877a6.606,6.606,0,0,0,6.7,6.512h.737a6.81,6.81,0,0,0,3.6-1.022,1.72,1.72,0,0,0,1.627,1.123A1.7,1.7,0,0,0,59.942,20ZM53.288,18.28H51.954a3.16,3.16,0,0,1-3.2-3.115V12.978a3.159,3.159,0,0,1,3.2-3.114h1.334a3.159,3.159,0,0,1,3.2,3.111v2.192a3.158,3.158,0,0,1-3.2,3.112" transform="translate(13.37 42.3)" fill="#fff" stroke="rgba(0,0,0,0)" stroke-miterlimit="10" stroke-width="1"/>
          </g>
          <g id="그룹_21593" data-name="그룹 21593" transform="translate(36.781 0.049)">
            <g transform="matrix(1, 0, 0, 1, -46.52, -45.45)" filter="url(#패스_50692)">
              <path id="패스_50692-2" data-name="패스 50692" d="M34.42,5.314a1.956,1.956,0,0,1,3.91,0,1.956,1.956,0,0,1-3.91,0" transform="translate(12.1 42.03)" fill="#fff" stroke="rgba(0,0,0,0)" stroke-miterlimit="10" stroke-width="1"/>
            </g>
            <g transform="matrix(1, 0, 0, 1, -46.52, -45.45)" filter="url(#패스_50698)">
              <path id="패스_50698-2" data-name="패스 50698" d="M34.552,9.529a1.7,1.7,0,0,1,1.725-1.677L38,7.872H43.17a1.678,1.678,0,1,1,0,3.354H38.028v5.422a1.717,1.717,0,0,0,3.433,0v.006a1.738,1.738,0,0,1,3.476,0v-.006a5.194,5.194,0,0,1-10.384,0Z" transform="translate(12.11 42.4)" fill="#fff" stroke="rgba(0,0,0,0)" stroke-miterlimit="10" stroke-width="1"/>
            </g>
          </g>
          <g transform="matrix(1, 0, 0, 1, -9.74, -45.4)" filter="url(#패스_50699)">
            <path id="패스_50699-2" data-name="패스 50699" d="M83.176,6.641h-.517a6.776,6.776,0,0,0-6.87,6.679V15a6.776,6.776,0,0,0,6.87,6.679h.517A6.776,6.776,0,0,0,90.045,15V13.32a6.776,6.776,0,0,0-6.87-6.679m.363,11.639H82.205A3.16,3.16,0,0,1,79,15.166V12.978a3.159,3.159,0,0,1,3.2-3.114h1.334a3.159,3.159,0,0,1,3.2,3.111v2.192a3.158,3.158,0,0,1-3.2,3.112" transform="translate(16.83 42.3)" fill="#fff" stroke="rgba(0,0,0,0)" stroke-miterlimit="10" stroke-width="1"/>
          </g>
          <g id="그룹_21594" data-name="그룹 21594" transform="translate(98.902 0)">
            <g transform="matrix(1, 0, 0, 1, -108.64, -45.4)" filter="url(#패스_50700)">
              <path id="패스_50700-2" data-name="패스 50700" d="M92.1,7.136a1.911,1.911,0,0,0,1.938-1.883,1.938,1.938,0,0,0-3.874,0A1.91,1.91,0,0,0,92.1,7.136" transform="translate(18.47 42.03)" fill="#fff" stroke="rgba(0,0,0,0)" stroke-miterlimit="10" stroke-width="1"/>
            </g>
            <g transform="matrix(1, 0, 0, 1, -108.64, -45.4)" filter="url(#패스_50701)">
              <path id="패스_50701-2" data-name="패스 50701" d="M98.865,14.814a1.7,1.7,0,0,0-1.722,1.674v-.007a1.7,1.7,0,0,1-3.4,0V11.109h5.095a1.662,1.662,0,1,0,0-3.323H93.717l-1.709-.019A1.686,1.686,0,0,0,90.3,9.429v7.052a5.146,5.146,0,0,0,10.288,0,1.7,1.7,0,0,0-1.722-1.672" transform="translate(18.49 42.4)" fill="#fff" stroke="rgba(0,0,0,0)" stroke-miterlimit="10" stroke-width="1"/>
            </g>
          </g>
          <g transform="matrix(1, 0, 0, 1, -9.74, -45.4)" filter="url(#패스_50702)">
            <path id="패스_50702-2" data-name="패스 50702" d="M65.061,5.614l7.2,10.584V5.516a2.3,2.3,0,0,1,.459-1.563,1.576,1.576,0,0,1,1.241-.52,1.622,1.622,0,0,1,1.273.52A2.281,2.281,0,0,1,75.7,5.516V19.64Q75.7,22,73.68,22a2.733,2.733,0,0,1-.908-.141,2.328,2.328,0,0,1-.756-.446,4.413,4.413,0,0,1-.655-.717q-.3-.411-.605-.84L63.738,9.4V19.921a2.2,2.2,0,0,1-.491,1.556,1.647,1.647,0,0,1-1.26.526,1.629,1.629,0,0,1-1.273-.532,2.25,2.25,0,0,1-.479-1.55V6.067a3.845,3.845,0,0,1,.2-1.384,1.992,1.992,0,0,1,.795-.9,2.2,2.2,0,0,1,1.2-.349,2.116,2.116,0,0,1,.862.159,2.078,2.078,0,0,1,.631.429,4.454,4.454,0,0,1,.554.7q.284.429.586.895" transform="translate(15.05 42.04)" fill="#fff" stroke="rgba(0,0,0,0)" stroke-miterlimit="10" stroke-width="1"/>
          </g>
          <g transform="matrix(1, 0, 0, 1, -9.74, -45.4)" filter="url(#패스_50703)">
            <path id="패스_50703-2" data-name="패스 50703" d="M111.2,15.646h-6.728a4.346,4.346,0,0,0,.472,2.009,3.188,3.188,0,0,0,1.222,1.311,3.3,3.3,0,0,0,1.683.441,4.21,4.21,0,0,0,1.127-.141,3.7,3.7,0,0,0,.989-.441,7.578,7.578,0,0,0,.883-.643q.4-.343,1.045-.931a1.147,1.147,0,0,1,.755-.22,1.269,1.269,0,0,1,.857.281,1,1,0,0,1,.329.8,2.137,2.137,0,0,1-.365,1.058,4.251,4.251,0,0,1-1.1,1.165,6.369,6.369,0,0,1-1.852.925,8.2,8.2,0,0,1-2.564.367,6.97,6.97,0,0,1-5.154-1.838,6.728,6.728,0,0,1-1.84-4.985,8.114,8.114,0,0,1,.454-2.75,6.045,6.045,0,0,1,1.323-2.174,5.757,5.757,0,0,1,2.143-1.391A7.9,7.9,0,0,1,107.7,8a6.836,6.836,0,0,1,3.458.827,5.557,5.557,0,0,1,2.879,4.808,1.65,1.65,0,0,1-.743,1.636,4.745,4.745,0,0,1-2.092.374m-6.728-1.9h6.237a4,4,0,0,0-.95-2.566,2.892,2.892,0,0,0-2.174-.851,2.793,2.793,0,0,0-2.11.863,4.229,4.229,0,0,0-1,2.555" transform="translate(19.7 42.42)" fill="#fff" stroke="rgba(0,0,0,0)" stroke-miterlimit="10" stroke-width="1"/>
          </g>
        </g>
      </g>
    </g>
    <g id="그룹_21596" data-name="그룹 21596" transform="translate(0 -3.75)">
      <g transform="matrix(1, 0, 0, 1, 1555, 190.75)" filter="url(#티키타노트_목록)">
        <text id="티키타노트_목록-2" data-name="티키타노트 목록" transform="translate(12 100.25)" fill="#d7dbe4" font-size="18" font-family="NotoSansKR-Medium, Noto Sans KR" font-weight="500" letter-spacing="-0.001em"><tspan x="0" y="0">티키타노트 목록</tspan></text>
      </g>
      <g id="그룹_21595" data-name="그룹 21595" transform="translate(-4)">
        <g id="Arrow_Right" data-name="Arrow Right" transform="translate(1653 304.75)">
          <g transform="matrix(1, 0, 0, 1, -94, -114)" filter="url(#Shape)">
            <path id="Shape-2" data-name="Shape" d="M6.854.146l4,4a.5.5,0,0,1,0,.707l-4,4a.5.5,0,0,1-.707-.707L9.293,5H.5a.5.5,0,0,1,0-1H9.293L6.146.854A.5.5,0,0,1,6.854.146Z" transform="translate(94 114)" fill="#d7dbe4"/>
          </g>
        </g>
        <g transform="matrix(1, 0, 0, 1, 1559, 190.75)" filter="url(#바로가기)">
          <text id="바로가기-2" data-name="바로가기" transform="translate(39 124)" fill="#d7dbe4" font-size="14" font-family="NotoSansKR-Medium, Noto Sans KR" font-weight="500" letter-spacing="-0.001em"><tspan x="0" y="0">바로가기</tspan></text>
        </g>
      </g>
    </g>
  </g>
</svg>
