<svg xmlns="http://www.w3.org/2000/svg" xmlns:xlink="http://www.w3.org/1999/xlink" width="198.079" height="26" viewBox="0 0 198.079 26">
  <defs>
    <clipPath id="clip-path">
      <rect id="사각형_27769" data-name="사각형 27769" width="198.079" height="26" fill="#fff"/>
    </clipPath>
  </defs>
  <g id="그룹_24782" data-name="그룹 24782" clip-path="url(#clip-path)">
    <path id="패스_84577" data-name="패스 84577" d="M43.15,23.538V2.7a2.332,2.332,0,0,1,4.664,0V23.538a2.332,2.332,0,1,1-4.664,0" transform="translate(-4.481 -0.038)" fill="#fff"/>
    <path id="패스_84578" data-name="패스 84578" d="M81.311,2.717a2.643,2.643,0,1,1,2.643,2.643,2.642,2.642,0,0,1-2.643-2.643" transform="translate(-8.444 -0.007)" fill="#fff"/>
    <path id="패스_84579" data-name="패스 84579" d="M89.463,2.717a2.643,2.643,0,1,1,2.644,2.643,2.643,2.643,0,0,1-2.644-2.643" transform="translate(-9.291 -0.007)" fill="#fff"/>
    <path id="패스_84580" data-name="패스 84580" d="M67,13.086l9.9,8.3a2.332,2.332,0,0,1-2.753,3.765l-9.45-7.877v6.129a2.332,2.332,0,0,1-4.664,0V2.332a2.332,2.332,0,0,1,4.664,0V8.938l8.98-4.453a2.332,2.332,0,0,1,1.8,4.3Z" transform="translate(-6.234 0)" fill="#fff"/>
    <path id="패스_84581" data-name="패스 84581" d="M81.731,24.32V10.231a2.332,2.332,0,1,1,4.664,0V24.32a2.332,2.332,0,1,1-4.664,0" transform="translate(-8.488 -0.82)" fill="#fff"/>
    <path id="패스_84582" data-name="패스 84582" d="M52.455,5.364H36.6a2.623,2.623,0,1,1,0-5.247H52.455a2.623,2.623,0,1,1,0,5.247" transform="translate(-3.529 -0.012)" fill="#fff"/>
    <path id="패스_84583" data-name="패스 84583" d="M127.626,7.83a2.331,2.331,0,0,0-4.5-.848,9,9,0,0,0-4.894-1.439h-1a9.053,9.053,0,0,0-9.053,9.053v2.61a9.053,9.053,0,0,0,9.053,9.054h1a9.011,9.011,0,0,0,4.866-1.421,2.33,2.33,0,0,0,4.531-.768Zm-8.993,13.853h-1.8a4.33,4.33,0,0,1-4.33-4.33V14.312a4.33,4.33,0,0,1,4.33-4.33h1.8a4.329,4.329,0,0,1,4.329,4.327v3.047a4.33,4.33,0,0,1-4.329,4.328" transform="translate(-11.235 -0.571)" fill="#fff"/>
    <path id="패스_84584" data-name="패스 84584" d="M168.982,5.5h-.7A9.287,9.287,0,0,0,159,14.785v2.331a9.287,9.287,0,0,0,9.287,9.287h.7a9.286,9.286,0,0,0,9.286-9.287V14.785A9.286,9.286,0,0,0,168.982,5.5m.492,16.184h-1.8a4.33,4.33,0,0,1-4.33-4.33V14.312a4.33,4.33,0,0,1,4.33-4.33h1.8a4.329,4.329,0,0,1,4.328,4.327v3.047a4.329,4.329,0,0,1-4.328,4.328" transform="translate(-16.512 -0.571)" fill="#fff"/>
    <path id="패스_84585" data-name="패스 84585" d="M89.684,9.866a2.332,2.332,0,0,1,2.332-2.332l2.332.027h6.985a2.332,2.332,0,1,1,0,4.664H94.382v7.538a2.321,2.321,0,1,0,4.642,0v.01a2.349,2.349,0,1,1,4.7,0v-.01a7.019,7.019,0,0,1-14.037,0Z" transform="translate(-9.314 -0.782)" fill="#fff"/>
    <path id="패스_84586" data-name="패스 84586" d="M21.98.025H5.994A6,6,0,0,0,0,6.02v7.993a6,6,0,0,0,5.994,5.994H9.437l9.515,5.709A2,2,0,0,0,21.98,24v-4a6,6,0,0,0,6-5.994V6.02a6,6,0,0,0-6-6m2,13.988a2,2,0,0,1-2,2h-2a2,2,0,0,0-2,2h0v2.464L11.02,16.295a2.009,2.009,0,0,0-1.03-.283h-4a2,2,0,0,1-2-2V6.02a2,2,0,0,1,2-2H21.98a2,2,0,0,1,2,2Z" transform="translate(0 -0.002)" fill="#fff"/>
    <path id="패스_84587" data-name="패스 84587" d="M9.057,10.79a2.393,2.393,0,1,1,2.394,2.394A2.393,2.393,0,0,1,9.057,10.79" transform="translate(-0.941 -0.872)" fill="#fff"/>
    <path id="패스_84588" data-name="패스 84588" d="M17.09,10.79a2.393,2.393,0,1,1,2.394,2.394A2.394,2.394,0,0,1,17.09,10.79" transform="translate(-1.775 -0.872)" fill="#fff"/>
    <path id="패스_84589" data-name="패스 84589" d="M185.784,5.237a2.619,2.619,0,1,0-2.619-2.619,2.618,2.618,0,0,0,2.619,2.619" transform="translate(-19.022 0)" fill="#fff"/>
    <path id="패스_84590" data-name="패스 84590" d="M194.965,17.19a2.328,2.328,0,0,0-2.327,2.327v-.009a2.3,2.3,0,1,1-4.6,0V12.039h6.886a2.31,2.31,0,0,0,0-4.621h-6.92l-2.31-.026a2.311,2.311,0,0,0-2.311,2.31v9.806a6.954,6.954,0,0,0,13.908.006,2.328,2.328,0,0,0-2.327-2.325" transform="translate(-19.044 -0.767)" fill="#fff"/>
    <path id="패스_84591" data-name="패스 84591" d="M139.377,3.139,149.1,17.854V3A3.264,3.264,0,0,1,149.724.83,2.1,2.1,0,0,1,151.4.106a2.165,2.165,0,0,1,1.721.724A3.23,3.23,0,0,1,153.752,3V22.641q0,3.288-2.724,3.287a3.6,3.6,0,0,1-1.227-.2,3.1,3.1,0,0,1-1.022-.621,6.036,6.036,0,0,1-.886-1q-.407-.571-.817-1.167L137.588,8.4V23.032a3.118,3.118,0,0,1-.664,2.163,2.2,2.2,0,0,1-1.7.732,2.171,2.171,0,0,1-1.721-.741,3.183,3.183,0,0,1-.647-2.154V3.769a5.452,5.452,0,0,1,.272-1.925A2.745,2.745,0,0,1,134.2.592a2.924,2.924,0,0,1,1.618-.486,2.655,2.655,0,0,1,2.018.818,6.142,6.142,0,0,1,.749.971c.255.4.521.813.792,1.244" transform="translate(-13.797 -0.011)" fill="#fff"/>
    <path id="패스_84592" data-name="패스 84592" d="M215.152,18.414h-9.1a6.172,6.172,0,0,0,.639,2.793,4.276,4.276,0,0,0,3.926,2.436,5.568,5.568,0,0,0,1.524-.2,4.951,4.951,0,0,0,1.337-.613,10.132,10.132,0,0,0,1.192-.894q.544-.476,1.413-1.294a1.523,1.523,0,0,1,1.022-.306,1.688,1.688,0,0,1,1.158.391,1.4,1.4,0,0,1,.444,1.108,3.02,3.02,0,0,1-.495,1.473,5.853,5.853,0,0,1-1.49,1.618,8.5,8.5,0,0,1-2.5,1.286,10.787,10.787,0,0,1-3.466.511,9.275,9.275,0,0,1-6.966-2.555,9.514,9.514,0,0,1-2.487-6.933,11.539,11.539,0,0,1,.614-3.823,8.438,8.438,0,0,1,1.788-3.024,7.742,7.742,0,0,1,2.9-1.933,10.4,10.4,0,0,1,3.816-.673,9.044,9.044,0,0,1,4.674,1.15,7.559,7.559,0,0,1,2.921,2.973,7.8,7.8,0,0,1,.971,3.713q0,1.754-1,2.274a6.253,6.253,0,0,1-2.827.52m-9.1-2.64h8.431a5.653,5.653,0,0,0-1.286-3.568,3.848,3.848,0,0,0-2.938-1.184,3.723,3.723,0,0,0-2.853,1.2,5.966,5.966,0,0,0-1.354,3.551" transform="translate(-20.906 -0.808)" fill="#fff"/>
  </g>
</svg>
