<svg xmlns="http://www.w3.org/2000/svg" width="162.674" height="15.754" viewBox="0 0 162.674 15.754">
  <g id="그룹_21887" data-name="그룹 21887" transform="translate(-540 86.8)">
    <g id="그룹_21888" data-name="그룹 21888" transform="translate(565.797 -85.545)">
      <path id="패스_50614" data-name="패스 50614" d="M87.731,15.007H83.2L81.257,18.6H78.426L86.64,4.625h3.287l.752,13.97H87.752Zm-.022-2.172L87.7,11.308c-.046-1.454.006-3.059,0-4.57h-.076c-.769,1.529-1.608,3.116-2.413,4.57l-.824,1.528Z" transform="translate(-78.426 -4.359)" fill="#838a94"/>
      <path id="패스_50615" data-name="패스 50615" d="M124.408,4.625H127.2L123.459,18.6h-2.794Z" transform="translate(-106.771 -4.359)" fill="#838a94"/>
      <path id="패스_50616" data-name="패스 50616" d="M147.206,18.6l-1.454-5.288h-1.943L142.392,18.6H139.6l3.745-13.97h4.87c2.928,0,4.976,1.018,4.114,4.228a5.659,5.659,0,0,1-3.737,4.02l1.734,5.722ZM144.4,11.1h1.813c1.8,0,2.977-.753,3.378-2.245.4-1.511-.439-2.02-2.235-2.02h-1.811Z" transform="translate(-119.476 -4.359)" fill="#838a94"/>
      <path id="패스_50617" data-name="패스 50617" d="M176.456,16.276l2.122-1.925a4.113,4.113,0,0,0,3.135,1.548c1.454,0,2.394-.623,2.656-1.6.277-1.039-.485-1.359-1.59-1.889l-1.655-.792A2.98,2.98,0,0,1,179.3,7.857a6.023,6.023,0,0,1,5.916-4.04,4.7,4.7,0,0,1,3.9,1.794l-1.884,1.756a3.418,3.418,0,0,0-2.656-1.151,2.279,2.279,0,0,0-2.414,1.473c-.268,1,.636,1.359,1.7,1.831l1.621.774a2.877,2.877,0,0,1,1.8,3.794,6.272,6.272,0,0,1-6.269,4.229,5.665,5.665,0,0,1-4.551-2.039" transform="translate(-144.211 -3.817)" fill="#838a94"/>
      <path id="패스_50618" data-name="패스 50618" d="M216.481,11.01c1.221-4.548,4.476-7.192,8.175-7.192s5.534,2.663,4.323,7.192-4.507,7.307-8.206,7.307-5.507-2.775-4.292-7.307m9.646,0c.806-3-.035-4.794-2.111-4.794s-3.881,1.795-4.685,4.794c-.8,2.982.012,4.89,2.088,4.89s3.908-1.907,4.707-4.89" transform="translate(-170.818 -3.818)" fill="#838a94"/>
      <path id="패스_50619" data-name="패스 50619" d="M261.841,12.306,263.9,4.625H266.7l-2.124,7.929c-.781,2.907-.043,3.888,1.6,3.888,1.665,0,2.983-.981,3.764-3.888l2.123-7.929h2.679l-2.057,7.681c-1.246,4.645-3.739,6.553-7.155,6.553-3.4,0-4.924-1.907-3.681-6.553" transform="translate(-201.222 -4.359)" fill="#838a94"/>
      <path id="패스_50620" data-name="패스 50620" d="M304.5,4.625h2.848l2.068,7.437.586,3.02h.1c.237-1.452.527-3.3.95-4.887l1.5-5.569h2.642L311.443,18.6h-2.834l-2.032-7.478-.613-3h-.1c-.273,1.51-.533,3.266-.96,4.87L303.4,18.6h-2.644Z" transform="translate(-227.626 -4.359)" fill="#838a94"/>
      <path id="패스_50621" data-name="패스 50621" d="M347.483,4.625h3.834c4.265,0,6.316,2.208,5.052,6.927-1.258,4.7-4.527,7.043-8.646,7.043H343.74Zm.523,11.722c2.6,0,4.6-1.4,5.515-4.795.913-3.416-.366-4.7-2.972-4.7h-.867l-2.545,9.494Z" transform="translate(-256.47 -4.359)" fill="#838a94"/>
      <path id="패스_50622" data-name="패스 50622" d="M401.486,4.625h2.794L400.538,18.6h-2.795Z" transform="translate(-292.709 -4.359)" fill="#838a94"/>
      <path id="패스_50623" data-name="패스 50623" d="M418.824,14.412h2.268l-.186,1.4h.072a6.516,6.516,0,0,1,3.883-1.663c2.285,0,2.842,1.586,2.128,4.248l-1.766,6.59h-2.774l1.675-6.25c.436-1.624.138-2.208-.9-2.208a4.107,4.107,0,0,0-2.528,1.19l-1.946,7.269h-2.757Z" transform="translate(-304.956 -10.749)" fill="#838a94"/>
      <path id="패스_50624" data-name="패스 50624" d="M454.531,19.716a7.34,7.34,0,0,1,6.888-5.569,3.543,3.543,0,0,1,2.768,1.171l-1.8,1.793a1.817,1.817,0,0,0-1.437-.7c-1.6,0-3.047,1.3-3.584,3.3-.531,1.983.219,3.266,1.748,3.266a4.283,4.283,0,0,0,2.286-.847l.607,1.83a6.682,6.682,0,0,1-3.8,1.283c-2.931,0-4.61-2.039-3.674-5.532" transform="translate(-330.644 -10.749)" fill="#838a94"/>
      <path id="패스_50625" data-name="패스 50625" d="M483.681,38.688a2.427,2.427,0,0,1,2.2-1.813,1.3,1.3,0,0,1,1.254,1.813,2.431,2.431,0,0,1-2.225,1.812,1.3,1.3,0,0,1-1.231-1.812" transform="translate(-350.331 -26.001)" fill="#838a94"/>
    </g>
    <path id="패스_50626" data-name="패스 50626" d="M2.045,28.94l2.526-1.874L0,26.14,1.358,32.4l3.721-2.8Z" transform="translate(540 -104.342)" fill="#838a94" opacity="0.7"/>
    <path id="패스_50627" data-name="패스 50627" d="M14.4,12.055l15.7,3.4L26.725,0,13.9,9.524l3.055.618Z" transform="translate(530.675 -86.8)" fill="#838a94" opacity="0.4"/>
    <path id="패스_50628" data-name="패스 50628" d="M9.25,31.486,11.8,29.572l-3.055-.618L6.217,30.829Z" transform="translate(535.828 -106.231)" fill="#838a94"/>
    <rect id="사각형_23950" data-name="사각형 23950" width="162.674" height="15.754" transform="translate(540 -86.8)" fill="#838a94" opacity="0"/>
  </g>
</svg>
