<svg xmlns="http://www.w3.org/2000/svg" width="262.568" height="38.128" viewBox="0 0 262.568 38.128">
  <path id="패스_74181" data-name="패스 74181" d="M12.448,1.12h-1.2V-12.864h1.2ZM9.68.416H8.5V-6.8H6.016V-7.824H8.5v-4.7H9.68ZM7.648-3.3,6.9-2.4A8.875,8.875,0,0,1,5.112-4.176,6.719,6.719,0,0,1,3.9-6.416a6.91,6.91,0,0,1-1.016,2.44A7.2,7.2,0,0,1,1.056-1.984L.3-2.9a6.288,6.288,0,0,0,2.12-2.48A7.8,7.8,0,0,0,3.3-9.024v-2.544H4.5v2.512a6.328,6.328,0,0,0,.928,3.392A7.55,7.55,0,0,0,7.648-3.3Zm14.7-3.12-.72.976a7.91,7.91,0,0,1-1.976-1.392,5.3,5.3,0,0,1-1.3-1.872,5.1,5.1,0,0,1-1.272,2.08,8.422,8.422,0,0,1-2.216,1.648l-.672-.944A6.6,6.6,0,0,0,16.72-7.952a4.722,4.722,0,0,0,.968-2.9v-1.344H18.92v1.3A4.212,4.212,0,0,0,19.968-8.1,5.351,5.351,0,0,0,22.344-6.416Zm1.792,2.88a2.194,2.194,0,0,1,1.248,1.968A2.178,2.178,0,0,1,24.136.392,7.012,7.012,0,0,1,20.68,1.1,6.925,6.925,0,0,1,17.248.392a2.179,2.179,0,0,1-1.24-1.96,2.2,2.2,0,0,1,1.24-1.968,6.861,6.861,0,0,1,3.432-.72A6.947,6.947,0,0,1,24.136-3.536Zm-3.456.288a5.879,5.879,0,0,0-2.512.44,1.361,1.361,0,0,0-.912,1.24,1.346,1.346,0,0,0,.912,1.232A5.975,5.975,0,0,0,20.68.1a6.08,6.08,0,0,0,2.536-.432,1.347,1.347,0,0,0,.92-1.232,1.362,1.362,0,0,0-.92-1.24A5.982,5.982,0,0,0,20.68-3.248Zm6.64-4.8H25.192V-4.24H23.976v-8.624h1.216v3.792H27.32ZM40.9-5.792H28.272V-6.816H40.9Zm-2.712-6.24a1.971,1.971,0,0,1,1.3,1.792,1.956,1.956,0,0,1-1.3,1.784,8.373,8.373,0,0,1-3.592.632,8.271,8.271,0,0,1-3.568-.632,1.956,1.956,0,0,1-1.3-1.784,1.971,1.971,0,0,1,1.3-1.792,8.181,8.181,0,0,1,3.568-.64A8.281,8.281,0,0,1,38.184-12.032Zm-3.592.352a7.262,7.262,0,0,0-2.632.392q-.984.392-.984,1.048,0,.64.984,1.024a7.4,7.4,0,0,0,2.632.384,7.582,7.582,0,0,0,2.672-.384q.992-.384.992-1.024,0-.656-1-1.048A7.452,7.452,0,0,0,34.592-11.68ZM39.776.992H29.744V-2.336H38.1V-3.568H29.712v-.976h9.6v3.136H30.96V0h8.816ZM56.512-9.872H53.968V-10.88h2.544v-1.984h1.216V-2.7H56.512V-6.288H53.968V-7.3h2.544ZM58.032.656H48.688V-3.6H49.9V-.352h8.128ZM47.424-10.936a3.625,3.625,0,0,1,2.592-.984,3.625,3.625,0,0,1,2.592.984,3.316,3.316,0,0,1,1.04,2.52,3.278,3.278,0,0,1-1.032,2.5,3.63,3.63,0,0,1-2.584.968,3.7,3.7,0,0,1-2.608-.96,3.259,3.259,0,0,1-1.04-2.512A3.316,3.316,0,0,1,47.424-10.936Zm2.592.088a2.363,2.363,0,0,0-1.744.688,2.363,2.363,0,0,0-.688,1.744,2.3,2.3,0,0,0,.7,1.728,2.421,2.421,0,0,0,1.752.672,2.387,2.387,0,0,0,1.752-.672,2.324,2.324,0,0,0,.68-1.728,2.371,2.371,0,0,0-.68-1.752A2.392,2.392,0,0,0,50.016-10.848ZM72.088,1.04H62.52V-2.48h7.824V-4.016H62.472v-.96H71.56V-1.6H63.736V.08h8.352ZM67.288-12.1a6.826,6.826,0,0,1-1.912,4.384A9.978,9.978,0,0,1,60.92-5.168l-.608-.992a8.8,8.8,0,0,0,3.76-1.88A5.455,5.455,0,0,0,65.9-11.072H60.9V-12.1Zm.144,2.256v-.96h2.912v-2.064H71.56v7.12H70.344v-1.5H67.256v-.976h3.088V-9.84Zm19.56,3.9H84.72V1.12H83.5V-12.864H84.72v5.9h2.272Zm-6.9-4.928H75.984V-11.9H80.1ZM82.16-8.5H73.9V-9.5H82.16ZM81.328-4.7a2.657,2.657,0,0,1-.912,2.056,3.374,3.374,0,0,1-2.352.824,3.394,3.394,0,0,1-2.352-.816A2.65,2.65,0,0,1,74.8-4.7a2.674,2.674,0,0,1,.912-2.072A3.374,3.374,0,0,1,78.064-7.6a3.374,3.374,0,0,1,2.352.824A2.674,2.674,0,0,1,81.328-4.7Zm-1.216,0a1.737,1.737,0,0,0-.576-1.352,2.113,2.113,0,0,0-1.472-.52,2.1,2.1,0,0,0-1.464.528A1.732,1.732,0,0,0,76.016-4.7,1.732,1.732,0,0,0,76.6-3.36a2.1,2.1,0,0,0,1.464.528,2.094,2.094,0,0,0,1.472-.528A1.743,1.743,0,0,0,80.112-4.7Zm20.312.08H87.8V-5.648h12.624ZM99.08.816H89.448V-3.312h1.216v3.12H99.08Zm-.064-8.208H89.5v-4.88h1.216V-8.4h8.3ZM12.768,18.336,12.1,19.36a9.435,9.435,0,0,1-3.224-1.752A6.3,6.3,0,0,1,6.9,15.248a5.717,5.717,0,0,1-1.888,2.36,8.889,8.889,0,0,1-3.264,1.736L1.1,18.3A7.624,7.624,0,0,0,4.616,16.48a4.12,4.12,0,0,0,1.672-3.072V12.3H7.552v1.1a3.169,3.169,0,0,0,.512,1.656,5.919,5.919,0,0,0,1.3,1.488,10.013,10.013,0,0,0,1.688,1.128A6.719,6.719,0,0,0,12.768,18.336Zm.464,4.864H.608V22.176H13.232Zm8.184-1.6H14.872V12.576h6.544ZM20.2,20.592V13.584H16.088v7.008Zm7.28-2.8H25.192V25.12H23.976V11.136h1.216v5.632H27.48Zm11.5-1.232H31.04v2.176h8.352V19.76H29.808V12.48h9.44V13.5H31.04v2.032h7.936Zm1.92,6.784H28.272V22.32H40.9ZM54.984,16.9H52.856v4.56H51.64V11.136h1.216v4.736h2.128ZM53.4,24.672H44.088V21.088H45.3v2.56h8.1ZM48.072,12.7H44.04V11.632h4.032Zm2.16,2.064H42.04V13.76h8.192Zm-.8,3.2a2.1,2.1,0,0,1-.928,1.768,4.421,4.421,0,0,1-4.712,0,2.151,2.151,0,0,1-.008-3.544,4.48,4.48,0,0,1,4.72,0A2.091,2.091,0,0,1,49.432,17.968Zm-1.152,0a1.24,1.24,0,0,0-.624-1.08,2.718,2.718,0,0,0-1.52-.408,2.688,2.688,0,0,0-1.5.408,1.24,1.24,0,0,0-.624,1.08,1.227,1.227,0,0,0,.624,1.064,2.688,2.688,0,0,0,1.5.408,2.727,2.727,0,0,0,1.512-.408A1.225,1.225,0,0,0,48.28,17.968Zm24.48.944H60.136V17.888H72.76Zm-1.536,6.016H61.688v-4.56h9.536ZM70.008,23.92V21.36H62.9v2.56Zm.024-11.7a2.054,2.054,0,0,1,0,3.824,7.554,7.554,0,0,1-3.592.712,7.463,7.463,0,0,1-3.568-.712,2.058,2.058,0,0,1,0-3.824A7.463,7.463,0,0,1,66.44,11.5,7.554,7.554,0,0,1,70.032,12.216Zm-.888,3.12q1.008-.44,1.008-1.208T69.144,12.92a6.873,6.873,0,0,0-2.7-.44,6.751,6.751,0,0,0-2.688.44q-.992.44-.992,1.208t.992,1.208a6.751,6.751,0,0,0,2.688.44A6.873,6.873,0,0,0,69.144,15.336Zm15.032.024H81.168V14.352h3.008V11.136h1.216v8.688H84.176Zm.136,5.168a2.143,2.143,0,0,1,0,3.872,8.835,8.835,0,0,1-6.912,0,2.143,2.143,0,0,1,0-3.872,8.835,8.835,0,0,1,6.912,0Zm-3.464.288a6.022,6.022,0,0,0-2.528.432,1.267,1.267,0,0,0,0,2.432,7.66,7.66,0,0,0,5.072,0,1.267,1.267,0,0,0,0-2.432A6.07,6.07,0,0,0,80.848,20.816Zm1.072-3.024-.72.944a7.611,7.611,0,0,1-1.984-1.384,5.186,5.186,0,0,1-1.3-1.864,5.444,5.444,0,0,1-1.24,2.1,7.207,7.207,0,0,1-2.136,1.624l-.752-.944a6.314,6.314,0,0,0,2.52-2.024,4.833,4.833,0,0,0,.952-2.92V11.936H78.5V13.3a4.173,4.173,0,0,0,1.048,2.792A5.657,5.657,0,0,0,81.92,17.792Zm21.5,7.328h-1.216V11.136h1.216Zm-4.112-12.5a10.2,10.2,0,0,1-1.832,5.832,11.583,11.583,0,0,1-4.632,3.9l-.7-.96a10.025,10.025,0,0,0,4.136-3.224,8.632,8.632,0,0,0,1.736-4.52h-5.36V12.624ZM117.08,17.3h-4.352v1.472h5.728v1.024H105.832V18.768h5.68V17.3h-4.1V14h8.208V12.656H107.4V11.68h9.44v3.232h-8.208V16.32h8.448Zm-9.9,3.712h9.7v4.208H115.64v-3.2h-8.464Zm28.16,4.112H134.12V17.152h-3.264V16.128h3.264V11.136h1.216Zm-3.1-4.272-.752.928a9.982,9.982,0,0,1-2.048-1.92,7.653,7.653,0,0,1-1.408-2.4,7.666,7.666,0,0,1-1.3,2.512,10.2,10.2,0,0,1-2.184,2.128l-.8-.912a8.1,8.1,0,0,0,2.608-2.712,6.738,6.738,0,0,0,1.04-3.528V12.352h1.264V14.9a6.269,6.269,0,0,0,1.032,3.448A7.622,7.622,0,0,0,132.232,20.848Zm16.952,4.272h-1.216V11.136h1.216Zm-4.128-3.472h-6.608V12.32h1.2V15.9h4.192V12.32h1.216Zm-1.216-1.024V16.912h-4.192v3.712Zm19.848-2.288-.672,1.024a9.435,9.435,0,0,1-3.224-1.752,6.3,6.3,0,0,1-1.976-2.36,5.717,5.717,0,0,1-1.888,2.36,8.889,8.889,0,0,1-3.264,1.736l-.64-1.04a7.624,7.624,0,0,0,3.512-1.824,4.12,4.12,0,0,0,1.672-3.072V12.3h1.264v1.1a3.169,3.169,0,0,0,.512,1.656,5.919,5.919,0,0,0,1.3,1.488,10.012,10.012,0,0,0,1.688,1.128A6.719,6.719,0,0,0,163.688,18.336Zm.464,4.864H151.528V22.176h12.624Zm17.008,1.792H171.1V21.744h8.32V20.576h-8.368v-.992h9.584v3.072h-8.3v1.328h8.832Zm-.224-8.544H170.76V15.44h2.224l-.352-2.048,1.264-.16.24,2.208h3.408l.288-2.24,1.264.16-.384,2.08h2.224Zm1.248,2.064H169.56V17.488h12.624Zm-1.248-5.824H170.744V11.68h10.192Zm14.248,8.064h-1.216V15.824h-1.712V19.5h-1.168V11.392h1.168v3.424h1.712v-3.68h1.216Zm-5.056-2.96.16,1.008a32.039,32.039,0,0,1-5.328.464h-.9V15.136h4V13.28h-4.048V12.272h5.264v3.856h-4V18.24A24.112,24.112,0,0,0,190.128,17.792Zm5.792,6.48q-.08.128-.328.464a6.386,6.386,0,0,0-.36.528,8.117,8.117,0,0,1-2.824-1.256,5.443,5.443,0,0,1-1.912-1.9,4.891,4.891,0,0,1-1.832,1.872,8.4,8.4,0,0,1-2.9,1.248q-.352-.528-.688-.976a6.637,6.637,0,0,0,3.28-1.312,3.176,3.176,0,0,0,1.552-2.528v-.4h1.264v.4a3.138,3.138,0,0,0,1.52,2.52A6.949,6.949,0,0,0,195.92,24.272Zm12.3.656H198.84V20.512h9.376Zm1.632-5.632H197.224V18.288h5.68V16.864h-4.432V15.84H200.7l-.432-2.384,1.264-.16.32,2.544h3.312l.352-2.576,1.248.16-.448,2.416h2.224v1.024H204.12v1.424h5.728Zm-2.832,4.624V21.5h-6.96V23.92Zm1.52-11.184h-10.08V11.728h10.08Zm9.28.336V15.1H215.7V13.568a3.06,3.06,0,0,1,.568-1.872,2.371,2.371,0,0,1,1.544-.944V11.76a1.123,1.123,0,0,0-.688.472,1.486,1.486,0,0,0-.3.84Zm9.592,7.024.208,1.472a37.083,37.083,0,0,1-6.464.464h-1.36V12.24h6.736v1.488h-4.88V16.32h4.64v1.488h-4.64v2.72A31.545,31.545,0,0,0,227.408,20.1Zm3.264,5.168h-1.888V11.008h1.888Zm9.9-12.816a11.162,11.162,0,0,1-6.544,10.56L232.952,21.6a9.609,9.609,0,0,0,4.72-4.3l-4.224.432q-.08-.448-.256-1.616l5.1-.352a7.864,7.864,0,0,0,.3-1.76h-4.72V12.448Zm4.064,12.816h-1.888V11.008h1.888Zm4.424-4.7a27.925,27.925,0,0,0,5.632-.432q.032.256.1.736t.1.736a31.048,31.048,0,0,1-6.336.464H247.2V12.256h6.544v1.472h-4.688V16.32h4.432v1.488h-4.432Zm8.736-9.552v5.376h1.984V17.92h-1.984v7.344H255.92V11.008Zm2.968,2.432V11.408h2.112v1.568a3.06,3.06,0,0,1-.568,1.872,2.37,2.37,0,0,1-1.544.944V14.784a1.165,1.165,0,0,0,.68-.488,1.536,1.536,0,0,0,.3-.856Z" transform="translate(-0.304 12.864)" fill="#1d1d1f"/>
</svg>
