<svg id="icon_다운로드" xmlns="http://www.w3.org/2000/svg" xmlns:xlink="http://www.w3.org/1999/xlink" width="24" height="24" viewBox="0 0 24 24">
  <defs>
    <clipPath id="clip-path">
      <rect id="사각형_28989" data-name="사각형 28989" width="24" height="24" fill="#4971ff"/>
    </clipPath>
  </defs>
  <g id="그룹_27739" data-name="그룹 27739" clip-path="url(#clip-path)">
    <path id="패스_85555" data-name="패스 85555" d="M2.226,18.4A5.191,5.191,0,0,1,.75,14.812a5.078,5.078,0,0,1,3.375-4.781V9.75A5.64,5.64,0,0,1,9.75,4.125,5.8,5.8,0,0,1,12.6,4.9a6.053,6.053,0,0,1,2.039,2.039A3.191,3.191,0,0,1,16.5,6.375,3.361,3.361,0,0,1,19.875,9.75a3.686,3.686,0,0,1-.211,1.23,4.39,4.39,0,0,1,2.566,1.547,4.478,4.478,0,0,1-3.48,7.348H5.812A5.188,5.188,0,0,1,2.226,18.4M11.4,16.816a.847.847,0,0,0,1.195,0L15.41,14a.845.845,0,0,0-1.195-1.2l-1.372,1.371V9.468a.844.844,0,0,0-1.687,0v4.711L9.785,12.808a.845.845,0,0,0-1.2,1.2Z" fill="#4971ff"/>
  </g>
</svg>
