<svg id="구성_요소_294_2" data-name="구성 요소 294 – 2" xmlns="http://www.w3.org/2000/svg" xmlns:xlink="http://www.w3.org/1999/xlink" width="23.339" height="22" viewBox="0 0 23.339 22">
  <defs>
    <clipPath id="clip-path">
      <rect id="사각형_2615" data-name="사각형 2615" width="23.339" height="22" fill="#eaedf4"/>
    </clipPath>
  </defs>
  <g id="그룹_16977" data-name="그룹 16977" clip-path="url(#clip-path)">
    <path id="패스_9348" data-name="패스 9348" d="M18.338,0H5A5.046,5.046,0,0,0,0,5.077v6.769a5.046,5.046,0,0,0,5,5.077H7.874l7.939,4.835A1.653,1.653,0,0,0,18.1,21.18a1.711,1.711,0,0,0,.238-.872V16.923a5.046,5.046,0,0,0,5-5.077V5.077a5.045,5.045,0,0,0-5-5.077m1.667,11.846a1.682,1.682,0,0,1-1.667,1.692H16.671A1.679,1.679,0,0,0,15,15.23h0v2.087l-5.81-3.538a1.657,1.657,0,0,0-.859-.24H5a1.682,1.682,0,0,1-1.667-1.692V5.077A1.681,1.681,0,0,1,5,3.385H18.338a1.681,1.681,0,0,1,1.667,1.692Z" transform="translate(0 0)" fill="#eaedf4"/>
    <path id="패스_9349" data-name="패스 9349" d="M29.215,29.028a2,2,0,1,1,2,2.027,2.012,2.012,0,0,1-2-2.027" transform="translate(-22.443 -20.648)" fill="#eaedf4"/>
    <path id="패스_9350" data-name="패스 9350" d="M55.125,29.028a2,2,0,1,1,2,2.027,2.012,2.012,0,0,1-2-2.027" transform="translate(-42.348 -20.648)" fill="#eaedf4"/>
  </g>
</svg>
