<svg id="icon_사용자_36px" xmlns="http://www.w3.org/2000/svg" xmlns:xlink="http://www.w3.org/1999/xlink" width="36" height="36" viewBox="0 0 36 36">
  <defs>
    <clipPath id="clip-path">
      <rect id="사각형_29005" data-name="사각형 29005" width="24" height="24" fill="none"/>
    </clipPath>
  </defs>
  <circle id="타원_435" data-name="타원 435" cx="18" cy="18" r="18" fill="#fff" opacity="0.1"/>
  <g id="icon_사용자" transform="translate(6 6)">
    <g id="그룹_27769" data-name="그룹 27769" clip-path="url(#clip-path)">
      <path id="패스_85560" data-name="패스 85560" d="M14.668,14.344a5.879,5.879,0,0,1,5.5,5.869,1.121,1.121,0,0,1-1.119,1.12H4.955a1.121,1.121,0,0,1-1.121-1.12,5.88,5.88,0,0,1,5.5-5.869L12,18.125ZM7.394,6.583A4.666,4.666,0,0,1,12,2.668a4.606,4.606,0,0,1,4.488,3.5H15.207A2.326,2.326,0,0,1,13.236,5.08,3.547,3.547,0,0,1,10.25,6.751H8.208a2.086,2.086,0,0,1-.814-.168" fill="#fff"/>
      <path id="패스_85561" data-name="패스 85561" d="M13.235,5.08a2.326,2.326,0,0,0,1.972,1.088h1.28a3.461,3.461,0,0,1,.179,1.166,4.666,4.666,0,0,1-9.332,0,4.478,4.478,0,0,1,.059-.751,2.021,2.021,0,0,0,.815.168H10.25A3.546,3.546,0,0,0,13.235,5.08" fill="#fff" opacity="0.3"/>
    </g>
  </g>
</svg>
