<svg xmlns="http://www.w3.org/2000/svg" xmlns:xlink="http://www.w3.org/1999/xlink" width="180" height="56.896" viewBox="0 0 180 56.896">
  <defs>
    <clipPath id="clip-path">
      <rect id="사각형_26896" data-name="사각형 26896" width="180" height="56.897" fill="none"/>
    </clipPath>
    <clipPath id="clip-path-2">
      <path id="패스_74260" data-name="패스 74260" d="M11.624,13.26v.327l4.593,4.595.1-.061,5.445-3.091c1.554-.886,1.554-2.328,0-3.214l-5.546-3.15Z" transform="translate(-11.624 -8.665)" fill="none"/>
    </clipPath>
    <linearGradient id="linear-gradient" x1="-2.179" y1="2.996" x2="-1.991" y2="2.996" gradientUnits="objectBoundingBox">
      <stop offset="0" stop-color="gold"/>
      <stop offset="0.043" stop-color="#fed200"/>
      <stop offset="0.467" stop-color="#fca904"/>
      <stop offset="0.8" stop-color="#fa8f07"/>
      <stop offset="1" stop-color="#fa8608"/>
    </linearGradient>
    <clipPath id="clip-path-3">
      <path id="패스_74261" data-name="패스 74261" d="M5.3,24.7a1.812,1.812,0,0,0,2.313.07l16.247-9.236-4.7-4.7Z" transform="translate(-5.3 -10.835)" fill="none"/>
    </clipPath>
    <linearGradient id="linear-gradient-2" x1="-0.395" y1="1.207" x2="-0.301" y2="1.207" gradientUnits="objectBoundingBox">
      <stop offset="0" stop-color="#e82c36"/>
      <stop offset="1" stop-color="#b4005a"/>
    </linearGradient>
    <clipPath id="clip-path-4">
      <path id="패스_74262" data-name="패스 74262" d="M5.3,4.753,19.164,18.614l4.7-4.7L7.613,4.683A2.57,2.57,0,0,0,6.365,4.31,1.418,1.418,0,0,0,5.3,4.753" transform="translate(-5.3 -4.31)" fill="none"/>
    </clipPath>
    <linearGradient id="linear-gradient-3" x1="-0.399" y1="1.83" x2="-0.305" y2="1.83" gradientUnits="objectBoundingBox">
      <stop offset="0" stop-color="#2f8f5b"/>
      <stop offset="0.389" stop-color="#4ea257"/>
      <stop offset="0.768" stop-color="#67b054"/>
      <stop offset="1" stop-color="#70b653"/>
    </linearGradient>
  </defs>
  <g id="그룹_22815" data-name="그룹 22815" transform="translate(0 0)">
    <g id="그룹_22808" data-name="그룹 22808" transform="translate(0 0)">
      <g id="그룹_22807" data-name="그룹 22807" clip-path="url(#clip-path)">
        <path id="패스_74243" data-name="패스 74243" d="M173.334,54.013H6.666A6.688,6.688,0,0,1,0,47.344v-40A6.688,6.688,0,0,1,6.666.679H173.334A6.688,6.688,0,0,1,180,7.348v40a6.688,6.688,0,0,1-6.666,6.669" transform="translate(0 1.103)" fill="#030404"/>
        <path id="패스_74244" data-name="패스 74244" d="M173.334,1.745a5.608,5.608,0,0,1,5.6,5.6v40a5.608,5.608,0,0,1-5.6,5.6H6.666a5.607,5.607,0,0,1-5.6-5.6v-40a5.607,5.607,0,0,1,5.6-5.6Zm0-1.066H6.666A6.688,6.688,0,0,0,0,7.348v40a6.688,6.688,0,0,0,6.666,6.669H173.334A6.688,6.688,0,0,0,180,47.344v-40A6.688,6.688,0,0,0,173.334.679" transform="translate(0 1.103)" fill="#969695"/>
        <path id="패스_74245" data-name="패스 74245" d="M29.09,8.669a3.614,3.614,0,0,1-1,2.67,3.877,3.877,0,0,1-2.941,1.184A4.116,4.116,0,0,1,21,8.343a4.116,4.116,0,0,1,4.154-4.177A4.171,4.171,0,0,1,26.8,4.5a3.349,3.349,0,0,1,1.252.9l-.7.7a2.71,2.71,0,0,0-2.192-.945,3.095,3.095,0,0,0-3.106,3.193,3.1,3.1,0,0,0,3.106,3.2,3.024,3.024,0,0,0,2.234-.893,2.511,2.511,0,0,0,.672-1.62H25.155V8.065h3.88a3.769,3.769,0,0,1,.055.6" transform="translate(34.137 6.771)" fill="#fff"/>
        <path id="패스_74246" data-name="패스 74246" d="M29.175,8.752h-.134a3.476,3.476,0,0,1-.956,2.576l0,0a3.738,3.738,0,0,1-2.843,1.142,3.981,3.981,0,0,1-4.02-4.046,3.981,3.981,0,0,1,4.02-4.043,3.987,3.987,0,0,1,1.588.323,3.13,3.13,0,0,1,1.2.859l.105-.087-.1-.095-.7.7.095.092.1-.084a2.829,2.829,0,0,0-2.292-1,3.17,3.17,0,0,0-2.276.924A3.2,3.2,0,0,0,22,8.426a3.279,3.279,0,0,0,5.571,2.4,2.649,2.649,0,0,0,.709-1.7l.011-.147H25.373V8.282h3.747V8.148l-.134.024a3.489,3.489,0,0,1,.055.58h.268a3.5,3.5,0,0,0-.06-.627l-.021-.108H25.105V9.24h3.04V9.109L28.014,9.1a2.392,2.392,0,0,1-.635,1.536,3.05,3.05,0,0,1-4.232.005,2.923,2.923,0,0,1-.88-2.213,2.957,2.957,0,0,1,2.972-3.061,2.57,2.57,0,0,1,2.09.9l.092.11.809-.806.087-.087-.081-.095a3.444,3.444,0,0,0-1.3-.929,4.24,4.24,0,0,0-1.693-.347,4.263,4.263,0,0,0-4.29,4.311,4.259,4.259,0,0,0,4.29,4.314,4.016,4.016,0,0,0,3.038-1.226l-.1-.092.095.095a3.752,3.752,0,0,0,1.034-2.765Z" transform="translate(34.052 6.688)" fill="#fff"/>
        <path id="패스_74247" data-name="패스 74247" d="M29.312,5.216H25.668V7.752h3.284v.961H25.668v2.539h3.644v.982H24.644v-8h4.668Z" transform="translate(40.058 6.881)" fill="#fff"/>
        <path id="패스_74248" data-name="패스 74248" d="M29.395,5.3V5.165H25.617v2.8H28.9v.693H25.617v2.807h3.644v.714h-4.4V4.451h4.4V5.3h.134v0h.134V4.183H24.593v8.268h4.936V11.2H25.885V8.93h3.284V7.7H25.885V5.433h3.644V5.3Z" transform="translate(39.975 6.798)" fill="#fff"/>
        <path id="패스_74249" data-name="패스 74249" d="M30.094,12.234H29.062V5.216H26.83V4.234h5.5v.982H30.094Z" transform="translate(43.612 6.881)" fill="#fff"/>
        <path id="패스_74250" data-name="패스 74250" d="M30.177,12.317v-.134h-.9V5.165H27.047V4.451H32.28v.714H30.043v7.152h.134v0h.134V5.433h2.232V4.183H26.779v1.25h2.237V12.45h1.294v-.134Z" transform="translate(43.529 6.798)" fill="#fff"/>
        <rect id="사각형_26895" data-name="사각형 26895" width="1.029" height="8" transform="translate(79.917 11.116)" fill="#fff"/>
        <path id="패스_74251" data-name="패스 74251" d="M30.522,12.317h.134V4.451h.759v7.732h-.893v.134h0v.134h1.16V4.183H30.389V12.45h.134Z" transform="translate(49.396 6.798)" fill="#fff"/>
        <path id="패스_74252" data-name="패스 74252" d="M34.588,12.234H33.559V5.216H31.324V4.234h5.5v.982H34.588Z" transform="translate(50.917 6.881)" fill="#fff"/>
        <path id="패스_74253" data-name="패스 74253" d="M34.671,12.317v-.134h-.9V5.165H31.541V4.451h5.23v.714H34.537v7.152h.134v0H34.8V5.433h2.232V4.183H31.273v1.25H33.51V12.45H34.8v-.134Z" transform="translate(50.834 6.798)" fill="#fff"/>
        <path id="패스_74254" data-name="패스 74254" d="M41.742,11.31a4.152,4.152,0,0,1-5.865,0A4.088,4.088,0,0,1,34.7,8.346a4.09,4.09,0,0,1,1.176-2.967,4.139,4.139,0,0,1,5.857,0,4.1,4.1,0,0,1,1.184,2.964,4.088,4.088,0,0,1-1.176,2.964m-5.107-.669a3.077,3.077,0,0,0,4.345,0,3.121,3.121,0,0,0,.893-2.295,3.123,3.123,0,0,0-.893-2.3,3.077,3.077,0,0,0-4.345,0,3.14,3.14,0,0,0-.887,2.3,3.138,3.138,0,0,0,.887,2.295" transform="translate(56.404 6.771)" fill="#fff"/>
        <path id="패스_74255" data-name="패스 74255" d="M41.824,11.393,41.73,11.3a4.022,4.022,0,0,1-5.674,0l-.005-.005.005.005a3.945,3.945,0,0,1-1.142-2.872,3.946,3.946,0,0,1,1.142-2.875,4.009,4.009,0,0,1,5.668.005,3.958,3.958,0,0,1,1.145,2.87A3.953,3.953,0,0,1,41.73,11.3l.189.186a4.215,4.215,0,0,0,1.216-3.059,4.215,4.215,0,0,0-1.221-3.056,4.272,4.272,0,0,0-6.049-.005,4.221,4.221,0,0,0-1.216,3.061,4.215,4.215,0,0,0,1.216,3.059l.005,0-.005,0a4.285,4.285,0,0,0,6.054,0Zm-5.107-.669-.095.095a3.207,3.207,0,0,0,4.537,0,3.277,3.277,0,0,0,.929-2.389,3.279,3.279,0,0,0-.929-2.392,3.214,3.214,0,0,0-4.537,0A3.277,3.277,0,0,0,35.7,8.429a3.275,3.275,0,0,0,.927,2.389l.192-.189a2.984,2.984,0,0,1-.851-2.2,2.986,2.986,0,0,1,.851-2.2h0a2.947,2.947,0,0,1,4.159,0,3.021,3.021,0,0,1,.851,2.2,3.02,3.02,0,0,1-.851,2.2,2.941,2.941,0,0,1-4.159,0Z" transform="translate(56.321 6.688)" fill="#fff"/>
        <path id="패스_74256" data-name="패스 74256" d="M38.38,12.234v-8h1.255l3.886,6.222h.045l-.045-1.541V4.234H44.55v8H43.473L39.409,5.709h-.047l.047,1.541v4.983Z" transform="translate(62.386 6.881)" fill="#fff"/>
        <path id="패스_74257" data-name="패스 74257" d="M38.463,12.317H38.6V4.451h1.042l3.888,6.222h.255L43.737,9V4.451H44.5v7.732h-.864L39.563,5.658h-.252l.047,1.678v4.847h-.9v.134h0v.134h1.16V7.331L39.579,5.79l-.134,0v.131h.047V5.792l-.113.068,4.106,6.59h1.279V4.183H43.47V9l.045,1.544.134-.005v-.131H43.6v.131l.113-.068L39.789,4.183h-1.46V12.45h.134Z" transform="translate(62.303 6.798)" fill="#fff"/>
        <path id="패스_74258" data-name="패스 74258" d="M56.97,15.608a5.671,5.671,0,1,0,5.689,5.671,5.588,5.588,0,0,0-5.689-5.671m0,9.108a3.282,3.282,0,0,1-3.2-3.437,3.207,3.207,0,1,1,6.4,0,3.277,3.277,0,0,1-3.2,3.437M44.551,15.608a5.671,5.671,0,1,0,5.692,5.671,5.591,5.591,0,0,0-5.692-5.671m0,9.108a3.283,3.283,0,0,1-3.2-3.437,3.21,3.21,0,1,1,6.4,0,3.281,3.281,0,0,1-3.2,3.437M29.777,17.349v2.4h5.758a5.048,5.048,0,0,1-1.307,3.03,5.919,5.919,0,0,1-4.45,1.759,6.4,6.4,0,0,1,0-12.8,6.133,6.133,0,0,1,4.34,1.72l1.7-1.7a8.4,8.4,0,0,0-6.039-2.426,8.93,8.93,0,0,0-8.934,8.808,8.93,8.93,0,0,0,8.934,8.806,8.049,8.049,0,0,0,6.144-2.471,7.958,7.958,0,0,0,2.085-5.629,7.966,7.966,0,0,0-.129-1.5ZM90.19,19.216a5.275,5.275,0,0,0-4.857-3.607,5.389,5.389,0,0,0-5.348,5.671,5.551,5.551,0,0,0,5.629,5.671,5.639,5.639,0,0,0,4.726-2.513L88.4,23.146a3.226,3.226,0,0,1-2.791,1.57A2.891,2.891,0,0,1,82.862,23l7.585-3.137Zm-7.732,1.89A3.106,3.106,0,0,1,85.419,17.8a2.183,2.183,0,0,1,2.1,1.2Zm-6.165,5.5h2.492V9.937H76.293Zm-4.085-9.73h-.084a3.924,3.924,0,0,0-2.985-1.268,5.676,5.676,0,0,0,0,11.342,3.862,3.862,0,0,0,2.985-1.289h.084v.814c0,2.171-1.158,3.332-3.027,3.332a3.139,3.139,0,0,1-2.857-2.019l-2.169.9a5.4,5.4,0,0,0,5.025,3.347c2.922,0,5.393-1.717,5.393-5.9V15.952H72.208Zm-2.857,7.84A3.254,3.254,0,0,1,66.2,21.3a3.28,3.28,0,0,1,3.156-3.458,3.2,3.2,0,0,1,3.03,3.458,3.169,3.169,0,0,1-3.03,3.416M101.86,9.937H95.9V26.606h2.486V20.289h3.474a5.278,5.278,0,0,0,5.466-5.175,5.278,5.278,0,0,0-5.466-5.177m.066,8.034H98.386V12.258h3.539a2.857,2.857,0,1,1,0,5.713M117.3,15.577a4.672,4.672,0,0,0-4.437,2.552l2.205.922a2.359,2.359,0,0,1,2.274-1.223,2.4,2.4,0,0,1,2.618,2.148v.171a5.507,5.507,0,0,0-2.594-.643c-2.384,0-4.8,1.307-4.8,3.752,0,2.232,1.951,3.668,4.14,3.668a3.515,3.515,0,0,0,3.174-1.63h.084v1.286h2.4v-6.39c0-2.959-2.211-4.61-5.062-4.61m-.3,9.134c-.819,0-1.951-.4-1.951-1.413,0-1.286,1.415-1.78,2.636-1.78a4.443,4.443,0,0,1,2.274.557A3.016,3.016,0,0,1,117,24.711m14.109-8.769-2.851,7.228h-.087l-2.959-7.228H122.53l4.442,10.1-2.534,5.619h2.6l6.842-15.719ZM108.7,26.606h2.486V9.937H108.7Z" transform="translate(33.88 15.174)" fill="#fff"/>
        <path id="패스_74259" data-name="패스 74259" d="M5.68,4.572a2.658,2.658,0,0,0-.614,1.872V35.907a2.658,2.658,0,0,0,.614,1.872l.1.1L22.284,21.37v-.389L5.778,4.475Z" transform="translate(8.235 7.273)" fill="#40bff2"/>
      </g>
    </g>
    <g id="그룹_22810" data-name="그룹 22810" transform="translate(30.928 23.689)">
      <g id="그룹_22809" data-name="그룹 22809" clip-path="url(#clip-path-2)">
        <rect id="사각형_26897" data-name="사각형 26897" width="11.695" height="9.516" transform="translate(0 0.001)" fill="url(#linear-gradient)"/>
      </g>
    </g>
    <g id="그룹_22812" data-name="그룹 22812" transform="translate(11.619 30.469)">
      <g id="그룹_22811" data-name="그룹 22811" clip-path="url(#clip-path-3)">
        <rect id="사각형_26898" data-name="사각형 26898" width="23.357" height="23.357" transform="translate(-7.237 7.237) rotate(-45)" fill="url(#linear-gradient-2)"/>
      </g>
    </g>
    <g id="그룹_22814" data-name="그룹 22814" transform="translate(11.619 12.12)">
      <g id="그룹_22813" data-name="그룹 22813" clip-path="url(#clip-path-4)">
        <rect id="사각형_26899" data-name="사각형 26899" width="23.238" height="23.238" transform="translate(-7.152 7.153) rotate(-45)" fill="url(#linear-gradient-3)"/>
      </g>
    </g>
  </g>
</svg>
