<svg xmlns="http://www.w3.org/2000/svg" xmlns:xlink="http://www.w3.org/1999/xlink" width="641.649" height="259.631" viewBox="0 0 641.649 259.631">
  <defs>
    <linearGradient id="linear-gradient" x1="0.5" x2="0.5" y2="1" gradientUnits="objectBoundingBox">
      <stop offset="0" stop-color="#33b3ff"/>
      <stop offset="0.459" stop-color="#3392ff"/>
      <stop offset="1" stop-color="#2848ff"/>
    </linearGradient>
    <clipPath id="clip-path">
      <path id="패스_85172" data-name="패스 85172" d="M470.646,1.281c-3.884,22.148-5.116,73.22-12.731,73.22-11.5,0-9.533-37.622-17.111-13.927-6.518,20.381-14.615,20.662-20.472,17.417C408.487,71.428,407.994,40.766,400,61c-5.623,14.224-11.333,16.657-18.315,16.657-8.087,0-8.15-4.962-11.754-5.1-3.52-.13-4.512,3.165-10.638,5.328-7.965-2.8-10.371-7.335-12.553-7.335-3.606,0-4.668,7.492-10.314,7.492-6.982,0-12.692-2.434-18.315-16.658-4.825-12.2-6.687-3.347-10.145,5.509-2.274,5.826-5.239,11.651-10.191,11.483-21.1-.711-20.144-39.16-24.349-39.16-2.645,0-2.1,34.747-9.337,32.778-6.715-1.827-10.133-83.086-12.3-70.718C247.9,23.429,246.666,74.5,239.051,74.5c-11.5,0-9.533-37.622-17.111-13.927-6.519,20.381-14.615,20.662-20.473,17.417C189.623,71.428,189.13,40.766,181.132,61c-5.623,14.224-11.333,16.657-18.315,16.657-8.087,0-8.151-4.962-11.755-5.1-5.222-.193-4.862,7.158-24,7.158L0,80.579l127.065.976c21.057,1.05,18.653,6.786,24,6.768,3.606-.012,4.508-5.1,11.755-5.1,6.981,0,12.692,2.433,18.315,16.657,8,20.233,8.492-10.43,20.335-16.992,5.858-3.245,13.954-2.964,20.473,17.417,7.578,23.7,5.613-13.927,17.111-13.927,7.615,0,8.806,56.271,12.731,79.034.165.955.33,1.4.5,1.414h.009c2.186-.093,4.742-74.947,11.23-78.153,6.874-3.4,6.962,31.608,9.783,31.608,3.724,0,5.647-36.862,24.469-37,4.918-.036,7.877,5.733,10.145,11.5,3.488,8.876,5.343,17.751,10.191,5.49,5.622-14.224,11.333-16.657,18.315-16.657,5.645,0,6.708,7.492,10.314,7.492,2.162,0,5.332-4.821,13.034-7.51,6.471,2.033,6.488,4.735,10.158,4.723,3.605-.012,4.508-5.1,11.754-5.1,6.982,0,12.692,2.433,18.315,16.657,8,20.233,8.491-10.43,20.336-16.992,5.857-3.245,13.954-2.964,20.472,17.417,7.579,23.7,5.613-13.927,17.111-13.927,7.615,0,8.806,56.271,12.731,79.034.165.955.331,1.4.5,1.414h.009c2.186-.093,4.742-74.947,11.23-78.153,6.874-3.4,6.962,31.608,9.783,31.608,3.724,0,5.646-36.862,24.47-37,4.918-.036,7.876,5.733,10.143,11.5,3.488,8.876,5.345,17.751,10.191,5.49,5.622-14.224,11.333-16.657,18.315-16.657,5.645,0,6.708,7.492,10.314,7.492,3.073,0,8.139-9.757,25.439-9.258l50.61-.979-50.61-.858c-18.862-.46-22.366-9.461-25.439-9.461-3.606,0-4.668,7.492-10.314,7.492-6.981,0-12.692-2.434-18.315-16.658-4.824-12.2-6.686-3.347-10.144,5.509-2.275,5.826-5.238,11.651-10.19,11.483-21.106-.711-20.145-39.16-24.35-39.16-2.644,0-2.1,34.747-9.337,32.778-6.24-1.7-9.634-72-11.824-72-.167,0-.326.406-.48,1.281" transform="translate(0 0)" fill="none"/>
    </clipPath>
    <linearGradient id="linear-gradient-4" x1="1" y1="1.018" x2="0.001" y2="1" gradientUnits="objectBoundingBox">
      <stop offset="0" stop-color="#00a2ff" stop-opacity="0.2"/>
      <stop offset="0.453" stop-color="#3eb8ff"/>
      <stop offset="1" stop-color="#fff"/>
    </linearGradient>
    <clipPath id="clip-path-2">
      <path id="패스_85173" data-name="패스 85173" d="M396.558,52.864c-3.884,11.907-5.116,39.367-12.731,39.367-11.5,0-9.533-20.227-17.111-7.488C360.2,95.7,352.1,95.852,346.244,94.108c-11.844-3.528-12.338-20.013-20.335-9.136-5.622,7.647-11.333,8.955-18.315,8.955-8.087,0-8.15-2.668-11.755-2.739-3.521-.071-4.512,1.7-10.638,2.865-7.965-1.5-10.371-3.943-12.553-3.943-3.606,0-4.669,4.028-10.314,4.028-6.982,0-12.692-1.308-18.316-8.956-4.824-6.562-6.686-1.8-10.144,2.962-2.274,3.132-5.239,6.264-10.191,6.174-21.1-.383-20.144-21.056-24.349-21.056-2.645,0-2.1,18.683-9.338,17.624-6.715-.983-10.133-44.672-12.3-38.021-3.884,11.907-5.117,39.367-12.731,39.367-11.5,0-9.533-20.227-17.111-7.488-6.519,10.959-14.615,11.109-20.473,9.364-11.844-3.528-12.337-20.013-20.335-9.136-5.623,7.647-11.333,8.955-18.316,8.955-8.087,0-8.15-2.668-11.755-2.739-5.223-.1-4.862,3.849-24,3.849L0,95.524l52.978.5c21.057.564,18.653,3.649,24,3.639,3.606-.006,4.508-2.739,11.755-2.739,6.982,0,12.692,1.308,18.316,8.956,8,10.877,8.492-5.608,20.335-9.136,5.858-1.744,13.954-1.593,20.473,9.364,7.578,12.74,5.613-7.487,17.111-7.487,7.614,0,8.806,30.253,12.731,42.492,2.317,7.227,4.742-39.4,11.737-41.259,6.873-1.826,6.961,16.994,9.783,16.994,3.725,0,5.647-19.818,24.469-19.895,4.918-.02,7.877,3.082,10.144,6.184,3.488,4.772,5.344,9.544,10.191,2.952,5.623-7.648,11.333-8.956,18.316-8.956,5.645,0,6.708,4.028,10.314,4.028,2.162,0,5.331-2.591,13.034-4.037,6.471,1.093,6.488,2.545,10.158,2.539,3.605-.006,4.508-2.739,11.755-2.739,6.981,0,12.692,1.308,18.315,8.956,8,10.877,8.492-5.608,20.335-9.136C352.1,95,360.2,95.151,366.716,106.108c7.579,12.74,5.613-7.487,17.111-7.487,7.615,0,8.806,30.253,12.731,42.492,2.317,7.227,4.743-39.4,11.737-41.259,6.875-1.826,6.962,16.994,9.784,16.994,3.724,0,5.645-19.818,24.469-19.895,4.918-.02,7.876,3.082,10.144,6.184,3.488,4.772,5.344,9.544,10.191,2.952,5.623-7.648,11.333-8.956,18.315-8.956,5.645,0,6.708,4.028,10.314,4.028,3.073,0,8.139-5.246,25.439-4.977l124.237-.5L516.951,95.2c-18.862-.247-22.366-5.087-25.439-5.087-3.606,0-4.668,4.028-10.314,4.028-6.981,0-12.692-1.308-18.315-8.956-4.825-6.562-6.687-1.8-10.144,2.962-2.275,3.132-5.239,6.264-10.191,6.174C421.442,93.934,422.4,73.262,418.2,73.262c-2.644,0-2.1,18.683-9.337,17.624-6.24-.914-9.635-38.709-11.824-38.71-.167,0-.326.218-.48.688" transform="translate(0 -52.176)" fill="none"/>
    </clipPath>
    <linearGradient id="linear-gradient-5" y1="1.328" x2="0.001" y2="1.328" gradientUnits="objectBoundingBox">
      <stop offset="0" stop-color="#00a2ff"/>
      <stop offset="0.508" stop-color="#00a2ff"/>
      <stop offset="0.556" stop-color="#21aeff"/>
      <stop offset="0.64" stop-color="#56c1ff"/>
      <stop offset="0.722" stop-color="#82d1ff"/>
      <stop offset="0.801" stop-color="#a5ddff"/>
      <stop offset="0.876" stop-color="#bde6ff"/>
      <stop offset="0.944" stop-color="#ccecff"/>
      <stop offset="1" stop-color="#d2eeff"/>
    </linearGradient>
    <clipPath id="clip-path-3">
      <path id="패스_85174" data-name="패스 85174" d="M458.435,52.864c-3.884,11.907-5.117,39.367-12.731,39.367-11.5,0-9.533-20.227-17.112-7.488-6.519,10.959-14.615,11.109-20.473,9.364-11.844-3.528-12.337-20.013-20.335-9.136-5.623,7.647-11.333,8.955-18.315,8.955-8.087,0-8.15-2.668-11.755-2.739-3.52-.071-4.512,1.7-10.637,2.865-7.966-1.5-10.371-3.943-12.554-3.943-3.605,0-4.668,4.028-10.313,4.028-6.981,0-12.692-1.308-18.315-8.956-4.825-6.562-6.687-1.8-10.145,2.962-2.274,3.132-5.239,6.264-10.191,6.174-21.105-.383-20.144-21.056-24.349-21.056-2.644,0-2.1,18.683-9.337,17.624-6.715-.983-10.134-44.672-12.3-38.021-3.884,11.907-5.116,39.367-12.731,39.367-11.5,0-9.533-20.227-17.112-7.488-6.518,10.959-14.614,11.109-20.472,9.364-11.844-3.528-12.337-20.013-20.335-9.136-5.623,7.647-11.333,8.955-18.315,8.955-8.088,0-8.151-2.668-11.755-2.739-5.223-.1-4.862,3.849-24,3.849L0,95.5l114.853.525c21.057.564,18.654,3.649,24,3.639,3.605-.006,4.509-2.739,11.755-2.739,6.981,0,12.692,1.308,18.315,8.956,8,10.877,8.491-5.608,20.335-9.136,5.858-1.744,13.954-1.593,20.472,9.364,7.579,12.74,5.613-7.487,17.112-7.487,7.615,0,8.806,30.253,12.731,42.492,2.317,7.227,4.743-39.4,11.737-41.259,6.873-1.826,6.962,16.994,9.783,16.994,3.724,0,5.646-19.818,24.469-19.895,4.919-.02,7.876,3.082,10.145,6.184,3.488,4.772,5.344,9.544,10.191,2.952,5.622-7.648,11.333-8.956,18.315-8.956,5.645,0,6.708,4.028,10.313,4.028,2.163,0,5.332-2.591,13.034-4.037,6.471,1.093,6.488,2.545,10.157,2.539,3.606-.006,4.509-2.739,11.755-2.739,6.982,0,12.692,1.308,18.315,8.956,8,10.877,8.491-5.608,20.335-9.136,5.858-1.744,13.954-1.593,20.473,9.364,7.579,12.74,5.612-7.487,17.112-7.487,7.614,0,8.806,30.253,12.731,42.492,2.317,7.227,4.742-39.4,11.737-41.259,6.874-1.826,6.962,16.994,9.784,16.994,3.724,0,5.646-19.818,24.469-19.895,4.918-.02,7.876,3.082,10.144,6.184,3.488,4.772,5.344,9.544,10.191,2.952,5.622-7.648,11.333-8.956,18.315-8.956,5.644,0,6.708,4.028,10.312,4.028,3.073,0,8.139-5.246,25.44-4.977l62.362-.506L578.826,95.2c-18.862-.247-22.366-5.087-25.44-5.087-3.6,0-4.668,4.028-10.312,4.028-6.982,0-12.693-1.308-18.315-8.956-4.825-6.562-6.687-1.8-10.144,2.962-2.274,3.132-5.239,6.264-10.191,6.174-21.106-.383-20.144-21.056-24.349-21.056-2.644,0-2.1,18.683-9.338,17.624-6.24-.914-9.633-38.709-11.823-38.71-.166,0-.326.218-.479.688" transform="translate(0 -52.176)" fill="none"/>
    </clipPath>
    <linearGradient id="linear-gradient-6" x1="0.047" y1="0.668" x2="0.971" y2="0.654" gradientUnits="objectBoundingBox">
      <stop offset="0" stop-color="#33b3ff"/>
      <stop offset="0.459" stop-color="#3392ff"/>
      <stop offset="1" stop-color="#2848ff" stop-opacity="0.2"/>
    </linearGradient>
    <clipPath id="clip-path-4">
      <path id="패스_85408" data-name="패스 85408" d="M17.513,16.337V38.709a8.1,8.1,0,0,0,16.19,0V16.337a8.1,8.1,0,1,0-16.19,0" transform="translate(-17.513 -8.241)" fill="url(#linear-gradient)"/>
    </clipPath>
    <clipPath id="clip-path-5">
      <path id="패스_85409" data-name="패스 85409" d="M42.127,25.411a13.323,13.323,0,1,1-26.646,0,.921.921,0,0,0-1.843,0A15.173,15.173,0,0,0,27.881,40.532V58.983h1.845V40.532A15.174,15.174,0,0,0,43.969,25.411a.921.921,0,0,0-1.843,0" transform="translate(-13.638 -24.491)" fill="url(#linear-gradient)"/>
    </clipPath>
    <clipPath id="clip-path-6">
      <path id="패스_85410" data-name="패스 85410" d="M1.845,40.051a38.207,38.207,0,1,1,38.2,38.2,38.251,38.251,0,0,1-38.2-38.2M40.05,0A40.05,40.05,0,1,0,80.1,40.051,40.1,40.1,0,0,0,40.05,0Z" fill="url(#linear-gradient)"/>
    </clipPath>
  </defs>
  <g id="그룹_27680" data-name="그룹 27680" transform="translate(-872 -1231.899)">
    <g id="그룹_27673" data-name="그룹 27673" transform="translate(15)">
      <g id="그룹_27109" data-name="그룹 27109" transform="translate(857 1324.697)">
        <g id="그룹_27104" data-name="그룹 27104" transform="translate(0 0)" style="isolation: isolate">
          <g id="그룹_27103" data-name="그룹 27103" clip-path="url(#clip-path)">
            <rect id="사각형_28722" data-name="사각형 28722" width="641.649" height="177.921" transform="translate(0 -11.088)" fill="url(#linear-gradient-4)"/>
          </g>
        </g>
        <g id="그룹_27106" data-name="그룹 27106" transform="translate(0 37.181)">
          <g id="그룹_27105" data-name="그룹 27105" clip-path="url(#clip-path-2)">
            <rect id="사각형_28723" data-name="사각형 28723" width="641.188" height="102.125" transform="translate(0 -5.962)" fill="url(#linear-gradient-5)"/>
          </g>
        </g>
        <g id="그룹_27108" data-name="그룹 27108" transform="translate(0 37.181)">
          <g id="그룹_27107" data-name="그룹 27107" clip-path="url(#clip-path-3)">
            <rect id="사각형_28724" data-name="사각형 28724" width="641.188" height="102.125" transform="translate(9.85 -6.214)" fill="url(#linear-gradient-6)"/>
          </g>
        </g>
      </g>
      <g id="그룹_27219" data-name="그룹 27219" transform="translate(1165 1231.899)">
        <g id="그룹_27214" data-name="그룹 27214" transform="translate(31.955 15.037)">
          <g id="그룹_27213" data-name="그룹 27213" clip-path="url(#clip-path-4)">
            <rect id="사각형_28748" data-name="사각형 28748" width="40.217" height="36.748" transform="matrix(0.625, -0.78, 0.78, 0.625, -18.818, 23.484)" fill="url(#linear-gradient)"/>
          </g>
        </g>
        <g id="그룹_27216" data-name="그룹 27216" transform="translate(24.885 44.688)">
          <g id="그룹_27215" data-name="그룹 27215" clip-path="url(#clip-path-5)">
            <rect id="사각형_28749" data-name="사각형 28749" width="37.559" height="33.871" transform="matrix(0.108, -0.994, 0.994, 0.108, -3.695, 34.091)" fill="url(#linear-gradient)"/>
          </g>
        </g>
        <g id="그룹_27218" data-name="그룹 27218">
          <g id="그룹_27217" data-name="그룹 27217" clip-path="url(#clip-path-6)">
            <rect id="사각형_28750" data-name="사각형 28750" width="88.265" height="88.265" transform="translate(-8.58 79.171) rotate(-83.815)" fill="url(#linear-gradient)"/>
          </g>
        </g>
      </g>
    </g>
  </g>
</svg>
