<svg xmlns="http://www.w3.org/2000/svg" xmlns:xlink="http://www.w3.org/1999/xlink" width="568.617" height="474.51" viewBox="0 0 568.617 474.51">
  <defs>
    <clipPath id="clip-path">
      <rect id="사각형_28738" data-name="사각형 28738" width="438.582" height="378.823" fill="none"/>
    </clipPath>
    <clipPath id="clip-path-3">
      <rect id="사각형_28729" data-name="사각형 28729" width="2.355" height="2.895" fill="none"/>
    </clipPath>
    <clipPath id="clip-path-5">
      <rect id="사각형_28731" data-name="사각형 28731" width="2.355" height="2.896" fill="none"/>
    </clipPath>
  </defs>
  <g id="img_알아서구분하고" transform="translate(0 0)">
    <g id="그룹_27140" data-name="그룹 27140" transform="translate(568.618 34.714) rotate(90)">
      <g id="그룹_27141" data-name="그룹 27141" transform="translate(0 0.001)">
        <path id="패스_85175" data-name="패스 85175" d="M69.489,197.865C113.663,176.547,88.451,72.823,122.73,29.142,168.878-29.662,340.124-1.653,408.654,133.1c57.39,112.85,28.626,272.8-30.892,308.925-17.813,10.813-33.165,7.367-58.18,14.873-23.268,6.982-26.855,10.164-29.222,12.38-23.366,21.872-8.908,61.891-23.853,83.686-23.612,34.435-110.474,8.576-170.741-43.732C79.515,495.13-1.766,420.981.029,315.112c.139-8.193,1.982-87.016,39.157-109.339,12.89-7.74,18.527-2.224,30.3-7.907" transform="translate(0 -0.001)" fill="#f8fafc"/>
      </g>
    </g>
    <g id="그룹_27139" data-name="그룹 27139" transform="translate(65.017 65.2)">
      <g id="그룹_27138" data-name="그룹 27138" clip-path="url(#clip-path)">
        <g id="그룹_27137" data-name="그룹 27137">
          <g id="그룹_27136" data-name="그룹 27136" clip-path="url(#clip-path)">
            <path id="패스_85176" data-name="패스 85176" d="M525.444,274.473h-2.868a4.6,4.6,0,0,1-4.6-4.595v-12.5h12.058v12.5a4.594,4.594,0,0,1-4.595,4.595" transform="translate(-274.058 -136.176)" fill="#49608a"/>
            <rect id="사각형_28726" data-name="사각형 28726" width="4.274" height="9.311" transform="translate(247.816 138.297)" fill="#49608a"/>
            <path id="패스_85177" data-name="패스 85177" d="M497.136,313.451l-25.91,6.411v2.29H475.5v-1.526l23.773-5.953v-1.221Z" transform="translate(-249.321 -165.843)" fill="#49608a"/>
            <path id="패스_85178" data-name="패스 85178" d="M532.921,313.451l25.909,6.411v2.29h-4.273v-1.526l-23.773-5.953v-1.221Z" transform="translate(-280.832 -165.843)" fill="#49608a"/>
            <path id="패스_85179" data-name="패스 85179" d="M472.547,333.882a3.091,3.091,0,1,1-3.091-3.091,3.091,3.091,0,0,1,3.091,3.091" transform="translate(-246.748 -175.018)" fill="#49608a"/>
            <path id="패스_85180" data-name="패스 85180" d="M588.34,333.882a3.091,3.091,0,1,1-3.091-3.091,3.091,3.091,0,0,1,3.091,3.091" transform="translate(-308.013 -175.018)" fill="#49608a"/>
            <path id="패스_85181" data-name="패스 85181" d="M530.308,333.882a3.091,3.091,0,1,1-3.091-3.091,3.091,3.091,0,0,1,3.091,3.091" transform="translate(-277.309 -175.018)" fill="#49608a"/>
            <path id="패스_85182" data-name="패스 85182" d="M527.758,316.044l-2.693.674,2.2,8.56h1.145l1.955-8.583Z" transform="translate(-277.806 -167.215)" fill="#49608a"/>
            <path id="패스_85183" data-name="패스 85183" d="M524.943,174.924l6.932-51a4.2,4.2,0,0,0-4.23-4.766l-33.4.533a4.2,4.2,0,0,0-4.078,3.514L481.6,174.924Z" transform="translate(-254.808 -63.042)" fill="#354667"/>
            <path id="패스_85184" data-name="패스 85184" d="M520.359,246.906H476.7a4.062,4.062,0,0,1-4.063-4.063v-1.2a4.063,4.063,0,0,1,4.063-4.063h43.664a4.063,4.063,0,0,1,4.063,4.063v1.2a4.062,4.062,0,0,1-4.063,4.063" transform="translate(-250.065 -125.703)" fill="#49608a"/>
            <path id="패스_85185" data-name="패스 85185" d="M534.953,105.34a14.085,14.085,0,0,1,4.054,0l-1.378,3.83Z" transform="translate(-283.037 -55.664)" fill="#770738"/>
            <path id="패스_85186" data-name="패스 85186" d="M524.042,67.559S522.4,70.5,523.1,72.207l4.338-2.13Z" transform="translate(-276.674 -35.745)" fill="#3b2623"/>
            <path id="패스_85187" data-name="패스 85187" d="M538.408,85.719v4.392h-6.945V88.364l-.42.248c-1.833-5.019-3.324-4.874-3.324-4.874-6.018-.31-4.6-11.23-4.6-11.23.992-3.858,2.9-3.869,2.9-3.869,14.534-3.462,9.708,11.664,9.708,11.664l.424,3.49a2.508,2.508,0,0,0,2.253,1.926" transform="translate(-276.701 -36.044)" fill="#fdb2b0"/>
            <path id="패스_85188" data-name="패스 85188" d="M524.387,63.407s-1.769,1.025.552,2.239a29.3,29.3,0,0,1,2.8,2.7,6.437,6.437,0,0,1,.492.652c.49.728,2.252,2.811,5.654,1.358,0,0,.241-.965,1.406-.211a1.583,1.583,0,0,1,.321,2.128s-1.233.973-.846,2.156l1.482,2.911a9.314,9.314,0,0,0,2.837-3.967s3.315-7.771-2.695-10.722c0,0-4.414-2.931-8.813-1.416a3.963,3.963,0,0,0-1.62,1.085,3.634,3.634,0,0,1-1.569,1.092" transform="translate(-277.106 -32.166)" fill="#3b2623"/>
            <path id="패스_85189" data-name="패스 85189" d="M525.83,69.893c.5.521.524,2.04.754,2.725.818,2.43,3.279,3.319,5.751,4-.38-1.138-.68-2.381-1.06-3.519a11.028,11.028,0,0,0-1.009-2.383,3.712,3.712,0,0,0-1.943-1.636,2.569,2.569,0,0,0-2.493.811" transform="translate(-278.211 -36.508)" fill="#3b2623"/>
            <path id="패스_85190" data-name="패스 85190" d="M487.817,113.137s-1.4,1.624-3.537,8.967c-2.023,6.956-7.774,16.714-7.774,16.714l-12.425,10.533,4.068,1,14.061-8.915,8.01-16.731,1.958-4.806Z" transform="translate(-245.54 -59.859)" fill="#fdb2b0"/>
            <path id="패스_85191" data-name="패스 85191" d="M498.914,178.922l-23.319,22.4,22.842,9.452,18.116-1.378s8.467-5.514,4.726-16.738l-3.741-11.815Z" transform="translate(-251.632 -94.666)" fill="#046bee"/>
            <path id="패스_85192" data-name="패스 85192" d="M474.635,226.369s-2.56,4.135,1.182,10.633l23.664,34.65,5.345,1.118-15.914-34.29s-4.233-13.489-14.276-12.11" transform="translate(-250.672 -119.717)" fill="#f4a7a7"/>
            <path id="패스_85193" data-name="패스 85193" d="M494.631,229.835s-1.181,2.461,2.56,8.96l22.664,33.947,4.847-.19-15.2-32.378s-4.037-12.11-14.867-10.338" transform="translate(-261.61 -121.509)" fill="#fdb2b0"/>
            <path id="패스_85194" data-name="패스 85194" d="M530.231,338.7s-2.658,2.314-2.609,3.593,7.04.689,7.779-.689,2.117-8.566,2.117-8.566.978-4.018-2.2-4.791c-1.862-.453-5.085,10.452-5.085,10.452" transform="translate(-279.158 -173.667)" fill="#001243"/>
            <path id="패스_85195" data-name="패스 85195" d="M528.354,321.321l2.265,3.749c1.1,2.805.874,5.986,0,9.353,0,0,3.84.886,4.332-.985.305-1.16,1.027-3.568,1.531-5.231a4.337,4.337,0,0,0-2.338-5.27l-.079-.033-2.166-2.757Z" transform="translate(-279.546 -169.386)" fill="#f4a7a7"/>
            <path id="패스_85196" data-name="패스 85196" d="M548.148,334.782l1.83,8.418-.915.493-1.611-4.455Z" transform="translate(-289.651 -177.129)" fill="#001243"/>
            <path id="패스_85197" data-name="패스 85197" d="M549.153,334.338s-2.658,2.314-2.609,3.594,7.04.689,7.779-.689,2.117-8.566,2.117-8.566.918-3.8-2.2-4.791c-2.26-.715-5.086,10.452-5.086,10.452" transform="translate(-289.169 -171.347)" fill="#001243"/>
            <path id="패스_85198" data-name="패스 85198" d="M548.393,318.319l1.739,2.405c1.1,2.806.874,5.987,0,9.354,0,0,3.84.886,4.332-.985.305-1.16,1.027-3.569,1.531-5.231a4.337,4.337,0,0,0-2.338-5.27l-.079-.033-2.166-2.757Z" transform="translate(-290.148 -167.087)" fill="#fdb2b0"/>
            <path id="패스_85199" data-name="패스 85199" d="M566.99,329.664l1.91,8.783-.915.492-1.611-4.455Z" transform="translate(-299.662 -174.421)" fill="#001243"/>
            <path id="패스_85200" data-name="패스 85200" d="M540.649,326.071a8.12,8.12,0,0,1,3.2,2.056l-.258,3.431-1.035,1.2s1.083-4.147-1.91-6.689" transform="translate(-286.051 -172.52)" fill="#001243"/>
            <path id="패스_85201" data-name="패스 85201" d="M559.573,321.739a6.536,6.536,0,0,1,2.953,1.853l-.009,3.634-1.034,1.2s1.083-4.147-1.91-6.689" transform="translate(-296.064 -170.228)" fill="#001243"/>
            <path id="패스_85202" data-name="패스 85202" d="M521.735,154.9l-3.007-21.377H543.1l-2.737,23.293a48.277,48.277,0,0,1-18.624-1.917" transform="translate(-274.453 -70.648)" fill="#d3d3d3"/>
            <path id="패스_85203" data-name="패스 85203" d="M524.118,105.489l-9.643,3.561s2.151,6.306,2,9.643H529.83l-1.168-11.349a6.337,6.337,0,0,1-4.543-1.854" transform="translate(-272.203 -55.813)" fill="#d3d3d3"/>
            <path id="패스_85204" data-name="패스 85204" d="M544.6,107.343s3.5-.028,5.248-1.854l7.492,2.893s-1.632,5.712-.557,10.311H545.77Z" transform="translate(-288.143 -55.813)" fill="#d3d3d3"/>
            <path id="패스_85205" data-name="패스 85205" d="M491.931,166.322a3.168,3.168,0,1,1-4.491-1.484,3.356,3.356,0,0,1,4.491,1.484" transform="translate(-257.115 -87.012)" fill="#b3b3b3"/>
            <path id="패스_85206" data-name="패스 85206" d="M449.1,520.24c-70.5,40.968-185.173,40.968-256.13,0-16.087-9.288-28.533-19.888-37.361-31.2-30.315,38.7-17.829,85.947,37.347,117.8,70.957,40.968,185.634,40.967,256.13,0,54.511-31.679,66.633-78.575,36.526-117.155-8.67,11.069-20.834,21.441-36.511,30.551" transform="translate(-73.809 -258.747)" fill="#dae4ef"/>
            <path id="패스_85207" data-name="패스 85207" d="M350.258,369.977a25.836,25.836,0,0,0-.534,5.189c0,25.273,37.109,45.761,82.886,45.761S515.5,400.439,515.5,375.166a25.794,25.794,0,0,0-.379-4.373c-51.523-15.559-113.15-15.829-164.859-.816" transform="translate(-185.035 -189.899)" fill="#dae4ef"/>
            <path id="패스_85208" data-name="패스 85208" d="M27.086,351.287a.707.707,0,0,1-.7-.824l7.465-44.393a.706.706,0,0,1,1.393.234L27.782,350.7a.706.706,0,0,1-.7.589" transform="translate(-13.957 -161.626)" fill="#444b55"/>
            <path id="패스_85209" data-name="패스 85209" d="M95,379.541H94.98a.706.706,0,0,1-.684-.728l1.343-44.394a.706.706,0,0,1,1.412.043l-1.343,44.393a.706.706,0,0,1-.705.685" transform="translate(-49.891 -176.575)" fill="#444b55"/>
            <path id="패스_85210" data-name="패스 85210" d="M164.762,343.778a.706.706,0,0,1-.7-.626l-5.124-44.5a.707.707,0,0,1,1.4-.161l5.124,44.5a.706.706,0,0,1-.621.782.675.675,0,0,1-.081,0" transform="translate(-84.09 -157.595)" fill="#444b55"/>
            <path id="패스_85211" data-name="패스 85211" d="M20.935,163.293l8.839,52.381,30.669-14.96-4.7-52.037a4.257,4.257,0,0,0-5.977-3.5L24.619,156.412a6.375,6.375,0,0,0-3.684,6.88" transform="translate(-11.029 -76.612)" fill="#525a65"/>
            <path id="패스_85212" data-name="패스 85212" d="M39.806,278.495l27.709,15.334,30.138-17.738L70.475,263.535Z" transform="translate(-21.061 -139.433)" fill="#8d959e"/>
            <path id="패스_85213" data-name="패스 85213" d="M67.515,310.638v5.023l-27.709-15.54V295.3Z" transform="translate(-21.061 -156.242)" fill="#525a65"/>
            <path id="패스_85214" data-name="패스 85214" d="M98.647,312.961l30.138-18.209V290.2L98.647,307.938Z" transform="translate(-52.193 -153.542)" fill="#525a65"/>
            <path id="패스_85215" data-name="패스 85215" d="M34.805,252.478l.3-.383c-1.368.483-1.357-.175-1.357-.175l.657-.851c-1.264.414-1.257-.208-1.257-.208l2.959-3.832,5.364-2.872,2.752,1.638-2.356,3.629s-2.172,2.006-3.392,2.9c-1.167.858-1.45.119-1.5-.078a3.334,3.334,0,0,1-.651.355c-1.541.6-1.513-.124-1.513-.124" transform="translate(-17.537 -129.18)" fill="#db9085"/>
            <path id="패스_85216" data-name="패스 85216" d="M12.77,229.891l17.786,18.776L18.088,260.694,0,241.3Z" transform="translate(0 -121.632)" fill="#fff"/>
            <path id="패스_85217" data-name="패스 85217" d="M44.681,244.156l-2.785.6-2.678.6a.9.9,0,0,0,.723.844,7.855,7.855,0,0,0,2.412-.45l2.654-1Z" transform="translate(-20.749 -129.18)" fill="#db9085"/>
            <path id="패스_85218" data-name="패스 85218" d="M238.533,134.075l-.274.31c.185-1.225-.365-1.11-.365-1.11l-.608.688c.144-1.127-.377-1.021-.377-1.021l-2.74,3.1-3.425,6.338,1.036,1.323,2.163-.532a1.9,1.9,0,0,0,.863-.475l2.3-2.207s1.333-2.145,1.889-3.312c.532-1.117-.133-1.236-.307-1.248a2.821,2.821,0,0,0,.193-.6c.257-1.389-.347-1.249-.347-1.249" transform="translate(-122.084 -70.337)" fill="#db9085"/>
            <path id="패스_85219" data-name="패스 85219" d="M233.5,143.341l.186-1.713s-.123-2.5.379-2.323.563,1.372.563,1.372l.058.469Z" transform="translate(-123.542 -73.7)" fill="#db9085"/>
            <path id="패스_85220" data-name="패스 85220" d="M241.73,135.113a20.3,20.3,0,0,1-1.213,1.812c-.214.292-.436.58-.662.864a7.941,7.941,0,0,1-.711.83,7.891,7.891,0,0,1,.527-.963q.314-.445.648-.876a20.345,20.345,0,0,1,1.41-1.667" transform="translate(-126.528 -71.487)" fill="#c8807a"/>
            <path id="패스_85221" data-name="패스 85221" d="M243.825,136.009a16,16,0,0,1-1.186,1.853c-.217.295-.437.588-.671.871s-.459.572-.7.847a16.348,16.348,0,0,1,1.173-1.863,16.012,16.012,0,0,1,1.389-1.708" transform="translate(-127.649 -71.961)" fill="#c8807a"/>
            <path id="패스_85222" data-name="패스 85222" d="M245.4,139.285a8.826,8.826,0,0,1-.693,1.1,12.766,12.766,0,0,1-.813,1.01l0-.005c-.145.188-.3.371-.463.546.094-.221.2-.436.313-.644l0-.006a12.638,12.638,0,0,1,.764-1.047,8.765,8.765,0,0,1,.884-.956" transform="translate(-128.8 -73.694)" fill="#c8807a"/>
            <path id="패스_85223" data-name="패스 85223" d="M129.131,134.918a10.087,10.087,0,0,1-2.591,5.457l5.611,7.831,4.512-6.644a15.619,15.619,0,0,1-.484-4.528Z" transform="translate(-66.951 -71.384)" fill="#ce847e"/>
            <path id="패스_85224" data-name="패스 85224" d="M118.034,434.282v-3.737h-4.946a6.278,6.278,0,0,1-.53,3.313l3.709,2.2Z" transform="translate(-59.553 -227.796)" fill="#bec5c5"/>
            <path id="패스_85225" data-name="패스 85225" d="M111.025,437.58v3.957s-9.185.989-11.587,0c0,0-1.271-2.543,4.24-3.533l1.872-.424s3.639,1.837,5.476,0" transform="translate(-52.544 -231.519)" fill="#2a3535"/>
            <path id="패스_85226" data-name="패스 85226" d="M167.765,430.948v-3.737h4.946a6.278,6.278,0,0,0,.53,3.313l-3.709,2.2Z" transform="translate(-88.763 -226.032)" fill="#bec5c5"/>
            <path id="패스_85227" data-name="패스 85227" d="M167.765,434.246V438.2s9.185.989,11.587,0c0,0,1.272-2.543-4.239-3.533l-1.872-.424s-3.639,1.837-5.476,0" transform="translate(-88.763 -229.755)" fill="#2a3535"/>
            <path id="패스_85228" data-name="패스 85228" d="M112.842,265.582l-2.315,38.109.575,39.6,6.75.2,3.683-36.472,5.837-24.271-1.237-18.686Z" transform="translate(-58.479 -139.713)" fill="#2a3535"/>
            <path id="패스_85229" data-name="패스 85229" d="M156.868,260.865l4.5,79.415h-7.831l-8.628-59.223-1.237-18.686Z" transform="translate(-76.015 -138.021)" fill="#2a3535"/>
            <path id="패스_85230" data-name="패스 85230" d="M139.077,153.3,128.709,173.78a3.477,3.477,0,0,1-4.423,1.352l-16.374-10.456L106.1,199.951l-.031,2.026c-11.179,5.266-15.512,5.833-26.491,3.026l-.339-2.29-3.649-33.1-4.656,15.652L51.979,199.037l-4.314-5.95L63.879,179.1l6.694-24.991a4.341,4.341,0,0,1,3.146-2.495,89.5,89.5,0,0,1,14.615-1.9c.226-.009,1.491.417,1.719.41.177-.006.836-.5,1.014-.509a48.279,48.279,0,0,1,18.447,2.721l15.034,11.248,9.073-14.017s4.606,1.184,5.455,3.728" transform="translate(-25.219 -79.135)" fill="#f1f1f1"/>
            <path id="패스_85231" data-name="패스 85231" d="M134.323,150.75l2.478,2.492-1.143,3,4.695,32.68-4.364,11.339-4.652-10.55,1.921-33.206-1.285-2.807Z" transform="translate(-69.489 -79.76)" fill="#2b5ab3"/>
            <path id="패스_85232" data-name="패스 85232" d="M124.907,144.413l4.424,2.984-3.526,4.714-3.9-4.851Z" transform="translate(-64.496 -76.407)" fill="#e6e6e6"/>
            <path id="패스_85233" data-name="패스 85233" d="M141.875,144.413l-4.2,2.984,3.93,3.989,3.5-4.126Z" transform="translate(-72.845 -76.407)" fill="#e6e6e6"/>
            <path id="패스_85234" data-name="패스 85234" d="M141.585,256.558l-.032,2.026c-11.179,5.266-15.512,5.833-26.49,3.026l-.339-2.29a36.66,36.66,0,0,0,26.861-2.762" transform="translate(-60.699 -135.742)"/>
            <path id="패스_85235" data-name="패스 85235" d="M59.351,249.586c-.3.228-.632.295-.745.148s.04-.451.339-.68.633-.294.745-.147-.04.451-.339.68" transform="translate(-30.988 -131.652)" fill="#e6e6e6"/>
            <path id="패스_85236" data-name="패스 85236" d="M63.032,246.774c-.3.228-.633.295-.745.148s.04-.451.339-.68.633-.294.745-.147-.04.451-.339.68" transform="translate(-32.936 -130.164)" fill="#e6e6e6"/>
            <path id="패스_85237" data-name="패스 85237" d="M129.9,121.82A7.068,7.068,0,0,0,136.663,128a6.672,6.672,0,0,0,4.136-5.8l.939-5.115.3-3.64-5.425-1.289-5.263.752-2.471,3.276Z" transform="translate(-68.186 -59.338)" fill="#db9085"/>
            <path id="패스_85238" data-name="패스 85238" d="M129.279,118.28a1.662,1.662,0,0,0,.539-1.8,10.6,10.6,0,0,0-.638-1.146,2.339,2.339,0,0,1-.234-.922c-.017-.4.15-.888.546-.957a.818.818,0,0,1,.789.542,7.274,7.274,0,0,0,.394.948.454.454,0,0,0,.262.212c.2.043.378-.14.434-.333.145-.5-.258-1.062-.057-1.546.26-.628,1.3-.6,1.559-1.232.211-.522-.283-1.088-.214-1.647a.867.867,0,0,1,.936-.725,2.4,2.4,0,0,1,1,.591,4.12,4.12,0,0,0,2.223.678c.785.04,1.57-.044,2.355-.049.411,0,.908.073,1.068.452s-.1.962.259,1.185a.48.48,0,0,0,.531-.061,1.236,1.236,0,0,0,.327-.46,11.249,11.249,0,0,0,.9-4.168,1.746,1.746,0,0,0-.222-1.209c-.4-.5-1.156-.434-1.791-.52-1.888-.257-3.186-2.217-5.067-2.523a5.088,5.088,0,0,0-2.827.541,18.265,18.265,0,0,1-2.687,1.13,3.22,3.22,0,0,0-1.257.467,2.2,2.2,0,0,0-.47.588c-1.744,2.882-1.713,6.567-.685,9.775a4.826,4.826,0,0,0,.638,1.387,2.006,2.006,0,0,0,1.242.843Z" transform="translate(-66.951 -54.784)" fill="#332e30"/>
            <path id="패스_85239" data-name="패스 85239" d="M235.8,163.261c-.179.331-.457.527-.619.439s-.149-.428.031-.759.457-.528.619-.439.149.428-.031.759" transform="translate(-124.373 -85.967)" fill="#e6e6e6"/>
            <path id="패스_85240" data-name="패스 85240" d="M238.014,159.19c-.18.331-.457.527-.619.439s-.149-.428.031-.759.457-.528.619-.439.149.428-.031.759" transform="translate(-125.543 -83.813)" fill="#e6e6e6"/>
            <path id="패스_85241" data-name="패스 85241" d="M883.137,329.44V334.9l-24.705,1.471v-5.464Z" transform="translate(-454.186 -174.303)" fill="#525a65"/>
            <path id="패스_85242" data-name="패스 85242" d="M893.2,194.291l11.948,6.953a2.938,2.938,0,0,1,1.414,3.056l-9.585,53.634-12.386-11.293Z" transform="translate(-468.027 -102.797)" fill="#525a65"/>
            <path id="패스_85243" data-name="패스 85243" d="M770.463,678.074l.8-3.862-5.111-1.056a6.629,6.629,0,0,1-1.255,3.31l3.364,3.063Z" transform="translate(-404.697 -356.16)" fill="#bec5c5"/>
            <path id="패스_85244" data-name="패스 85244" d="M762.472,681.356l-.845,4.089s-9.7-.938-11.974-2.474c0,0-.771-2.9,5.135-2.745l2.026-.039s3.368,2.675,5.658,1.169" transform="translate(-396.616 -359.879)" fill="#2a3535"/>
            <path id="패스_85245" data-name="패스 85245" d="M800.584,580.022l-24.025-1.4c-5.6-.325-7.046,3.659-7.724,10.466l-4.818,35.157,7.869,1.915,10.378-31.709,18.716,6.628Z" transform="translate(-404.232 -306.134)" fill="#4c3c34"/>
            <path id="패스_85246" data-name="패스 85246" d="M733.8,697.408l.8-3.861-5.111-1.056a6.626,6.626,0,0,1-1.255,3.31l3.364,3.063Z" transform="translate(-385.298 -366.389)" fill="#bec5c5"/>
            <path id="패스_85247" data-name="패스 85247" d="M725.805,700.69l-.844,4.089s-9.7-.938-11.974-2.474c0,0-.771-2.9,5.135-2.746l2.025-.038s3.368,2.675,5.658,1.169" transform="translate(-377.216 -370.108)" fill="#2a3535"/>
            <path id="패스_85248" data-name="패스 85248" d="M763.917,599.357l-24.025-1.4c-5.6-.325-7.046,3.66-7.724,10.466l-4.818,35.157,7.869,1.915L745.6,613.789l18.717,6.628Z" transform="translate(-384.832 -316.364)" fill="#5a493e"/>
            <path id="패스_85249" data-name="패스 85249" d="M795.55,698.584h-.036a.707.707,0,0,1-.671-.741l2.356-47.219a.706.706,0,0,1,1.411.071l-2.356,47.219a.707.707,0,0,1-.7.671" transform="translate(-420.542 -343.882)" fill="#444b55"/>
            <path id="패스_85250" data-name="패스 85250" d="M878.182,687.72a.707.707,0,0,1-.7-.651l-3.7-47.219a.707.707,0,1,1,1.409-.11l3.7,47.219a.707.707,0,0,1-.649.76l-.056,0" transform="translate(-462.306 -338.134)" fill="#444b55"/>
            <path id="패스_85251" data-name="패스 85251" d="M585.842,735.752v-3.943h5.219a6.627,6.627,0,0,0,.559,3.5l-3.914,2.32Z" transform="translate(-309.962 -387.192)" fill="#bec5c5"/>
            <path id="패스_85252" data-name="패스 85252" d="M547.741,631.593h23.783c.891,7.161-1.9,28.7-4.1,47.962H558.4l-.666-27.734H538.347Z" transform="translate(-284.833 -334.169)" fill="#303030"/>
            <path id="패스_85253" data-name="패스 85253" d="M272.131,710.239l1.243-3.742,4.953,1.645a6.628,6.628,0,0,0-.571,3.494l-4.445.968Z" transform="translate(-143.981 -373.799)" fill="#bec5c5"/>
            <path id="패스_85254" data-name="패스 85254" d="M270.952,713.542l-1.316,3.962s8.87,4.045,11.6,3.853c0,0,2.119-2.124-3.071-4.947l-1.734-1.047s-4.255.63-5.484-1.821" transform="translate(-142.661 -377.527)" fill="#2a3535"/>
            <path id="패스_85255" data-name="패스 85255" d="M230.81,686.254l1.242-3.742,4.953,1.645a6.629,6.629,0,0,0-.571,3.494l-4.446.968Z" transform="translate(-122.119 -361.109)" fill="#bec5c5"/>
            <path id="패스_85256" data-name="패스 85256" d="M229.631,689.557l-1.316,3.962s8.87,4.045,11.6,3.853c0,0,2.119-2.124-3.071-4.947l-1.734-1.047s-4.255.63-5.484-1.82" transform="translate(-120.799 -364.837)" fill="#2a3535"/>
            <path id="패스_85257" data-name="패스 85257" d="M252.908,599.362l24.025-1.4a7.764,7.764,0,0,1,7.724,10.466L268.23,652.7l-7.1-2.505,3.079-32.03H251.3Z" transform="translate(-132.963 -316.369)" fill="#1b2323"/>
            <path id="패스_85258" data-name="패스 85258" d="M211.258,575.393l24.025-1.4a7.764,7.764,0,0,1,7.724,10.466L226.58,628.727l-7.1-2.505,3.234-30.314-13.06-1.715Z" transform="translate(-110.926 -303.688)" fill="#1b2323"/>
            <path id="패스_85259" data-name="패스 85259" d="M833.459,266.3l-25.194,14.93,17.188,20.652s33.447,0,25.429-26.54Z" transform="translate(-427.644 -140.895)" fill="#2a3535"/>
            <path id="패스_85260" data-name="패스 85260" d="M192.145,292.332a210.041,210.041,0,0,1,46.906-19.662C243.718,249.84,278.8,232.1,321.4,232.1c43.1,0,78.518,18.167,82.507,41.388a210.591,210.591,0,0,1,44.358,18.845c16.089,9.289,28.537,19.89,37.365,31.2,30.317-38.7,17.827-85.95-37.35-117.807-70.957-40.967-185.626-40.966-256.122,0-54.513,31.68-66.638,78.578-36.53,117.159,8.671-11.07,20.836-21.443,36.516-30.555" transform="translate(-73.828 -92.591)" fill="#fff"/>
            <path id="패스_85261" data-name="패스 85261" d="M211.069,463.82c70.957,40.967,185.634,40.966,256.13,0,15.678-9.111,27.841-19.482,36.511-30.551-8.828-11.313-21.276-21.913-37.365-31.2a210.6,210.6,0,0,0-44.358-18.845,25.8,25.8,0,0,1,.379,4.373c0,25.273-37.109,45.761-82.886,45.761S256.6,412.865,256.6,387.593a25.871,25.871,0,0,1,.534-5.189,210.062,210.062,0,0,0-46.906,19.662c-15.679,9.112-27.844,19.485-36.515,30.555,8.828,11.312,21.274,21.911,37.361,31.2" transform="translate(-91.907 -202.326)" fill="#fff"/>
            <path id="패스_85262" data-name="패스 85262" d="M501.7,397.712l-.029,10.306c-.076,26.674-17.606,53.308-52.626,73.659-70.5,40.968-185.173,40.968-256.13,0-35.706-20.615-53.538-47.675-53.461-74.694l.029-10.306c-.077,27.019,17.756,54.079,53.461,74.694,70.957,40.967,185.634,40.967,256.13,0,35.021-20.352,52.55-46.986,52.626-73.659" transform="translate(-73.785 -209.878)" fill="#a2b8cc"/>
            <path id="패스_85263" data-name="패스 85263" d="M392.9,389.383c-29.974,0-59.985-6.609-82.878-19.826-22.3-12.875-34.595-30.007-34.62-48.241-.026-18.109,12.078-35.125,34.083-47.912,45.488-26.435,119.745-26.435,165.531,0,22.3,12.876,34.6,30.009,34.623,48.244.026,18.108-12.078,35.122-34.081,47.91-22.745,13.218-52.683,19.827-82.657,19.827m-.761-135.342c-29.892,0-59.737,6.589-82.418,19.769-21.854,12.7-33.875,29.571-33.849,47.505.025,18.059,12.237,35.047,34.385,47.834,45.657,26.36,119.7,26.36,165.063,0,21.852-12.7,33.872-29.569,33.846-47.5-.025-18.06-12.238-35.049-34.387-47.837-22.825-13.178-52.756-19.769-82.64-19.769" transform="translate(-145.714 -134.165)" fill="#a2b8cc"/>
            <path id="패스_85264" data-name="패스 85264" d="M412.678,390.645c-25.454,0-50.939-5.612-70.38-16.836-18.943-10.937-29.388-25.493-29.41-40.987-.022-15.388,10.261-29.844,28.954-40.707,38.629-22.449,101.687-22.449,140.568,0,18.945,10.938,29.39,25.495,29.412,40.989.022,15.387-10.26,29.843-28.952,40.705-19.315,11.225-44.739,16.837-70.193,16.837m-.645-114.9c-25.371,0-50.7,5.592-69.953,16.78-18.542,10.775-28.742,25.087-28.72,40.3.022,15.319,10.383,29.731,29.174,40.58,38.752,22.373,101.6,22.373,140.1,0,18.54-10.774,28.739-25.085,28.718-40.3-.022-15.32-10.384-29.732-29.177-40.582-19.373-11.185-44.777-16.78-70.142-16.78" transform="translate(-165.546 -145.647)" fill="#a2b8cc"/>
            <path id="패스_85265" data-name="패스 85265" d="M429.336,391.708c-21.647,0-43.319-4.772-59.852-14.317-16.116-9.305-25-21.691-25.021-34.876-.019-13.1,8.729-25.4,24.633-34.639,32.85-19.091,86.477-19.091,119.542,0,16.117,9.305,25,21.692,25.022,34.878.019,13.095-8.729,25.4-24.631,34.637-16.426,9.546-38.047,14.319-59.693,14.319m-.549-97.686c-21.564,0-43.093,4.752-59.454,14.261-15.752,9.155-24.417,21.311-24.4,34.231.018,13.011,8.821,25.252,24.785,34.469,16.466,9.507,38.058,14.261,59.617,14.262s43.094-4.753,59.456-14.262c15.751-9.154,24.416-21.31,24.4-34.229-.018-13.011-8.821-25.253-24.787-34.471-16.465-9.506-38.057-14.261-59.615-14.261" transform="translate(-182.251 -155.318)" fill="#a2b8cc"/>
            <path id="패스_85266" data-name="패스 85266" d="M522.9,261.367a1.191,1.191,0,0,1,.7.965c0,.753-1.047,1.364-2.348,1.364a3.4,3.4,0,0,1-1.666-.4,1.194,1.194,0,0,1-.7-.963c0-.753,1.047-1.365,2.347-1.365a3.4,3.4,0,0,1,1.668.4" transform="translate(-274.538 -138.075)" fill="#444b55"/>
            <path id="패스_85267" data-name="패스 85267" d="M509.653,261.367a1.191,1.191,0,0,1,.7.965c0,.753-1.047,1.364-2.348,1.364a3.4,3.4,0,0,1-1.666-.4,1.2,1.2,0,0,1-.7-.963c0-.753,1.047-1.365,2.348-1.365a3.4,3.4,0,0,1,1.668.4" transform="translate(-267.527 -138.075)" fill="#444b55"/>
            <path id="패스_85268" data-name="패스 85268" d="M522.833,261.849c.006.989-1.374,1.791-3.083,1.791H505.8a4.444,4.444,0,0,1-2.187-.523,1.562,1.562,0,0,1-.913-1.266c-.006-.99,1.374-1.792,3.083-1.792h13.953a4.454,4.454,0,0,1,2.186.525,1.565,1.565,0,0,1,.914,1.265m-10.149,1.366c1.3,0,2.352-.611,2.348-1.365a1.192,1.192,0,0,0-.7-.965,3.4,3.4,0,0,0-1.668-.4c-1.3,0-2.353.611-2.348,1.365a1.194,1.194,0,0,0,.7.963,3.4,3.4,0,0,0,1.665.4m-6.24,0c1.3,0,2.352-.611,2.348-1.365a1.189,1.189,0,0,0-.7-.964,3.4,3.4,0,0,0-1.668-.4c-1.3,0-2.352.611-2.348,1.365a1.2,1.2,0,0,0,.7.963,3.4,3.4,0,0,0,1.665.4m12.482,0c1.3,0,2.349-.609,2.345-1.363a1.192,1.192,0,0,0-.7-.965,3.4,3.4,0,0,0-1.668-.4c-1.3,0-2.352.611-2.345,1.362a1.191,1.191,0,0,0,.7.965,3.4,3.4,0,0,0,1.668.4" transform="translate(-265.971 -137.594)" fill="#9ebdcc"/>
            <path id="패스_85269" data-name="패스 85269" d="M522.546,260.807c.006,1.5-2.088,2.718-4.68,2.72l-15.449,0a6.764,6.764,0,0,1-3.324-.795,2.37,2.37,0,0,1-1.384-1.923c-.008-1.5,2.086-2.72,4.681-2.72h15.445a6.76,6.76,0,0,1,3.322.8,2.377,2.377,0,0,1,1.389,1.923m-5.435,1.789c1.708,0,3.088-.8,3.083-1.791a1.566,1.566,0,0,0-.914-1.264,4.454,4.454,0,0,0-2.186-.525H503.14c-1.708,0-3.088.8-3.083,1.791a1.564,1.564,0,0,0,.913,1.267,4.448,4.448,0,0,0,2.187.523h13.954" transform="translate(-263.332 -136.551)" fill="#444b55"/>
            <path id="패스_85270" data-name="패스 85270" d="M536.156,261.367a1.191,1.191,0,0,1,.7.965c0,.753-1.047,1.364-2.345,1.362a3.391,3.391,0,0,1-1.667-.4,1.191,1.191,0,0,1-.7-.964c-.007-.752,1.044-1.363,2.345-1.363a3.4,3.4,0,0,1,1.668.4" transform="translate(-281.551 -138.075)" fill="#444b55"/>
            <path id="패스_85271" data-name="패스 85271" d="M526.9,528.6a1.191,1.191,0,0,1,.7.965c0,.753-1.047,1.364-2.348,1.364a3.4,3.4,0,0,1-1.666-.4,1.2,1.2,0,0,1-.7-.963c0-.754,1.047-1.365,2.347-1.365a3.4,3.4,0,0,1,1.668.4" transform="translate(-276.654 -279.466)" fill="#444b55"/>
            <path id="패스_85272" data-name="패스 85272" d="M513.653,528.6a1.191,1.191,0,0,1,.7.965c0,.753-1.047,1.364-2.348,1.364a3.4,3.4,0,0,1-1.666-.4,1.194,1.194,0,0,1-.7-.963c0-.754,1.047-1.365,2.347-1.365a3.4,3.4,0,0,1,1.668.4" transform="translate(-269.644 -279.466)" fill="#444b55"/>
            <path id="패스_85273" data-name="패스 85273" d="M526.834,529.086c.006.989-1.374,1.791-3.082,1.791H509.8a4.444,4.444,0,0,1-2.187-.523,1.562,1.562,0,0,1-.913-1.266c-.006-.99,1.374-1.792,3.083-1.792h13.953a4.462,4.462,0,0,1,2.186.525,1.565,1.565,0,0,1,.913,1.265m-10.148,1.366c1.3,0,2.352-.611,2.348-1.365a1.192,1.192,0,0,0-.7-.965,3.4,3.4,0,0,0-1.668-.4c-1.3,0-2.353.611-2.348,1.364a1.194,1.194,0,0,0,.7.964,3.4,3.4,0,0,0,1.665.4m-6.24,0c1.3,0,2.352-.611,2.348-1.365a1.19,1.19,0,0,0-.7-.965,3.4,3.4,0,0,0-1.667-.4c-1.3,0-2.352.611-2.348,1.365a1.2,1.2,0,0,0,.7.963,3.4,3.4,0,0,0,1.665.4m12.482,0c1.3,0,2.349-.609,2.345-1.363a1.192,1.192,0,0,0-.7-.965,3.394,3.394,0,0,0-1.668-.4c-1.3,0-2.352.611-2.345,1.362a1.192,1.192,0,0,0,.7.965,3.4,3.4,0,0,0,1.668.4" transform="translate(-268.088 -278.986)" fill="#9ebdcc"/>
            <path id="패스_85274" data-name="패스 85274" d="M526.546,528.044c.006,1.5-2.088,2.718-4.68,2.72l-15.449,0a6.758,6.758,0,0,1-3.324-.8,2.369,2.369,0,0,1-1.384-1.923c-.008-1.5,2.086-2.72,4.681-2.72h15.446a6.758,6.758,0,0,1,3.322.8,2.379,2.379,0,0,1,1.389,1.923m-5.435,1.789c1.708,0,3.088-.8,3.082-1.791a1.564,1.564,0,0,0-.913-1.264,4.455,4.455,0,0,0-2.186-.525H507.14c-1.708,0-3.088.8-3.083,1.791a1.562,1.562,0,0,0,.912,1.266,4.445,4.445,0,0,0,2.187.523h13.954" transform="translate(-265.448 -277.943)" fill="#444b55"/>
            <path id="패스_85275" data-name="패스 85275" d="M540.157,528.6a1.191,1.191,0,0,1,.7.965c0,.753-1.047,1.364-2.345,1.362a3.4,3.4,0,0,1-1.668-.4,1.192,1.192,0,0,1-.7-.965c-.007-.752,1.044-1.363,2.345-1.363a3.4,3.4,0,0,1,1.668.4" transform="translate(-283.668 -279.466)" fill="#444b55"/>
            <path id="패스_85276" data-name="패스 85276" d="M352.285,485.2q.085.049.162.1c.827.582.686,1.441-.316,1.918a3.7,3.7,0,0,1-3.154-.088c-.057-.032-.111-.067-.162-.1-.827-.582-.686-1.44.316-1.918a3.711,3.711,0,0,1,3.154.088" transform="translate(-184.269 -256.505)" fill="#444b55"/>
            <path id="패스_85277" data-name="패스 85277" d="M335.428,473.331c.055.032.107.065.158.1.827.582.685,1.441-.319,1.92a3.7,3.7,0,0,1-3.15-.089c-.057-.033-.111-.067-.162-.1-.828-.582-.686-1.44.316-1.918a3.714,3.714,0,0,1,3.158.09" transform="translate(-175.348 -250.223)" fill="#444b55"/>
            <path id="패스_85278" data-name="패스 85278" d="M343.329,478.315c1.083.764.9,1.893-.421,2.519a4.858,4.858,0,0,1-4.137-.116c-.073-.042-.143-.087-.21-.133l-8.882-6.253c-1.083-.764-.9-1.892.421-2.519a4.871,4.871,0,0,1,4.141.118q.109.064.21.133Zm-8.54-1.066a3.712,3.712,0,0,0,3.158.09c1-.478,1.143-1.337.319-1.92q-.076-.053-.157-.1a3.72,3.72,0,0,0-3.158-.09c-1,.479-1.146,1.338-.319,1.92.05.035.1.069.157.1m3.976,2.8a3.7,3.7,0,0,0,3.154.088c1-.478,1.143-1.336.316-1.919-.051-.036-.106-.07-.162-.1a3.71,3.71,0,0,0-3.154-.088c-1,.477-1.143,1.336-.315,1.918.051.036.105.071.162.1m-7.94-5.591a3.7,3.7,0,0,0,3.15.089c1-.479,1.147-1.338.319-1.92-.049-.035-.1-.069-.157-.1a3.713,3.713,0,0,0-3.158-.09c-1,.477-1.143,1.336-.316,1.918.051.037.106.071.162.1" transform="translate(-174.057 -249.417)" fill="#9ebdcc"/>
            <path id="패스_85279" data-name="패스 85279" d="M343.859,479.267c.055.032.107.065.157.1.825.583.682,1.442-.319,1.92a3.709,3.709,0,0,1-3.158-.091q-.082-.047-.158-.1c-.827-.582-.686-1.441.319-1.92a3.719,3.719,0,0,1,3.158.091" transform="translate(-179.807 -253.364)" fill="#444b55"/>
            <path id="패스_85280" data-name="패스 85280" d="M342.7,476.639c1.651,1.162,1.368,2.876-.635,3.828a7.4,7.4,0,0,1-6.295-.179q-.165-.1-.315-.2l-9.826-6.919c-1.649-1.164-1.365-2.878.634-3.828a7.391,7.391,0,0,1,6.291.177c.111.064.218.131.319.2Zm-6.268,2.658a4.859,4.859,0,0,0,4.137.116c1.319-.626,1.5-1.755.421-2.519l-8.879-6.251c-.067-.047-.136-.091-.21-.133a4.87,4.87,0,0,0-4.14-.118c-1.318.627-1.5,1.755-.421,2.519l8.882,6.253c.067.047.137.091.21.133" transform="translate(-171.719 -247.996)" fill="#444b55"/>
            <path id="패스_85281" data-name="패스 85281" d="M703.273,312.394c.057.033.11.067.161.1.827.582.686,1.441-.316,1.919a3.7,3.7,0,0,1-3.153-.088c-.057-.033-.111-.067-.162-.1-.827-.582-.686-1.441.316-1.918a3.711,3.711,0,0,1,3.154.088" transform="translate(-369.973 -165.074)" fill="#444b55"/>
            <path id="패스_85282" data-name="패스 85282" d="M686.416,300.524c.055.032.107.065.158.1.827.582.686,1.441-.319,1.92a3.7,3.7,0,0,1-3.15-.089q-.085-.049-.162-.1c-.827-.582-.686-1.441.316-1.918a3.714,3.714,0,0,1,3.158.09" transform="translate(-361.052 -158.793)" fill="#444b55"/>
            <path id="패스_85283" data-name="패스 85283" d="M694.317,305.509c1.083.764.9,1.892-.421,2.518a4.858,4.858,0,0,1-4.137-.116c-.073-.042-.143-.087-.21-.133l-8.882-6.253c-1.083-.764-.9-1.892.421-2.519a4.873,4.873,0,0,1,4.141.118q.109.064.209.133Zm-8.54-1.066a3.71,3.71,0,0,0,3.158.09c1-.478,1.143-1.337.319-1.92-.051-.035-.1-.069-.157-.1a3.719,3.719,0,0,0-3.158-.09c-1,.479-1.146,1.338-.319,1.92.05.035.1.069.157.1m3.976,2.8a3.7,3.7,0,0,0,3.153.088c1-.478,1.143-1.336.317-1.919-.051-.036-.106-.07-.162-.1a3.708,3.708,0,0,0-3.154-.088c-1,.477-1.143,1.336-.315,1.918.051.036.105.071.162.1m-7.94-5.591a3.7,3.7,0,0,0,3.15.089c1-.479,1.147-1.338.319-1.92-.05-.035-.1-.069-.157-.1a3.714,3.714,0,0,0-3.158-.09c-1,.477-1.142,1.336-.316,1.918.052.037.106.071.163.1" transform="translate(-359.761 -157.987)" fill="#9ebdcc"/>
            <path id="패스_85284" data-name="패스 85284" d="M694.847,306.46c.055.032.107.065.157.1.825.583.682,1.442-.319,1.92a3.709,3.709,0,0,1-3.158-.091c-.055-.032-.107-.065-.158-.1-.827-.582-.685-1.441.319-1.92a3.719,3.719,0,0,1,3.158.091" transform="translate(-365.511 -161.934)" fill="#444b55"/>
            <path id="패스_85285" data-name="패스 85285" d="M693.689,303.832c1.651,1.161,1.367,2.876-.635,3.828a7.4,7.4,0,0,1-6.295-.179q-.165-.1-.316-.2l-9.826-6.919c-1.649-1.164-1.365-2.878.634-3.828a7.391,7.391,0,0,1,6.291.177c.111.064.218.131.319.2Zm-6.268,2.658a4.858,4.858,0,0,0,4.137.116c1.319-.627,1.5-1.755.42-2.519l-8.879-6.251c-.067-.047-.136-.091-.209-.133a4.871,4.871,0,0,0-4.141-.118c-1.318.627-1.5,1.755-.42,2.519l8.882,6.253q.1.07.21.133" transform="translate(-357.423 -156.566)" fill="#444b55"/>
            <path id="패스_85286" data-name="패스 85286" d="M339.248,312.394c-.057.033-.11.067-.162.1-.827.582-.686,1.441.316,1.919a3.7,3.7,0,0,0,3.153-.088c.056-.033.111-.067.162-.1.827-.582.686-1.441-.316-1.918a3.711,3.711,0,0,0-3.154.088" transform="translate(-179.122 -165.074)" fill="#444b55"/>
            <path id="패스_85287" data-name="패스 85287" d="M356.106,300.524c-.055.032-.107.065-.158.1-.827.582-.686,1.441.319,1.92a3.7,3.7,0,0,0,3.15-.089c.057-.033.111-.067.162-.1.827-.582.686-1.441-.315-1.918a3.715,3.715,0,0,0-3.158.09" transform="translate(-188.043 -158.793)" fill="#444b55"/>
            <path id="패스_85288" data-name="패스 85288" d="M345.455,299.257q.1-.07.209-.133a4.873,4.873,0,0,1,4.141-.118c1.318.627,1.5,1.755.421,2.519l-8.882,6.253c-.067.047-.137.091-.21.133a4.858,4.858,0,0,1-4.137.116c-1.319-.626-1.5-1.755-.421-2.518Zm-.339,5.185c.055-.032.107-.065.157-.1.827-.582.686-1.441-.319-1.92a3.719,3.719,0,0,0-3.158.09c-.055.032-.107.065-.157.1-.824.583-.682,1.442.319,1.92a3.71,3.71,0,0,0,3.158-.09m-3.976,2.8c.057-.032.111-.067.162-.1.828-.582.686-1.441-.316-1.918a3.708,3.708,0,0,0-3.154.088c-.056.033-.111.066-.162.1-.827.582-.685,1.441.316,1.919a3.7,3.7,0,0,0,3.154-.088m7.94-5.591c.057-.032.111-.067.162-.1.827-.582.685-1.441-.316-1.918a3.714,3.714,0,0,0-3.158.09c-.055.032-.108.065-.157.1-.828.582-.686,1.441.319,1.92a3.7,3.7,0,0,0,3.15-.089" transform="translate(-177.705 -157.987)" fill="#9ebdcc"/>
            <path id="패스_85289" data-name="패스 85289" d="M347.674,306.46c-.055.032-.107.065-.157.1-.825.583-.682,1.442.319,1.92a3.709,3.709,0,0,0,3.158-.091c.055-.032.107-.065.158-.1.827-.582.686-1.441-.319-1.92a3.719,3.719,0,0,0-3.158.091" transform="translate(-183.583 -161.934)" fill="#444b55"/>
            <path id="패스_85290" data-name="패스 85290" d="M342.356,296.913c.1-.072.208-.139.319-.2a7.391,7.391,0,0,1,6.291-.177c2,.95,2.283,2.664.634,3.828l-9.826,6.919q-.151.106-.316.2a7.4,7.4,0,0,1-6.3.179c-2-.952-2.286-2.667-.635-3.828ZM338.8,306.49c.073-.042.143-.087.21-.133l8.882-6.253c1.083-.764.9-1.892-.421-2.519a4.871,4.871,0,0,0-4.141.118c-.073.042-.143.087-.209.133l-8.879,6.251c-1.083.764-.9,1.892.421,2.519a4.858,4.858,0,0,0,4.137-.116" transform="translate(-175.369 -156.566)" fill="#444b55"/>
            <path id="패스_85291" data-name="패스 85291" d="M713.154,472.408c.877.506.927,1.328.1,1.87a3.664,3.664,0,0,1-3.326.108l-.1-.053c-.879-.508-.936-1.331-.1-1.874a3.654,3.654,0,0,1,3.323-.106l.1.056" transform="translate(-375.195 -249.732)" fill="#444b55"/>
            <path id="패스_85292" data-name="패스 85292" d="M704.353,478.125c.882.509.933,1.332.1,1.874a3.658,3.658,0,0,1-3.326.107c-.033-.017-.066-.035-.1-.053-.879-.508-.933-1.329-.1-1.872a3.657,3.657,0,0,1,3.323-.109l.1.053" transform="translate(-370.54 -252.759)" fill="#444b55"/>
            <path id="패스_85293" data-name="패스 85293" d="M711.863,466.493l-10.256,6.671a7.289,7.289,0,0,1-6.628.215c-.067-.034-.131-.07-.194-.106-1.755-1.013-1.863-2.653-.2-3.734l10.256-6.671a7.284,7.284,0,0,1,6.628-.216c.066.034.131.07.194.106,1.756,1.013,1.864,2.653.2,3.734m-15.323,5.87a4.8,4.8,0,0,0,4.362-.142l9.265-6.025c1.093-.713,1.021-1.792-.135-2.459l-.125-.068a4.8,4.8,0,0,0-4.363.142l-9.266,6.025c-1.094.71-1.027,1.789.129,2.456.042.024.086.048.131.071" transform="translate(-366.87 -244.418)" fill="#444b55"/>
            <path id="패스_85294" data-name="패스 85294" d="M712.526,467.6l-9.265,6.025a4.8,4.8,0,0,1-4.363.142c-.045-.023-.089-.047-.131-.072-1.156-.667-1.224-1.746-.129-2.456l9.266-6.025a4.8,4.8,0,0,1,4.363-.142c.043.022.085.045.125.068,1.156.667,1.228,1.746.135,2.459m-12.711,5.569a3.659,3.659,0,0,0,3.326-.107c.833-.542.782-1.365-.1-1.874-.031-.018-.063-.036-.1-.053a3.657,3.657,0,0,0-3.323.109c-.836.543-.782,1.365.1,1.873.031.017.063.035.1.052m7.27-4.727a3.652,3.652,0,0,0-3.323.106c-.836.543-.779,1.366.1,1.874.031.018.063.036.1.053a3.663,3.663,0,0,0,3.326-.107c.829-.542.779-1.364-.1-1.87-.032-.019-.066-.037-.1-.056m4.142-2.7a3.653,3.653,0,0,0-3.32.107c-.836.543-.782,1.365.1,1.874.031.018.064.036.1.053a3.653,3.653,0,0,0,3.323-.109c.832-.541.782-1.361-.1-1.87-.033-.019-.067-.038-.1-.056" transform="translate(-369.228 -245.826)" fill="#9ebdcc"/>
            <path id="패스_85295" data-name="패스 85295" d="M721.951,466.685c.88.508.929,1.329.1,1.87a3.653,3.653,0,0,1-3.323.109c-.033-.017-.066-.035-.1-.053-.882-.51-.936-1.331-.1-1.874a3.651,3.651,0,0,1,3.32-.108c.035.018.069.037.1.056" transform="translate(-379.85 -246.705)" fill="#444b55"/>
            <path id="패스_85296" data-name="패스 85296" d="M306.587,454.933h-.035a.708.708,0,0,1-.671-.74c0-.074.293-7.517-5.153-12.691-4.32-4.1-11.02-5.739-19.913-4.856a.707.707,0,0,1-.139-1.406c9.329-.926,16.409.841,21.04,5.251a19.108,19.108,0,0,1,5.577,13.772.706.706,0,0,1-.7.671" transform="translate(-148.165 -230.154)" fill="#444b55"/>
            <path id="패스_85297" data-name="패스 85297" d="M280.026,435.312a2.06,2.06,0,1,1-2.06-2.06,2.06,2.06,0,0,1,2.06,2.06" transform="translate(-145.979 -229.229)" fill="#525a65"/>
            <path id="패스_85298" data-name="패스 85298" d="M509.639,508.042c-.024,0-.048,0-.072,0a.707.707,0,0,1-.632-.773c.01-.1.924-9.8-3.577-15.274a.706.706,0,0,1,1.091-.9c4.878,5.927,3.934,15.891,3.892,16.313a.706.706,0,0,1-.7.635" transform="translate(-267.294 -259.696)" fill="#444b55"/>
            <path id="패스_85299" data-name="패스 85299" d="M503.705,489.732a2.06,2.06,0,1,1-2.06-2.06,2.06,2.06,0,0,1,2.06,2.06" transform="translate(-264.325 -258.022)" fill="#525a65"/>
            <path id="패스_85300" data-name="패스 85300" d="M704.072,459.727a.706.706,0,0,1-.7-.671,19.107,19.107,0,0,1,5.578-13.771c4.63-4.41,11.71-6.177,21.04-5.251a.706.706,0,1,1-.139,1.406c-8.9-.883-15.607.754-19.926,4.868-5.45,5.189-5.144,12.6-5.141,12.678a.706.706,0,0,1-.67.741h-.036" transform="translate(-372.139 -232.69)" fill="#444b55"/>
            <path id="패스_85301" data-name="패스 85301" d="M704.077,288.286a.706.706,0,0,1-.705-.678c-.008-.2-.559-19.565,18.889-23.232a.706.706,0,0,1,.262,1.388c-18.236,3.439-17.768,21.04-17.739,21.788a.707.707,0,0,1-.678.734h-.028" transform="translate(-372.144 -139.872)" fill="#444b55"/>
            <path id="패스_85302" data-name="패스 85302" d="M756.633,440.105a2.06,2.06,0,1,0,2.06-2.06,2.06,2.06,0,0,0-2.06,2.06" transform="translate(-400.326 -231.765)" fill="#525a65"/>
            <path id="패스_85303" data-name="패스 85303" d="M741.837,263.194a2.06,2.06,0,1,0,2.06-2.06,2.06,2.06,0,0,0-2.06,2.06" transform="translate(-392.497 -138.163)" fill="#525a65"/>
            <path id="패스_85304" data-name="패스 85304" d="M542.141,204.444a2.06,2.06,0,1,0,2.06-2.06,2.06,2.06,0,0,0-2.06,2.06" transform="translate(-286.841 -107.079)" fill="#525a65"/>
            <path id="패스_85305" data-name="패스 85305" d="M339.03,277.643H339a.707.707,0,0,1-.678-.734c.029-.747.5-18.349-17.739-21.788a.706.706,0,1,1,.261-1.388c19.449,3.667,18.9,23.037,18.89,23.232a.706.706,0,0,1-.705.678" transform="translate(-169.313 -134.241)" fill="#444b55"/>
            <path id="패스_85306" data-name="패스 85306" d="M318.807,252.551a2.06,2.06,0,1,1-2.06-2.06,2.06,2.06,0,0,1,2.06,2.06" transform="translate(-166.497 -132.532)" fill="#525a65"/>
            <path id="패스_85307" data-name="패스 85307" d="M536.1,235.013a.707.707,0,0,1-.7-.642c-.066-.716-1.549-17.643,4.03-26.054a.706.706,0,1,1,1.177.781c-5.3,8-3.816,24.973-3.8,25.144a.707.707,0,0,1-.639.768l-.065,0" transform="translate(-283.151 -110.051)" fill="#444b55"/>
            <path id="패스_85308" data-name="패스 85308" d="M520.119,513.216l.266,7.536,2.939,1.357,3.13-1.357,2.087-7.016Z" transform="translate(-275.189 -271.536)" fill="#ffb3b1"/>
            <path id="패스_85309" data-name="패스 85309" d="M529.684,491.084V497.9a3.008,3.008,0,0,1-.231,1.155l-1.606,3.29a3.3,3.3,0,0,1-5.753.623l-2.585-3.129a3,3,0,0,1-.543-1.722v-2.658a3,3,0,0,1,.5-1.665l3.018-4.527a3,3,0,0,1,2.769-1.324l1.7.154a3,3,0,0,1,2.73,2.989" transform="translate(-274.579 -258.157)" fill="#ffb3b1"/>
            <path id="패스_85310" data-name="패스 85310" d="M518.805,498.248c0,1.078-.582,1.952-1.3,1.952s-1.3-.874-1.3-1.952.583-1.952,1.3-1.952,1.3.874,1.3,1.952" transform="translate(-273.117 -262.584)" fill="#ffb3b1"/>
            <path id="패스_85311" data-name="패스 85311" d="M528.028,491.625l1.978-5.243s1.925-5.288-3.222-6.135-6.276,1.975-6.276,1.975-5.729-.706-4.5,6.486l.6,1.551Z" transform="translate(-272.922 -254.01)" fill="#29292d"/>
            <path id="패스_85312" data-name="패스 85312" d="M529.984,497.9s-.084,8.362-4.734,8.8c0,0-7.008,1.224-7.781-7.272l9.67-2.01Z" transform="translate(-273.787 -263.178)" fill="#29292d"/>
            <path id="패스_85313" data-name="패스 85313" d="M638.891,506.2l-.249.3c.142-1.152-.37-1.03-.37-1.03l-.552.66c.105-1.059-.379-.946-.379-.946l-2.485,2.972-1.32,4.686,1.754,1.868,2.429-2.466s1.193-2.043,1.683-3.15c.469-1.059-.156-1.153-.32-1.16a2.66,2.66,0,0,0,.165-.57c.2-1.308-.357-1.161-.357-1.161" transform="translate(-335.197 -267.286)" fill="#fb9e9c"/>
            <path id="패스_85314" data-name="패스 85314" d="M536.094,518.762,525.8,533.971l-15.656-10.288c-13.616-5.152-34.5-1.827-41.477-.486a4.584,4.584,0,0,0-3.321,2.632L452.846,553.78a5.566,5.566,0,0,0,1.571,6.592l18.156,14.752,2.684-15.656-1.238-19.815,33,3.263,19.828,4.957a4.606,4.606,0,0,0,5.146-2.237l12.153-21.955c-.894-2.684-8.052-4.921-8.052-4.921" transform="translate(-239.339 -274.471)" fill="#666"/>
            <rect id="사각형_28727" data-name="사각형 28727" width="47.864" height="4.921" transform="translate(222.864 317.652)" fill="#525a65"/>
            <path id="패스_85315" data-name="패스 85315" d="M472.643,730.537H472.6a.707.707,0,0,1-.664-.747l2.684-45.627a.706.706,0,1,1,1.41.083l-2.684,45.627a.706.706,0,0,1-.7.665" transform="translate(-249.696 -361.631)" fill="#444b55"/>
            <path id="패스_85316" data-name="패스 85316" d="M571.267,730.537a.706.706,0,0,1-.7-.665l-2.684-45.627a.706.706,0,0,1,.663-.747.715.715,0,0,1,.747.664l2.684,45.627a.707.707,0,0,1-.664.747h-.042" transform="translate(-300.457 -361.631)" fill="#444b55"/>
            <path id="패스_85317" data-name="패스 85317" d="M517.346,605.077H470.613L467.243,547a3.561,3.561,0,0,1,3.555-3.758h46.414a3.561,3.561,0,0,1,3.558,3.709Z" transform="translate(-247.21 -287.424)" fill="#525a65"/>
            <path id="패스_85318" data-name="패스 85318" d="M496.234,685l2.237,24.206h8.2L509.347,685Z" transform="translate(-262.552 -362.424)" fill="#303030"/>
            <path id="패스_85319" data-name="패스 85319" d="M585.842,739.232v4.175s9.692,1.044,12.227,0c0,0,1.342-2.684-4.473-3.728l-1.976-.447s-3.84,1.938-5.778,0" transform="translate(-309.962 -391.119)" fill="#2a3535"/>
            <rect id="사각형_28728" data-name="사각형 28728" width="4.921" height="2.628" transform="translate(237.764 346.779)" fill="#bec5c5"/>
            <path id="패스_85320" data-name="패스 85320" d="M504.4,740.437a5.343,5.343,0,0,0,4.921,0A12.674,12.674,0,0,1,510,744a.643.643,0,0,1-.359.6,6.657,6.657,0,0,1-5.364.024.651.651,0,0,1-.312-.6,16.776,16.776,0,0,1,.443-3.582" transform="translate(-266.64 -391.757)" fill="#2a3535"/>
            <path id="패스_85321" data-name="패스 85321" d="M504.624,748.6l.136.931a11.726,11.726,0,0,0,5.111,0V748.3Z" transform="translate(-266.991 -395.919)" fill="#2a3535"/>
            <path id="패스_85322" data-name="패스 85322" d="M821.536,468.34l-2.4-5.051s2.477-7.251-3.105-10.607-10.567,3.853-9.578,10.263,6.439,4.074,6.439,4.074l3.257,6.043Z" transform="translate(-426.617 -239.058)" fill="#f99c9a"/>
            <path id="패스_85323" data-name="패스 85323" d="M863.245,483.395a3.352,3.352,0,0,1,3.541,1.287c1.411,1.567,9.243,15.032,12.316,20.35a4.2,4.2,0,0,1-.039,4.268l-5.8,9.641-10.016-22.083Z" transform="translate(-456.733 -255.7)" fill="#5a493e"/>
            <path id="패스_85324" data-name="패스 85324" d="M516.2,523.025l1.844-1.938,7.474,0,1.855,1.936Z" transform="translate(-273.117 -275.701)" fill="#666"/>
            <path id="패스_85325" data-name="패스 85325" d="M751.849,681.592a.633.633,0,0,1-.072,0,.706.706,0,0,1-.631-.774l4.519-44.588a.706.706,0,1,1,1.405.143l-4.519,44.588a.706.706,0,0,1-.7.635" transform="translate(-397.421 -336.284)" fill="#444b55"/>
            <path id="패스_85326" data-name="패스 85326" d="M793.6,540.127,791.657,494.5l12.754-5.945,11.541-4.8,9.416-.241c3.647,5.6,1.344,34.4.732,56.608l-30.7,14.155Z" transform="translate(-418.857 -255.824)" fill="#29292d"/>
            <path id="패스_85327" data-name="패스 85327" d="M722.946,469.658l8.2,22.008,14.016-5.877-7.754-23.172Z" transform="translate(-382.503 -244.766)" fill="#d3d3da"/>
            <path id="패스_85328" data-name="패스 85328" d="M730.705,499.2v-2.461s2.162-3.206.969-2.907-2.236,2.237-2.236,2.237v3.8Z" transform="translate(-385.937 -261.271)" fill="#f99c9a"/>
            <path id="패스_85329" data-name="패스 85329" d="M721.611,498.584l-.74-2.833-1.6-2.169a1.288,1.288,0,0,1-.2-1.129l1.216-4.12,2.35-1.111,1.684,4.322v4.693Z" transform="translate(-380.427 -257.783)" fill="#f99c9a"/>
            <path id="패스_85330" data-name="패스 85330" d="M815.988,456s.774-1.308,1.57-.235-1.222,2.825-1.222,2.825l1.854,2.039s3.334-1.928,2.974-5.433-2.263-8.935-9.077-8.354-7.545,6.346-7.545,6.346-.058,4.051,4.14,1.6,5.027-.325,5.027-.325l.645,3.2.85-.016Z" transform="translate(-425.674 -236.394)" fill="#36323f"/>
            <path id="패스_85331" data-name="패스 85331" d="M753.628,504.66l-14.716,11.81-12.87-13.748s-5.964,1.789-6.263,4.921l15.462,20.522a4.588,4.588,0,0,0,5.492,1.448l14.425-6.265s7.415-13.3-1.531-18.686" transform="translate(-380.827 -265.984)" fill="#5a493e"/>
            <path id="패스_85332" data-name="패스 85332" d="M818.741,487.023l1.336-2.554s5.043-1.314,7.5-3.846l4.921,2.924s-8.015,5.434-13.761,3.476" transform="translate(-433.186 -254.292)" fill="#7a6356"/>
            <path id="패스_85333" data-name="패스 85333" d="M259.926,698.584a.706.706,0,0,1-.7-.671l-2.355-47.219a.706.706,0,1,1,1.411-.071l2.356,47.219a.706.706,0,0,1-.671.741h-.036" transform="translate(-135.904 -343.882)" fill="#444b55"/>
            <path id="패스_85334" data-name="패스 85334" d="M273.26,496.969l-22.888,12.422,15.574,9.107,22.222-13.023Z" transform="translate(-132.469 -262.94)" fill="#b7d6e5"/>
            <path id="패스_85335" data-name="패스 85335" d="M273.26,506.432l-22.888,12.422,15.574,9.107,22.222-13.023Z" transform="translate(-132.469 -267.947)" fill="#c9e4f4"/>
            <path id="패스_85336" data-name="패스 85336" d="M173.8,676.4l-.056,0a.707.707,0,0,1-.649-.76l3.7-47.219a.707.707,0,1,1,1.409.11l-3.7,47.219a.706.706,0,0,1-.7.651" transform="translate(-91.583 -332.144)" fill="#444b55"/>
            <path id="패스_85337" data-name="패스 85337" d="M218.828,472.429l1.3-3.121s5.412-10.056,14.95-5.894a18.862,18.862,0,0,1-2.785,9.454,2.383,2.383,0,0,1-2.858.93c-.864-.359-1.81-.231-1.763,2.1l-4.856,3.9-4.6-3.554Z" transform="translate(-115.458 -244.653)" fill="#fbb0ae"/>
            <path id="패스_85338" data-name="패스 85338" d="M227.085,461.351a1.144,1.144,0,0,1,1.2.368,2.155,2.155,0,0,1,.469,1.222c.04.391.215.944.593.835a3.718,3.718,0,0,1,1.237-2.453,2.943,2.943,0,0,1,1.1-.4c.941-.179,1.915-.175,2.837-.434a2.83,2.83,0,0,0,2.08-1.791,1.039,1.039,0,0,0-.056-.785c-.095-.163-1.051-2.135-1.2-2.244-2.24-1.58-3.306-2.8-6.034-3.055a8.449,8.449,0,0,0-5,.692c-2.239,1.279-3.275,5.15-3.715,7.691-.194,1.12-.3,2.409.453,3.257.264.3-.162.86.744,1.449a2.453,2.453,0,0,0,2.718.389,3.7,3.7,0,0,0,1.768-2.351c.2-.753-.118-2.051.82-2.391" transform="translate(-116.632 -239.429)" fill="#513d4f"/>
            <path id="패스_85339" data-name="패스 85339" d="M301.2,681.592a.706.706,0,0,1-.7-.635l-4.519-44.588a.706.706,0,1,1,1.405-.143l4.519,44.588a.705.705,0,0,1-.631.774.617.617,0,0,1-.072,0" transform="translate(-156.596 -336.284)" fill="#444b55"/>
            <path id="패스_85340" data-name="패스 85340" d="M226.986,541.617l-.417-42.979a3.4,3.4,0,0,0-1.545-2.818l-8.855-5.775-13.761-3.476-8.311-.235.383,55.282Z" transform="translate(-102.695 -257.314)" fill="#2a3535"/>
            <path id="패스_85341" data-name="패스 85341" d="M189.407,486.335s-3.745,1.033-4.043,4.673,0,13.207,0,13.207l6.846.525-.732-15.048Z" transform="translate(-98.004 -257.314)" fill="#2a3535"/>
            <path id="패스_85342" data-name="패스 85342" d="M280.319,625.9l-.031,5.271-19.377,8.322-.313-6.679Z" transform="translate(-137.88 -331.155)" fill="#525a65"/>
            <path id="패스_85343" data-name="패스 85343" d="M217.478,627.5l-38.362-11.644L179.1,622l38.692,12.174Z" transform="translate(-94.759 -325.842)" fill="#525a65"/>
            <path id="패스_85344" data-name="패스 85344" d="M225.508,487.67l-1.336-2.554s-6.311-.739-8.772-3.271l-3.653,2.349s8.015,5.434,13.761,3.476" transform="translate(-112.033 -254.939)" fill="#2a3535"/>
            <path id="패스_85345" data-name="패스 85345" d="M757.235,625.9l.031,5.271,19.377,8.322.313-6.679Z" transform="translate(-400.644 -331.155)" fill="#525a65"/>
            <path id="패스_85346" data-name="패스 85346" d="M840.9,508.618l-33.961,4.635a4.912,4.912,0,0,0-4.235,4.5l-3.944,52.992-.313,6.679,38.3-6.7,7.28-59.026a2.772,2.772,0,0,0-3.126-3.086" transform="translate(-422.449 -269.09)" fill="#525a65"/>
            <path id="패스_85347" data-name="패스 85347" d="M798.76,633.379l38.774-6.41-.789,6.393-38.3,6.7Z" transform="translate(-422.449 -331.722)" fill="#525a65"/>
            <path id="패스_85348" data-name="패스 85348" d="M757.145,254.75l-22.888,12.422,15.573,9.107,22.222-13.023Z" transform="translate(-388.487 -134.785)" fill="#b7d6e5"/>
            <path id="패스_85349" data-name="패스 85349" d="M757.145,262.639l-22.888,12.422,15.573,9.107,22.222-13.024Z" transform="translate(-388.487 -138.959)" fill="#c9e4f4"/>
            <path id="패스_85350" data-name="패스 85350" d="M803.948,281.217l-22.888,12.422,15.574,9.107,22.222-13.024Z" transform="translate(-413.249 -148.789)" fill="#c9e4f4"/>
            <path id="패스_85351" data-name="패스 85351" d="M785.294,240.708,781.059,253.6v3.37l1.981-2.778,4.03-12.978Z" transform="translate(-413.249 -127.356)" fill="#2a3535"/>
            <path id="패스_85352" data-name="패스 85352" d="M783.358,253.077s-2.594.641-2.321,3.01,1.275,2.55,1.275,2.55.729.137.273-1.5l.016-1.753.333-1.011" transform="translate(-413.227 -133.9)" fill="#f99c9a"/>
            <path id="패스_85353" data-name="패스 85353" d="M787.119,253.835l1.6.734,1.759-.367,1.229,3.441-2.3,1.3-3.851-.1-1.021-.154s-.26-.735.321-.718l.837-.1.478-.666a1.312,1.312,0,0,0,.478-1.2l-.118-.3Z" transform="translate(-415.062 -134.301)" fill="#f99c9a"/>
            <path id="패스_85354" data-name="패스 85354" d="M844.94,191.372A109.756,109.756,0,0,0,826.7,214.7l4.008,9.107c5.968-3.07,11.123-8.534,15.243-17.045Z" transform="translate(-437.398 -101.253)" fill="#5783c2"/>
            <path id="패스_85355" data-name="패스 85355" d="M869.3,197.752l3.3-5.3,7.691-3.042,6.92,6.59c-5.193,6.029-8.018,37.578-8.018,37.578-7.013-.265-13.126-2.584-17.424-9.042l1.727-35.283,4.709-1.884,1.864,4.671Z" transform="translate(-455.95 -99.136)" fill="#2264b3"/>
            <path id="패스_85356" data-name="패스 85356" d="M829.075,285.742l.436-.107c-1.272-.442-.883-.912-.883-.912l.97-.238c-1.158-.431-.792-.878-.792-.878l4.367-1.069,5.555,1.02,1.05,2.783-3.811,1.27s-2.737.2-4.142.143c-1.343-.053-1.122-.753-1.045-.926a3.086,3.086,0,0,1-.678-.119c-1.466-.456-1.027-.965-1.027-.965" transform="translate(-438.388 -149.487)" fill="#fb9e9c"/>
            <path id="패스_85357" data-name="패스 85357" d="M797.22,247.36,811.1,240.9l2.064,4.69L798.45,250.8Z" transform="translate(-421.8 -127.458)" fill="#f99c9a"/>
            <path id="패스_85358" data-name="패스 85358" d="M850.139,270.559l15.835-7.747,5.086-4.842,3.463,5.611-3.392,3.638-19.943,6.124Z" transform="translate(-449.799 -136.488)" fill="#fb9e9c"/>
            <path id="패스_85359" data-name="패스 85359" d="M898.847,205.7s-10.255,10.071-15.082,29.457l9.183,8.594s10.5-30.071,5.9-38.051" transform="translate(-467.59 -108.833)" fill="#5783c2"/>
            <path id="패스_85360" data-name="패스 85360" d="M875.432,182.061l2.293-.751.768-3.976,6.122,1.491.656,3.689,2.248,1.587-7.692,3.042-3.3,5.3.765-5.71Z" transform="translate(-463.181 -93.826)" fill="#f99c9a"/>
            <path id="패스_85361" data-name="패스 85361" d="M885.584,162.626s2.894-7.414-2.688-10.769-10.567,3.853-9.577,10.263,6.45,5.1,6.45,5.1a7.572,7.572,0,0,0,5.816-4.591" transform="translate(-461.996 -79.895)" fill="#fbb0ae"/>
            <path id="패스_85362" data-name="패스 85362" d="M871.563,155.633a3.365,3.365,0,0,0,.243,1.668,2.636,2.636,0,0,0,2.232,1.348,5.2,5.2,0,0,0,2.617-.67,5.02,5.02,0,0,1,1.489-.609,2.658,2.658,0,0,1,2.57,1.488,6.145,6.145,0,0,1,.55,3.079,17.041,17.041,0,0,0,.035,3.158,7.539,7.539,0,0,0,2.383,4.167,6.247,6.247,0,0,0,4.013,1.872,3.545,3.545,0,0,0,3.5-2.333c.4-1.433-.368-2.926-1.256-4.121a1.325,1.325,0,0,1-.364-.837,1.185,1.185,0,0,1,.207-.514c.673-1.1,1.621-2.345,1.11-3.527-.209-.483-.64-.848-.823-1.341-.375-1.015.414-2.075.508-3.154a4.078,4.078,0,0,0-1.335-2.984c-2.761-2.954-7.027-4.109-11.069-4a8.324,8.324,0,0,0-2.9.492c-2.45.988-3.577,4.394-3.716,6.816" transform="translate(-461.128 -78.473)"/>
            <path id="패스_85363" data-name="패스 85363" d="M285.962,518.585l1.341-1,1.611-.972s.814-.976-1.212-2.346c0,0-1.994-1.966-3.26-1.444s-1.207,1.212-1.542,2.3a7.246,7.246,0,0,1-.882,1.863l3.244,1.742Z" transform="translate(-149.213 -271.281)" fill="#fb9e9c"/>
            <path id="패스_85364" data-name="패스 85364" d="M287.432,511.606l2.55-2.044.594.672-2.47,2.084s-.814.086-.673-.712" transform="translate(-152.068 -269.603)" fill="#1d334c"/>
            <path id="패스_85365" data-name="패스 85365" d="M292.629,507.451c-.186-.22-.433-.316-.551-.216-.006,0-.006.013-.011.019l0,0-2.961,2.374c-.163.928.782.827.782.827l2.869-2.421h0c.116-.1.062-.359-.123-.577" transform="translate(-152.95 -268.351)" fill="#162b4a"/>
            <path id="패스_85366" data-name="패스 85366" d="M235.883,458.035s3.881,3.22,4.582,0c0,0,3.1-5.945-6.605-7.183,0,0-6.758-1.469-8.064,2.692Z" transform="translate(-119.466 -238.407)" fill="#513d4f"/>
            <path id="패스_85367" data-name="패스 85367" d="M257.051,510.054l3.72,9.982,5.19-5.38a5.434,5.434,0,0,1,4.7,4.438l-10.086,21.064S252.1,544.956,252.1,528" transform="translate(-133.382 -269.864)" fill="#2a3535"/>
            <path id="패스_85368" data-name="패스 85368" d="M176.353,554.053l-2.474-51.838a3.021,3.021,0,0,1,4-3l33.86,11.609a5.275,5.275,0,0,1,3.564,5.052l-.585,49.822Z" transform="translate(-91.995 -264.04)" fill="#525a65"/>
            <path id="패스_85369" data-name="패스 85369" d="M912.281,386.387a.706.706,0,0,1-.7-.651l-3.7-47.219a.707.707,0,0,1,1.409-.111l3.7,47.219a.707.707,0,0,1-.649.76l-.056,0" transform="translate(-480.348 -178.703)" fill="#444b55"/>
            <path id="패스_85370" data-name="패스 85370" d="M285.362,211.356H269.542a11.18,11.18,0,0,1,0-22.361h15.819a11.18,11.18,0,1,1,0,22.361" transform="translate(-136.696 -99.995)" fill="#3c7cff"/>
            <path id="패스_85371" data-name="패스 85371" d="M281.366,212.527a1.177,1.177,0,0,1-1.177-1.177v-1.03a1.177,1.177,0,1,1,2.355,0v1.03a1.177,1.177,0,0,1-1.177,1.177" transform="translate(-148.245 -110.655)" fill="#fff"/>
            <path id="패스_85372" data-name="패스 85372" d="M292.174,212.384A1.177,1.177,0,0,1,291,211.207v-3.348a1.177,1.177,0,1,1,2.355,0v3.348a1.177,1.177,0,0,1-1.177,1.177" transform="translate(-153.963 -109.353)" fill="#fff"/>
            <path id="패스_85373" data-name="패스 85373" d="M302.982,212.286a1.177,1.177,0,0,1-1.177-1.177v-4.945a1.177,1.177,0,1,1,2.355,0v4.945a1.177,1.177,0,0,1-1.177,1.177" transform="translate(-159.682 -108.456)" fill="#fff"/>
            <path id="패스_85374" data-name="패스 85374" d="M313.789,212.558a1.177,1.177,0,0,1-1.177-1.177v-.541a1.177,1.177,0,1,1,2.355,0v.541a1.177,1.177,0,0,1-1.177,1.177" transform="translate(-165.399 -110.93)" fill="#fff"/>
            <g id="그룹_27401" data-name="그룹 27401" transform="translate(-41.241 -5.901)">
              <path id="패스_85375" data-name="패스 85375" d="M845.235,412.166H829.415a11.18,11.18,0,1,1,0-22.361h15.819a11.18,11.18,0,0,1,0,22.361" transform="translate(-432.919 -206.241)" fill="#3c7cff"/>
              <path id="패스_85376" data-name="패스 85376" d="M841.239,413.337a1.177,1.177,0,0,1-1.177-1.177v-1.03a1.177,1.177,0,0,1,2.355,0v1.03a1.177,1.177,0,0,1-1.177,1.177" transform="translate(-444.468 -216.901)" fill="#fff"/>
              <path id="패스_85377" data-name="패스 85377" d="M852.047,413.194a1.177,1.177,0,0,1-1.177-1.177v-3.348a1.177,1.177,0,1,1,2.354,0v3.348a1.177,1.177,0,0,1-1.177,1.177" transform="translate(-450.186 -215.599)" fill="#fff"/>
              <path id="패스_85378" data-name="패스 85378" d="M862.855,413.1a1.177,1.177,0,0,1-1.177-1.177v-4.945a1.177,1.177,0,1,1,2.355,0v4.945a1.177,1.177,0,0,1-1.177,1.177" transform="translate(-455.904 -214.703)" fill="#fff"/>
              <path id="패스_85379" data-name="패스 85379" d="M873.663,413.368a1.177,1.177,0,0,1-1.177-1.177v-.541a1.177,1.177,0,1,1,2.355,0v.541a1.177,1.177,0,0,1-1.177,1.177" transform="translate(-461.623 -217.176)" fill="#fff"/>
            </g>
            <g id="그룹_27142" data-name="그룹 27142" transform="translate(123.506 36.303)" opacity="0">
              <path id="패스_85380" data-name="패스 85380" d="M109.137,38.288h0a19.144,19.144,0,1,1,19.144-19.144,19.144,19.144,0,0,1-19.144,19.144" transform="translate(-89.993)" fill="#1ee24c"/>
              <path id="패스_85381" data-name="패스 85381" d="M124.852,27.463l-6.891,6.891a.4.4,0,0,1-.559,0L114.7,31.648a2.732,2.732,0,1,0-3.864,3.864l4.917,4.917a2.732,2.732,0,0,0,3.864,0l1.932-1.932,7.171-7.171a2.732,2.732,0,0,0-3.864-3.864" transform="translate(-100.596 -14.107)" fill="#fff"/>
            </g>
            <path id="패스_85382" data-name="패스 85382" d="M745.087,366.559h0a19.144,19.144,0,1,1,19.144-19.144,19.145,19.145,0,0,1-19.144,19.144" transform="translate(-339.273 -151.746)" fill="#1ee24c" opacity="0"/>
            <path id="패스_85383" data-name="패스 85383" d="M760.8,355.734l-6.891,6.891a.4.4,0,0,1-.559,0l-2.705-2.706a2.732,2.732,0,1,0-3.864,3.864L751.7,368.7a2.732,2.732,0,0,0,3.864,0l1.932-1.932,7.171-7.171a2.732,2.732,0,0,0-3.864-3.864" transform="translate(-349.876 -165.853)" fill="#fff"/>
            <path id="패스_85384" data-name="패스 85384" d="M547.232,118.654h-.027c0,.027.006.048.006.075l-2.43,7.908c-2.351,5.591-4.73,11.314-6.3,13.152l-14.06,8.917-4.069-1,12.425-10.53s5.751-9.761,7.775-16.719c2.136-7.337,3.535-8.965,3.535-8.965s3.61.758,3.14,7.166" transform="translate(-275.315 -58.987)" fill="#fdb2b0"/>
            <path id="패스_85385" data-name="패스 85385" d="M491.25,212.888H451.564a.826.826,0,0,1-.826-.826v-1.792a.826.826,0,0,1,.826-.826H491.25a.826.826,0,0,1,.826.826v1.792a.827.827,0,0,1-.826.826" transform="translate(-238.48 -110.814)" fill="#525a65"/>
            <path id="패스_85386" data-name="패스 85386" d="M483.033,154.578h-34.84a1,1,0,0,0-.992,1.163l3.952,24.673h36.875l-4-24.991a1,1,0,0,0-.992-.845" transform="translate(-236.602 -81.785)" fill="#8d959e"/>
            <path id="패스_85387" data-name="패스 85387" d="M489.627,177.132a3.168,3.168,0,1,1-4.491-1.484,3.355,3.355,0,0,1,4.491,1.484" transform="translate(-255.896 -92.731)" fill="#afb6bc"/>
            <path id="패스_85388" data-name="패스 85388" d="M574.62,174.139H558.8a11.18,11.18,0,0,1,0-22.361H574.62a11.18,11.18,0,0,1,0,22.361" transform="translate(-289.739 -80.304)" fill="#525a65"/>
            <path id="패스_85389" data-name="패스 85389" d="M570.624,175.341a1.177,1.177,0,0,1-1.177-1.177v-.541a1.177,1.177,0,0,1,2.355,0v.541a1.177,1.177,0,0,1-1.177,1.177" transform="translate(-301.288 -91.239)" fill="#fff"/>
            <path id="패스_85390" data-name="패스 85390" d="M581.432,175.341a1.177,1.177,0,0,1-1.177-1.177v-.541a1.177,1.177,0,1,1,2.354,0v.541a1.177,1.177,0,0,1-1.177,1.177" transform="translate(-307.006 -91.239)" fill="#fff"/>
            <g id="그룹_27114" data-name="그룹 27114" transform="translate(278.338 81.207)" opacity="0.6">
              <g id="그룹_27113" data-name="그룹 27113">
                <g id="그룹_27112" data-name="그룹 27112" clip-path="url(#clip-path-3)">
                  <path id="패스_85391" data-name="패스 85391" d="M592.24,175.341a1.177,1.177,0,0,1-1.177-1.177v-.541a1.177,1.177,0,1,1,2.354,0v.541a1.177,1.177,0,0,1-1.177,1.177" transform="translate(-591.063 -172.446)" fill="#fff"/>
                </g>
              </g>
            </g>
            <g id="그룹_27117" data-name="그룹 27117" transform="translate(283.428 81.207)" opacity="0.5">
              <g id="그룹_27116" data-name="그룹 27116">
                <g id="그룹_27115" data-name="그룹 27115" clip-path="url(#clip-path-3)">
                  <path id="패스_85392" data-name="패스 85392" d="M603.047,175.341a1.177,1.177,0,0,1-1.177-1.177v-.541a1.177,1.177,0,0,1,2.355,0v.541a1.177,1.177,0,0,1-1.177,1.177" transform="translate(-601.87 -172.446)" fill="#fff"/>
                </g>
              </g>
            </g>
            <path id="패스_85393" data-name="패스 85393" d="M745.155,217.41H729.335a11.18,11.18,0,0,1,0-22.361h15.819a11.18,11.18,0,0,1,0,22.361" transform="translate(-379.968 -103.198)" fill="#525a65"/>
            <path id="패스_85394" data-name="패스 85394" d="M741.159,218.613a1.177,1.177,0,0,1-1.177-1.177V216.9a1.177,1.177,0,1,1,2.355,0v.541a1.177,1.177,0,0,1-1.177,1.177" transform="translate(-391.516 -114.134)" fill="#fff"/>
            <path id="패스_85395" data-name="패스 85395" d="M751.967,218.613a1.177,1.177,0,0,1-1.177-1.177V216.9a1.177,1.177,0,1,1,2.355,0v.541a1.177,1.177,0,0,1-1.177,1.177" transform="translate(-397.234 -114.134)" fill="#fff"/>
            <g id="그룹_27120" data-name="그룹 27120" transform="translate(358.645 101.584)" opacity="0.6">
              <g id="그룹_27119" data-name="그룹 27119">
                <g id="그룹_27118" data-name="그룹 27118" clip-path="url(#clip-path-5)">
                  <path id="패스_85396" data-name="패스 85396" d="M762.775,218.613a1.177,1.177,0,0,1-1.177-1.177V216.9a1.177,1.177,0,1,1,2.354,0v.541a1.177,1.177,0,0,1-1.177,1.177" transform="translate(-761.598 -215.717)" fill="#fff"/>
                </g>
              </g>
            </g>
            <g id="그룹_27123" data-name="그룹 27123" transform="translate(363.734 101.584)" opacity="0.5">
              <g id="그룹_27122" data-name="그룹 27122">
                <g id="그룹_27121" data-name="그룹 27121" clip-path="url(#clip-path-5)">
                  <path id="패스_85397" data-name="패스 85397" d="M773.582,218.613a1.177,1.177,0,0,1-1.177-1.177V216.9a1.177,1.177,0,0,1,2.355,0v.541a1.177,1.177,0,0,1-1.177,1.177" transform="translate(-772.405 -215.717)" fill="#fff"/>
                </g>
              </g>
            </g>
            <path id="패스_85398" data-name="패스 85398" d="M240.827,397.723H225.007a11.18,11.18,0,1,1,0-22.361h15.819a11.18,11.18,0,0,1,0,22.361" transform="translate(-113.133 -198.6)" fill="#525a65"/>
            <path id="패스_85399" data-name="패스 85399" d="M236.831,398.925a1.177,1.177,0,0,1-1.177-1.177v-.541a1.177,1.177,0,1,1,2.355,0v.541a1.177,1.177,0,0,1-1.177,1.177" transform="translate(-124.682 -209.535)" fill="#fff"/>
            <path id="패스_85400" data-name="패스 85400" d="M247.639,398.925a1.177,1.177,0,0,1-1.177-1.177v-.541a1.177,1.177,0,1,1,2.355,0v.541a1.177,1.177,0,0,1-1.177,1.177" transform="translate(-130.4 -209.535)" fill="#fff"/>
            <g id="그룹_27126" data-name="그룹 27126" transform="translate(121.151 186.495)" opacity="0.6">
              <g id="그룹_27125" data-name="그룹 27125">
                <g id="그룹_27124" data-name="그룹 27124" clip-path="url(#clip-path-3)">
                  <path id="패스_85401" data-name="패스 85401" d="M258.446,398.925a1.177,1.177,0,0,1-1.177-1.177v-.541a1.177,1.177,0,1,1,2.355,0v.541a1.177,1.177,0,0,1-1.177,1.177" transform="translate(-257.269 -396.03)" fill="#fff"/>
                </g>
              </g>
            </g>
            <g id="그룹_27129" data-name="그룹 27129" transform="translate(126.241 186.495)" opacity="0.5">
              <g id="그룹_27128" data-name="그룹 27128">
                <g id="그룹_27127" data-name="그룹 27127" clip-path="url(#clip-path-3)">
                  <path id="패스_85402" data-name="패스 85402" d="M269.254,398.925a1.177,1.177,0,0,1-1.177-1.177v-.541a1.177,1.177,0,1,1,2.355,0v.541a1.177,1.177,0,0,1-1.177,1.177" transform="translate(-268.077 -396.03)" fill="#fff"/>
                </g>
              </g>
            </g>
            <path id="패스_85403" data-name="패스 85403" d="M482.695,449.219H466.875a11.18,11.18,0,1,1,0-22.361h15.819a11.18,11.18,0,0,1,0,22.361" transform="translate(-241.103 -225.846)" fill="#525a65"/>
            <path id="패스_85404" data-name="패스 85404" d="M478.7,450.422a1.177,1.177,0,0,1-1.177-1.177V448.7a1.177,1.177,0,1,1,2.355,0v.541a1.177,1.177,0,0,1-1.177,1.177" transform="translate(-252.651 -236.781)" fill="#fff"/>
            <path id="패스_85405" data-name="패스 85405" d="M489.507,450.422a1.177,1.177,0,0,1-1.177-1.177V448.7a1.177,1.177,0,1,1,2.355,0v.541a1.177,1.177,0,0,1-1.177,1.177" transform="translate(-258.37 -236.781)" fill="#fff"/>
            <g id="그룹_27132" data-name="그룹 27132" transform="translate(235.05 210.745)" opacity="0.6">
              <g id="그룹_27131" data-name="그룹 27131">
                <g id="그룹_27130" data-name="그룹 27130" clip-path="url(#clip-path-5)">
                  <path id="패스_85406" data-name="패스 85406" d="M500.315,450.422a1.177,1.177,0,0,1-1.177-1.177V448.7a1.177,1.177,0,1,1,2.355,0v.541a1.177,1.177,0,0,1-1.177,1.177" transform="translate(-499.138 -447.526)" fill="#fff"/>
                </g>
              </g>
            </g>
            <g id="그룹_27135" data-name="그룹 27135" transform="translate(240.139 210.745)" opacity="0.5">
              <g id="그룹_27134" data-name="그룹 27134">
                <g id="그룹_27133" data-name="그룹 27133" clip-path="url(#clip-path-5)">
                  <path id="패스_85407" data-name="패스 85407" d="M511.122,450.422a1.177,1.177,0,0,1-1.177-1.177V448.7a1.177,1.177,0,1,1,2.354,0v.541a1.177,1.177,0,0,1-1.177,1.177" transform="translate(-509.945 -447.526)" fill="#fff"/>
                </g>
              </g>
            </g>
          </g>
        </g>
      </g>
    </g>
    <g id="그룹_27400" data-name="그룹 27400" transform="translate(11222.402 -5530.891)">
      <path id="패스_85447" data-name="패스 85447" d="M-12165.021,5544.192s32.609-89.739,142.238-89.739c200.316-5.651,164.32,225.347,164.32,225.347" transform="translate(1089.001 95.59)" fill="none" stroke="#335fff" stroke-width="2" stroke-dasharray="3 8"/>
      <g id="그룹_27398" data-name="그룹 27398" transform="translate(-10940.534 5530.891)">
        <path id="패스_85382-2" data-name="패스 85382" d="M744.993,366.371h0a19.05,19.05,0,1,1,19.05-19.05,19.05,19.05,0,0,1-19.05,19.05" transform="translate(-725.943 -328.271)" fill="#1ee24c"/>
        <path id="패스_85383-2" data-name="패스 85383" d="M760.73,355.73l-6.857,6.857a.393.393,0,0,1-.556,0l-2.692-2.693a2.719,2.719,0,0,0-3.845,3.845l4.893,4.893a2.719,2.719,0,0,0,3.845,0l1.923-1.922,7.135-7.135a2.719,2.719,0,1,0-3.845-3.845" transform="translate(-736.592 -342.439)" fill="#fff"/>
      </g>
    </g>
  </g>
</svg>
