<svg id="캡션_번역관련_목업" xmlns="http://www.w3.org/2000/svg" xmlns:xlink="http://www.w3.org/1999/xlink" width="664.447" height="563" viewBox="0 0 664.447 563">
  <defs>
    <filter id="Rectangle" x="319.617" y="128.492" width="250.851" height="323.263" filterUnits="userSpaceOnUse">
      <feOffset dx="1" dy="1" input="SourceAlpha"/>
      <feGaussianBlur stdDeviation="2" result="blur"/>
      <feFlood flood-color="#0b1222" flood-opacity="0.102"/>
      <feComposite operator="in" in2="blur"/>
      <feComposite in="SourceGraphic"/>
    </filter>
    <linearGradient id="linear-gradient" x1="0.962" y1="0.962" x2="0" y2="0.094" gradientUnits="objectBoundingBox">
      <stop offset="0" stop-color="#f9f9fd"/>
      <stop offset="1" stop-color="#f0f1f4"/>
    </linearGradient>
    <filter id="Rectangle-2" x="49.999" y="70" width="250" height="224" filterUnits="userSpaceOnUse">
      <feOffset dx="1" dy="2" input="SourceAlpha"/>
      <feGaussianBlur stdDeviation="2" result="blur-2"/>
      <feFlood flood-color="#0b1222" flood-opacity="0.102"/>
      <feComposite operator="in" in2="blur-2"/>
      <feComposite in="SourceGraphic"/>
    </filter>
  </defs>
  <g id="사각형_26801" data-name="사각형 26801" fill="none" stroke="#f4f6fa" stroke-width="10" opacity="0">
    <rect width="620" height="488" rx="20" stroke="none"/>
    <rect x="5" y="5" width="610" height="478" rx="15" fill="none"/>
  </g>
  <g id="그룹_24703" data-name="그룹 24703" transform="translate(324.617 84.857)">
    <text id="step02" transform="translate(119.22 24)" fill="#5a7eff" font-size="21" font-family="NotoSansKR-Bold, Noto Sans KR" font-weight="700" letter-spacing="-0.001em"><tspan x="-35.642" y="0">Step02</tspan></text>
    <path id="패스_77225" data-name="패스 77225" d="M-19879.621,290.982l21.064,50.783s4.953,4.747,4.215,15.495,0,221.582,0,221.582-5.635,27.407-22.855,27.407h-166.02s-24.9-22.033-30.17-61.441S-19879.621,290.982-19879.621,290.982Z" transform="translate(20119.098 -203.106)" fill="rgba(11,18,34,0.51)" opacity="0.3"/>
    <g transform="matrix(1, 0, 0, 1, -324.62, -84.86)" filter="url(#Rectangle)">
      <g id="Rectangle-3" data-name="Rectangle" transform="translate(324.62 133.49)" fill="#fff" stroke="#f0f1f4" stroke-width="1">
        <rect width="238.851" height="311.263" rx="20" stroke="none"/>
        <rect x="0.5" y="0.5" width="237.851" height="310.263" rx="19.5" fill="none"/>
      </g>
    </g>
    <g id="Frame" transform="translate(0 62.685)">
      <rect id="Frame-2" data-name="Frame" width="238.851" height="49.716" fill="#647899" opacity="0"/>
    </g>
    <text id="한국어" transform="translate(117.027 91.331)" fill="#6d7587" font-size="17" font-family="NotoSansCJKkr-Regular, Noto Sans CJK KR"><tspan x="-23.46" y="0">한국어</tspan></text>
    <g id="Frame-3" data-name="Frame" transform="translate(0 110.239)" fill="none" stroke="#e9ecef" stroke-width="1">
      <rect width="238.851" height="1.081" stroke="none"/>
      <rect x="0.5" y="0.5" width="237.851" height="0.081" fill="none"/>
    </g>
    <rect id="Frame-4" data-name="Frame" width="238.851" height="48.635" transform="translate(0 111.32)" fill="#647899" opacity="0"/>
    <text id="영어" transform="translate(118.674 141.047)" fill="#6d7587" font-size="17" font-family="NotoSansCJKkr-Regular, Noto Sans CJK KR"><tspan x="-15.64" y="0">영어</tspan></text>
    <g id="Frame-5" data-name="Frame" transform="translate(0 158.874)" fill="none" stroke="#e9ecef" stroke-width="1">
      <rect width="238.851" height="1.081" stroke="none"/>
      <rect x="0.5" y="0.5" width="237.851" height="0.081" fill="none"/>
    </g>
    <rect id="Frame-6" data-name="Frame" width="238.851" height="49.716" transform="translate(0 159.955)" fill="#647899" opacity="0"/>
    <text id="중국어" transform="translate(117.027 190.762)" fill="#6d7587" font-size="17" font-family="NotoSansCJKkr-Regular, Noto Sans CJK KR"><tspan x="-23.46" y="0">중국어</tspan></text>
    <g id="Frame-7" data-name="Frame" transform="translate(0 208.59)" fill="none" stroke="#e9ecef" stroke-width="1">
      <rect width="238.851" height="1.081" stroke="none"/>
      <rect x="0.5" y="0.5" width="237.851" height="0.081" fill="none"/>
    </g>
    <rect id="Frame-8" data-name="Frame" width="238.851" height="48.635" transform="translate(0 209.67)" fill="#647899" opacity="0"/>
    <text id="일본어" transform="translate(117.027 238.317)" fill="#6d7587" font-size="17" font-family="NotoSansCJKkr-Regular, Noto Sans CJK KR"><tspan x="-23.46" y="0">일본어</tspan></text>
    <g id="Frame-9" data-name="Frame" transform="translate(0 257.225)" fill="none" stroke="#e9ecef" stroke-width="1">
      <rect width="238.851" height="1.081" stroke="none"/>
      <rect x="0.5" y="0.5" width="237.851" height="0.081" fill="none"/>
    </g>
    <rect id="Frame-10" data-name="Frame" width="238.851" height="49.716" transform="translate(0 258.305)" fill="#647899" opacity="0"/>
    <text id="태국어" transform="translate(117.027 288.032)" fill="#6d7587" font-size="17" font-family="NotoSansCJKkr-Regular, Noto Sans CJK KR"><tspan x="-23.46" y="0">태국어</tspan></text>
    <g id="Frame-11" data-name="Frame" transform="translate(0 305.859)" fill="none" stroke="#e9ecef" stroke-width="1" opacity="0">
      <rect width="238.851" height="2.162" stroke="none"/>
      <rect x="0.5" y="0.5" width="237.851" height="1.162" fill="none"/>
    </g>
    <g id="장치선택_1" transform="translate(0 308.021)">
      <g id="Component_1_-_Big_button" data-name="Component 1 - Big button" transform="translate(0 0)">
        <rect id="Rectangle_DS" data-name="Rectangle DS" width="238.851" height="51.877" rx="20" fill="#f9f9fd" opacity="0.8"/>
        <rect id="Rectangle_WS" data-name="Rectangle WS" width="238.851" height="51.877" rx="20" fill="url(#linear-gradient)"/>
      </g>
      <text id="영어-2" data-name="영어" transform="translate(118.673 31.889)" fill="#575f6b" font-size="17" font-family="NotoSansCJKkr-Bold, Noto Sans CJK KR" font-weight="700"><tspan x="-15.64" y="0">영어</tspan></text>
    </g>
    <g id="그룹_4153" data-name="그룹 4153" transform="translate(43.231 344.767) rotate(180)">
      <rect id="Boundary" width="21.616" height="22.696" transform="translate(0 0)" fill="none"/>
      <path id="패스_1" data-name="패스 1" d="M0,0,5.455,5.455,0,10.91Z" transform="translate(16.248 8.501) rotate(90)" fill="#575f6b"/>
    </g>
  </g>
  <g id="그룹_24704" data-name="그룹 24704" transform="translate(54.646 27.849)">
    <text id="step01" transform="translate(119.353 24.151)" fill="#5a7eff" font-size="21" font-family="NotoSansKR-Bold, Noto Sans KR" font-weight="700" letter-spacing="-0.001em"><tspan x="-35.642" y="0">Step01</tspan></text>
    <path id="패스_77222" data-name="패스 77222" d="M-19886.686,290.982l20.3,35.331s4.768,3.3,4.055,10.78,0,154.161,0,154.161-5.422,19.068-22.023,19.068h-159.963s-24-15.329-29.068-42.746S-19886.686,290.982-19886.686,290.982Z" transform="translate(20116.719 -208.135)" fill="rgba(11,18,34,0.51)" opacity="0.3"/>
    <path id="패스_77224" data-name="패스 77224" d="M-19866.3,290.982l22.51,28.363s5.291,2.651,4.5,8.654,0,123.755,0,123.755a26.155,26.155,0,0,1-24.424,15.307h-177.42s-26.617-12.305-32.246-34.315S-19866.3,290.982-19866.3,290.982Z" transform="translate(20077.775 -220.275)" fill="rgba(11,18,34,0.51)" opacity="0.3"/>
    <g transform="matrix(1, 0, 0, 1, -54.65, -27.85)" filter="url(#Rectangle-2)">
      <g id="Rectangle-4" data-name="Rectangle" transform="translate(55 74)" fill="#fff" stroke="#f0f1f4" stroke-width="1">
        <rect width="238" height="212" rx="20" stroke="none"/>
        <rect x="0.5" y="0.5" width="237" height="211" rx="19.5" fill="none"/>
      </g>
    </g>
    <path id="Frame-12" data-name="Frame" d="M0,0H238.654V49.095H0Z" transform="translate(0 59.664)" fill="#f1f1f6" opacity="0"/>
    <text id="원문_번역문" data-name="원문 + 번역문" transform="translate(115.353 89.151)" fill="#6d7587" font-size="17" font-family="NotoSansCJKkr-Regular, Noto Sans CJK KR"><tspan x="-47.625" y="0">원문 + 번역문</tspan></text>
    <g id="Frame-13" data-name="Frame" transform="translate(0.353 107.151)" fill="none" stroke="#e9ecef" stroke-width="1">
      <rect width="238" height="1" stroke="none"/>
      <rect x="0.5" y="0.5" width="237" fill="none"/>
    </g>
    <rect id="Frame-14" data-name="Frame" width="238" height="50" transform="translate(0.353 108.151)" fill="#647899" opacity="0"/>
    <text id="번역문" transform="translate(117.353 138.151)" fill="#6d7587" font-size="17" font-family="NotoSansCJKkr-Regular, Noto Sans CJK KR"><tspan x="-23.46" y="0">번역문</tspan></text>
    <g id="Frame-15" data-name="Frame" transform="translate(0.353 157.151)" fill="none" stroke="#e9ecef" stroke-width="1">
      <rect width="238" height="1" stroke="none"/>
      <rect x="0.5" y="0.5" width="237" fill="none"/>
    </g>
    <rect id="Frame-16" data-name="Frame" width="238" height="49" transform="translate(0.353 158.151)" fill="#647899" opacity="0"/>
    <text id="꺼짐" transform="translate(117.353 187.151)" fill="#6d7587" font-size="17" font-family="NotoSansCJKkr-Regular, Noto Sans CJK KR"><tspan x="-15.64" y="0">꺼짐</tspan></text>
    <g id="Frame-17" data-name="Frame" transform="translate(0.353 206.151)" fill="none" stroke="#e9ecef" stroke-width="1" opacity="0">
      <rect width="238" height="1" stroke="none"/>
      <rect x="0.5" y="0.5" width="237" fill="none"/>
    </g>
    <g id="장치선택_1-2" data-name="장치선택_1" transform="translate(0 206.428)">
      <g id="Component_1_-_Big_button-2" data-name="Component 1 - Big button" transform="translate(0 0)">
        <rect id="Rectangle_DS-2" data-name="Rectangle DS" width="238" height="52" rx="20" transform="translate(0.353 -0.277)" fill="#f9f9fd" opacity="0.8"/>
        <rect id="Rectangle_WS-2" data-name="Rectangle WS" width="238" height="52" rx="20" transform="translate(0.353 -0.277)" fill="url(#linear-gradient)"/>
      </g>
      <text id="원문_번역문-2" data-name="원문 + 번역문" transform="translate(119.353 31.723)" fill="#575f6b" font-size="17" font-family="NotoSansCJKkr-Bold, Noto Sans CJK KR" font-weight="700"><tspan x="-47.966" y="0">원문 + 번역문</tspan></text>
    </g>
    <g id="그룹_24722" data-name="그룹 24722" transform="translate(43.231 243.715) rotate(180)">
      <rect id="Boundary-2" data-name="Boundary" width="21.616" height="22.696" transform="translate(0 0)" fill="none"/>
      <path id="패스_1-2" data-name="패스 1" d="M0,0,5.455,5.455,0,10.91Z" transform="translate(16.248 8.501) rotate(90)" fill="#575f6b"/>
    </g>
  </g>
</svg>
