<svg xmlns="http://www.w3.org/2000/svg" width="37.87" height="33.324" viewBox="0 0 37.87 33.324">
  <path id="패스_74053" data-name="패스 74053" d="M30,13.987a22.477,22.477,0,0,1,9.574,2.152,18.508,18.508,0,0,1,6.754,5.641,13.4,13.4,0,0,1,2.6,7.792,13.056,13.056,0,0,1-2.6,7.719,17.866,17.866,0,0,1-6.754,5.567A23.194,23.194,0,0,1,30,44.936,22.155,22.155,0,0,1,23.1,43.9a24.5,24.5,0,0,1-4.305,2.3,17.132,17.132,0,0,1-6.012,1.114A1.5,1.5,0,0,1,11.224,46.2a1.712,1.712,0,0,1,.3-1.929,13.579,13.579,0,0,0,1.335-1.633,17.618,17.618,0,0,0,2.153-3.859,13.592,13.592,0,0,1-3.934-9.352,13.386,13.386,0,0,1,2.6-7.793,17.873,17.873,0,0,1,6.754-5.566A23.187,23.187,0,0,1,30,13.987m0,28.574A18.618,18.618,0,0,0,41.653,38.7a11.613,11.613,0,0,0,4.825-9.2,11.616,11.616,0,0,0-4.825-9.2,18.945,18.945,0,0,0-11.726-3.859A18.833,18.833,0,0,0,18.274,20.3a11.834,11.834,0,0,0-4.9,9.2,11.494,11.494,0,0,0,3.266,7.719,2.42,2.42,0,0,1,.519,2.449v.074A16.8,16.8,0,0,1,15.6,42.709a19.57,19.57,0,0,1-1.485,2.153,17.242,17.242,0,0,0,4.453-1.114,20.416,20.416,0,0,0,3.192-1.781,2.408,2.408,0,0,1,2.078-.371,19.8,19.8,0,0,0,6.16.965m5.641-9.723A1.183,1.183,0,1,1,37.423,34.4a9.775,9.775,0,0,1-14.844,0,1.087,1.087,0,0,1,.149-1.633,1.12,1.12,0,0,1,1.632.074,7.423,7.423,0,0,0,11.282,0M25.251,27.717a1.781,1.781,0,1,1,1.781-1.781,1.772,1.772,0,0,1-1.781,1.781m9.5,0a1.781,1.781,0,1,1,1.781-1.781,1.772,1.772,0,0,1-1.781,1.781" transform="translate(-11.057 -13.987)" fill="#fff"/>
</svg>
