<svg id="icon_검색어삭제" xmlns="http://www.w3.org/2000/svg" xmlns:xlink="http://www.w3.org/1999/xlink" width="18" height="18" viewBox="0 0 18 18">
  <defs>
    <clipPath id="clip-path">
      <rect id="사각형_29105" data-name="사각형 29105" width="18" height="18" fill="none"/>
    </clipPath>
  </defs>
  <g id="그룹_27987" data-name="그룹 27987" clip-path="url(#clip-path)">
    <path id="패스_85637" data-name="패스 85637" d="M9,17a7.994,7.994,0,0,1-6.9-12.031A7.986,7.986,0,0,1,13.031,2.094a7.989,7.989,0,0,1,2.875,10.937A8.01,8.01,0,0,1,9,17M12.063,7,11,5.938l-.532.531L9,7.937,7.531,6.469,7,5.938,5.938,7l.531.531L7.938,9,6.469,10.469,5.938,11,7,12.062l.53-.531L9,10.063l1.469,1.468.532.531L12.063,11l-.532-.531L10.063,9l1.468-1.469Z" fill="#09122a"/>
  </g>
</svg>
