<svg xmlns="http://www.w3.org/2000/svg" xmlns:xlink="http://www.w3.org/1999/xlink" width="54" height="54" viewBox="0 0 54 54">
  <defs>
    <clipPath id="clip-path">
      <rect id="사각형_27026" data-name="사각형 27026" width="54" height="54" fill="none"/>
    </clipPath>
  </defs>
  <g id="그룹_23074" data-name="그룹 23074" clip-path="url(#clip-path)">
    <path id="패스_74303" data-name="패스 74303" d="M51.85,27.292l-2.288-6.759a1.6,1.6,0,0,0-2.023-1L42.25,21.325V17.374a6.444,6.444,0,0,0-6.436-6.436H9.68a6.444,6.444,0,0,0-6.436,6.436V40.6A6.443,6.443,0,0,0,9.68,47.039H35.814A6.443,6.443,0,0,0,42.25,40.6V32.227l8.6-2.913a1.6,1.6,0,0,0,1-2.023M39.059,40.6a3.248,3.248,0,0,1-3.245,3.245H9.68A3.248,3.248,0,0,1,6.435,40.6V17.374A3.249,3.249,0,0,1,9.68,14.129H35.814a3.249,3.249,0,0,1,3.245,3.245v5.033L22.542,28a1.609,1.609,0,0,0-.723.5l-4.259,5.206a1.6,1.6,0,0,0,.867,2.563l6.548,1.55a1.646,1.646,0,0,0,.368.043,1.589,1.589,0,0,0,.512-.084l13.2-4.471ZM25.265,34.61l-3.619-.857L24,30.876l23.051-7.808L48.316,26.8Z" transform="translate(-0.59 -1.989)" fill="#335fff"/>
  </g>
</svg>
