<svg id="icon_실시간자막" xmlns="http://www.w3.org/2000/svg" xmlns:xlink="http://www.w3.org/1999/xlink" width="54" height="54" viewBox="0 0 54 54">
  <defs>
    <clipPath id="clip-path">
      <rect id="사각형_26810" data-name="사각형 26810" width="54" height="54" fill="none"/>
    </clipPath>
  </defs>
  <g id="그룹_22626" data-name="그룹 22626" clip-path="url(#clip-path)">
    <path id="패스_74197" data-name="패스 74197" d="M28.812,49.4a1.6,1.6,0,0,1-1.382-.8L22.1,39.367H15.552a5.6,5.6,0,0,1-5.592-5.59V12.826a5.6,5.6,0,0,1,5.592-5.592H42.069a5.6,5.6,0,0,1,5.593,5.592V33.777a5.6,5.6,0,0,1-5.593,5.59H35.522L30.194,48.6a1.6,1.6,0,0,1-1.382.8M15.552,10.425a2.4,2.4,0,0,0-2.4,2.4V33.777a2.4,2.4,0,0,0,2.4,2.4h7.469a1.6,1.6,0,0,1,1.382.8l4.408,7.636,4.407-7.636a1.6,1.6,0,0,1,1.382-.8h7.468a2.4,2.4,0,0,0,2.4-2.4V12.826a2.4,2.4,0,0,0-2.4-2.4Z" transform="translate(-1.811 -1.315)" fill="#335fff"/>
    <path id="패스_74198" data-name="패스 74198" d="M28.491,33.282a2.575,2.575,0,0,1-1.294-.343,2.892,2.892,0,0,1-1.357-2.613V21.431a2.738,2.738,0,0,1,4.3-2.483l7.7,4.451a2.736,2.736,0,0,1,0,4.964l-7.7,4.446a3.31,3.31,0,0,1-1.649.473m.551-2.839h0Zm-.011-8.449v7.773l6.731-3.886Z" transform="translate(-4.698 -3.359)" fill="#335fff"/>
  </g>
</svg>
