<svg id="icon_최적의보안성" xmlns="http://www.w3.org/2000/svg" xmlns:xlink="http://www.w3.org/1999/xlink" width="54" height="54" viewBox="0 0 54 54">
  <defs>
    <clipPath id="clip-path">
      <rect id="사각형_27022" data-name="사각형 27022" width="54" height="54" fill="none"/>
    </clipPath>
  </defs>
  <g id="그룹_23069" data-name="그룹 23069" clip-path="url(#clip-path)">
    <path id="패스_74294" data-name="패스 74294" d="M45.629,13.347A20.691,20.691,0,0,1,34.482,10.1a1.6,1.6,0,0,0-1.7,2.7,24.245,24.245,0,0,0,11.248,3.683V34.011a15.3,15.3,0,0,1-1.968,6.519c-2.5,4.309-6.915,6.5-13.15,6.511-6.2-.011-10.608-2.2-13.111-6.513a15.28,15.28,0,0,1-1.968-6.484V16.484A24.251,24.251,0,0,0,25.087,12.8,25.8,25.8,0,0,0,27.363,11.2V27.671a1.6,1.6,0,0,0,3.191,0V7.515a1.6,1.6,0,0,0-2.434-1.358,1.613,1.613,0,0,0-.513.481A20.2,20.2,0,0,1,23.391,10.1a20.693,20.693,0,0,1-11.148,3.248,1.6,1.6,0,0,0-1.6,1.6V34.073a18.267,18.267,0,0,0,2.4,8.058c2.14,3.687,6.631,8.084,15.913,8.1,9.234-.016,13.724-4.414,15.865-8.1a18.259,18.259,0,0,0,2.4-8.088v-19.1a1.6,1.6,0,0,0-1.6-1.6" transform="translate(-1.936 -1.076)" fill="#335fff"/>
  </g>
</svg>
