<svg id="icon_경제적가격" xmlns="http://www.w3.org/2000/svg" xmlns:xlink="http://www.w3.org/1999/xlink" width="54" height="54" viewBox="0 0 54 54">
  <defs>
    <clipPath id="clip-path">
      <rect id="사각형_26811" data-name="사각형 26811" width="54" height="54" fill="none"/>
    </clipPath>
  </defs>
  <g id="그룹_22628" data-name="그룹 22628" clip-path="url(#clip-path)">
    <path id="패스_74199" data-name="패스 74199" d="M28.218,49.716a21.492,21.492,0,0,1,0-42.984,22.072,22.072,0,0,1,4.553.482,21.494,21.494,0,0,1-4.553,42.5m0-39.793a18.278,18.278,0,1,0,3.886.412,18.857,18.857,0,0,0-3.886-.412" transform="translate(-1.223 -1.224)" fill="#335fff"/>
    <path id="패스_74200" data-name="패스 74200" d="M32.918,32.563h-2.86a5.373,5.373,0,1,1,0-10.747h2.86a5.381,5.381,0,0,1,5.374,5.374,1.6,1.6,0,1,1-3.19,0,2.187,2.187,0,0,0-2.184-2.183h-2.86a2.183,2.183,0,1,0,0,4.365h2.86a1.6,1.6,0,0,1,0,3.191" transform="translate(-4.488 -3.967)" fill="#335fff"/>
    <path id="패스_74201" data-name="패스 74201" d="M32.918,41.8h-2.86a5.381,5.381,0,0,1-5.375-5.373,1.6,1.6,0,1,1,3.191,0,2.186,2.186,0,0,0,2.184,2.182h2.86a2.183,2.183,0,1,0,0-4.365h-2.86a1.6,1.6,0,1,1,0-3.191h2.86a5.373,5.373,0,1,1,0,10.747" transform="translate(-4.488 -5.646)" fill="#335fff"/>
    <path id="패스_74202" data-name="패스 74202" d="M32.644,22.107a1.6,1.6,0,0,1-1.6-1.6V18.4a1.6,1.6,0,1,1,3.191,0v2.107a1.6,1.6,0,0,1-1.6,1.6" transform="translate(-5.645 -3.056)" fill="#335fff"/>
    <path id="패스_74203" data-name="패스 74203" d="M32.644,48.016a1.6,1.6,0,0,1-1.6-1.6V44.312a1.6,1.6,0,1,1,3.191,0V46.42a1.6,1.6,0,0,1-1.6,1.6" transform="translate(-5.645 -7.767)" fill="#335fff"/>
  </g>
</svg>
