<svg id="icon_맞춤" xmlns="http://www.w3.org/2000/svg" xmlns:xlink="http://www.w3.org/1999/xlink" width="54" height="54" viewBox="0 0 54 54">
  <defs>
    <clipPath id="clip-path">
      <rect id="사각형_26812" data-name="사각형 26812" width="54" height="54" fill="none"/>
    </clipPath>
  </defs>
  <g id="그룹_22630" data-name="그룹 22630" clip-path="url(#clip-path)">
    <path id="패스_74204" data-name="패스 74204" d="M39.549,40.7a1.6,1.6,0,0,1-1.6-1.6A5.306,5.306,0,0,0,32.644,33.8a1.6,1.6,0,1,1,0-3.191,8.5,8.5,0,0,1,8.5,8.5,1.6,1.6,0,0,1-1.6,1.6" transform="translate(-5.645 -5.565)" fill="#335fff"/>
    <path id="패스_74205" data-name="패스 74205" d="M29.687,49.682a14.909,14.909,0,0,1-6.034-28.543V8.382a1.6,1.6,0,0,1,1.6-1.6h8.876a1.6,1.6,0,0,1,1.6,1.6V21.139a14.909,14.909,0,0,1-6.033,28.543m-2.843-39.7V22.22a1.6,1.6,0,0,1-1.064,1.5,11.719,11.719,0,1,0,7.813,0,1.6,1.6,0,0,1-1.064-1.5V9.978Z" transform="translate(-2.687 -1.234)" fill="#335fff"/>
  </g>
</svg>
