<svg id="icon_높은한국어" xmlns="http://www.w3.org/2000/svg" xmlns:xlink="http://www.w3.org/1999/xlink" width="54" height="54" viewBox="0 0 54 54">
  <defs>
    <clipPath id="clip-path">
      <rect id="사각형_26809" data-name="사각형 26809" width="54" height="54" fill="none"/>
    </clipPath>
  </defs>
  <g id="그룹_22624" data-name="그룹 22624" clip-path="url(#clip-path)">
    <path id="패스_74196" data-name="패스 74196" d="M46.5,16.605,41.572,8.172c-.007-.011-.017-.019-.024-.03a1.591,1.591,0,0,0-.231-.3c0-.006-.011-.009-.017-.015a1.567,1.567,0,0,0-.278-.211c-.029-.018-.06-.034-.091-.05a1.619,1.619,0,0,0-.261-.107c-.033-.011-.064-.023-.1-.031a1.6,1.6,0,0,0-.379-.05H17.969c-.034,0-.066.008-.1.011a1.451,1.451,0,0,0-1.083.524,1.557,1.557,0,0,0-.169.223c-.007.012-.018.021-.025.033l-4.929,8.433a1.6,1.6,0,0,0-.012,1.588l6.361,11.29a12.591,12.591,0,0,0-2.14,7.063,12.756,12.756,0,1,0,23.848-6.3l6.792-12.057a1.6,1.6,0,0,0-.013-1.588M29.972,23.868a12.624,12.624,0,0,0-1.345-.077c-.152,0-.313.009-.47.016l-2.706-4.8h7.261Zm4.538-8.053H23.653L20.7,10.573H37.464ZM17.944,12.182l6.875,12.2a12.6,12.6,0,0,0-4.574,2.564L14.88,17.424ZM28.627,46.111a9.575,9.575,0,0,1-9.565-9.565,9.569,9.569,0,0,1,8.38-9.483l.016,0a9.584,9.584,0,0,1,1.168-.08,9.733,9.733,0,0,1,1.884.188,9.564,9.564,0,0,1-1.884,18.942M37.611,27.49a12.62,12.62,0,0,0-4.417-2.844l7.024-12.464,3.063,5.242Z" transform="translate(-2.081 -1.342)" fill="#335fff"/>
  </g>
</svg>
