<svg id="icon_다화자음성분리" xmlns="http://www.w3.org/2000/svg" xmlns:xlink="http://www.w3.org/1999/xlink" width="54" height="54" viewBox="0 0 54 54">
  <defs>
    <clipPath id="clip-path">
      <rect id="사각형_27024" data-name="사각형 27024" width="54" height="54" fill="none"/>
    </clipPath>
  </defs>
  <g id="그룹_23072" data-name="그룹 23072" clip-path="url(#clip-path)">
    <path id="패스_74296" data-name="패스 74296" d="M38.059,42.612h0l-2.979,0L35.05,16.1l2.979,0a1.6,1.6,0,0,0,0-3.191h0l-4.574,0a1.594,1.594,0,0,0-1.594,1.6l.031,29.7a1.6,1.6,0,0,0,1.595,1.593h0l4.574,0a1.6,1.6,0,0,0,0-3.191" transform="translate(-5.792 -2.347)" fill="#335fff"/>
    <path id="패스_74297" data-name="패스 74297" d="M47.922,37.259h0a5.476,5.476,0,0,0-.006-10.951h-.006a5.476,5.476,0,0,0,.007,10.951M46.3,30.17a2.271,2.271,0,0,1,1.615-.671h0a2.285,2.285,0,0,1,0,4.57h0a2.285,2.285,0,0,1-1.618-3.9" transform="translate(-7.717 -4.783)" fill="#335fff"/>
    <path id="패스_74298" data-name="패스 74298" d="M51.808,45.845a5.438,5.438,0,0,0-3.867-1.6h-.007a5.475,5.475,0,0,0,0,10.95h.008a5.476,5.476,0,0,0,3.862-9.352m-3.865,6.161h0a2.284,2.284,0,0,1,0-4.568h0a2.284,2.284,0,0,1,0,4.568" transform="translate(-7.721 -8.045)" fill="#335fff"/>
    <path id="패스_74299" data-name="패스 74299" d="M47.9,19.321h.006A5.476,5.476,0,0,0,47.9,8.37h-.006A5.476,5.476,0,0,0,47.9,19.321m0-7.76h0a2.285,2.285,0,0,1,0,4.57h0a2.285,2.285,0,0,1,0-4.57" transform="translate(-7.714 -1.522)" fill="#335fff"/>
    <path id="패스_74300" data-name="패스 74300" d="M20.965,25.416H11.746a1.6,1.6,0,0,0-1.6,1.6V36.23a1.6,1.6,0,0,0,1.6,1.6h9.218a1.6,1.6,0,0,0,1.6-1.6V27.011a1.6,1.6,0,0,0-1.6-1.6m-1.6,9.218H13.342V28.607h6.028Z" transform="translate(-1.846 -4.621)" fill="#335fff"/>
  </g>
</svg>
