<svg id="티키타미팅" xmlns="http://www.w3.org/2000/svg" xmlns:xlink="http://www.w3.org/1999/xlink" width="500" height="356" viewBox="0 0 500 356">
  <defs>
    <clipPath id="clip-path">
      <rect id="사각형_28706" data-name="사각형 28706" width="181.199" height="25.966" fill="#fff"/>
    </clipPath>
    <linearGradient id="linear-gradient" x1="0.5" x2="0.5" y2="1" gradientUnits="objectBoundingBox">
      <stop offset="0" stop-opacity="0"/>
      <stop offset="1"/>
    </linearGradient>
    <clipPath id="clip-path-2">
      <path id="패스_84996" data-name="패스 84996" d="M0,320.72,50.9,286.2l-9.42,34.519Z" transform="translate(0 -286.201)" fill="none"/>
    </clipPath>
    <linearGradient id="linear-gradient-2" x2="0.003" gradientUnits="objectBoundingBox">
      <stop offset="0" stop-color="#f20000"/>
      <stop offset="0.231" stop-color="#e00"/>
      <stop offset="0.443" stop-color="#e30101"/>
      <stop offset="0.648" stop-color="#d00404"/>
      <stop offset="0.846" stop-color="#b60707"/>
      <stop offset="1" stop-color="#9d0b0b"/>
    </linearGradient>
    <clipPath id="clip-path-3">
      <rect id="사각형_28710" data-name="사각형 28710" width="277.189" height="128.53" fill="none"/>
    </clipPath>
  </defs>
  <rect id="사각형_28477" data-name="사각형 28477" width="500" height="356" rx="12" fill="#052b54"/>
  <text id="화상_회의와_회의록_작성을_한번에_" data-name="화상 회의와 회의록 작성을 한번에 !" transform="translate(70.5 101.478)" fill="#fff" font-size="28" font-family="MalgunGothic, Malgun Gothic" letter-spacing="-0.05em"><tspan x="0" y="0">화상</tspan><tspan y="0" font-family="SegoeUI, Segoe UI"> </tspan><tspan y="0">회의와</tspan><tspan y="0" font-family="SegoeUI, Segoe UI"> </tspan><tspan y="0">회의록</tspan><tspan y="0" font-family="SegoeUI, Segoe UI"> </tspan><tspan y="0">작성을</tspan><tspan y="0" font-family="SegoeUI, Segoe UI"> </tspan><tspan y="0">한번에</tspan><tspan y="0" xml:space="preserve" font-family="SegoeUI, Segoe UI"> !</tspan></text>
  <g id="그룹_26588" data-name="그룹 26588" transform="translate(159 122.896)">
    <g id="그룹_27076" data-name="그룹 27076" transform="translate(0 0)" clip-path="url(#clip-path)">
      <path id="패스_84977" data-name="패스 84977" d="M215.288,3.887a1.866,1.866,0,1,0-1.865-1.865,1.865,1.865,0,0,0,1.865,1.865" transform="translate(-78.019 -0.057)" fill="#fff"/>
      <path id="패스_84978" data-name="패스 84978" d="M221.584,14.575a1.659,1.659,0,0,0-1.658,1.658v-.007a1.638,1.638,0,1,1-3.276,0V10.9h4.906a1.646,1.646,0,1,0,0-3.291h-4.93l-1.646-.019a1.646,1.646,0,0,0-1.646,1.646v6.986a4.954,4.954,0,0,0,9.908,0,1.658,1.658,0,0,0-1.658-1.656" transform="translate(-77.987 -2.776)" fill="#fff"/>
      <path id="패스_84979" data-name="패스 84979" d="M234.822.479a1.748,1.748,0,0,0-1.148-.416A1.7,1.7,0,0,0,232.5.521a1.5,1.5,0,0,0-.507,1.166,1.511,1.511,0,0,0,.494,1.209,1.758,1.758,0,0,0,1.191.428,1.691,1.691,0,0,0,1.16-.433,1.526,1.526,0,0,0,.488-1.2,1.48,1.48,0,0,0-.5-1.209" transform="translate(-84.807 -0.023)" fill="#fff"/>
      <path id="패스_84980" data-name="패스 84980" d="M233.637,7.646a1.538,1.538,0,0,0-1.19.5,2.138,2.138,0,0,0-.458,1.49v9.536a2.212,2.212,0,0,0,.458,1.5,1.5,1.5,0,0,0,1.19.525,1.579,1.579,0,0,0,1.209-.513,2.151,2.151,0,0,0,.476-1.514V9.539a1.937,1.937,0,0,0-.476-1.392,1.6,1.6,0,0,0-1.209-.5" transform="translate(-84.807 -2.795)" fill="#fff"/>
      <path id="패스_84981" data-name="패스 84981" d="M253.172,11.163a3.857,3.857,0,0,0-.428-1.318,3.647,3.647,0,0,0-1.551-1.624,4.789,4.789,0,0,0-2.356-.574,5.123,5.123,0,0,0-2.4.544,5.83,5.83,0,0,0-1.923,1.7v-.4a2.2,2.2,0,0,0-.214-1.013,1.494,1.494,0,0,0-.568-.623,1.547,1.547,0,0,0-.794-.207,1.437,1.437,0,0,0-1.136.47,2.1,2.1,0,0,0-.415,1.423v9.633a2.194,2.194,0,0,0,.464,1.5,1.51,1.51,0,0,0,1.184.525,1.584,1.584,0,0,0,1.215-.506,2.167,2.167,0,0,0,.47-1.521V15a10.434,10.434,0,0,1,.244-2.784,3.05,3.05,0,0,1,1.074-1.459,2.7,2.7,0,0,1,1.624-.531,1.865,1.865,0,0,1,1.825.873,5.555,5.555,0,0,1,.458,2.522v5.555a2.2,2.2,0,0,0,.464,1.5,1.537,1.537,0,0,0,1.209.525,1.52,1.52,0,0,0,1.19-.513,2.209,2.209,0,0,0,.458-1.514v-6.2a13.734,13.734,0,0,0-.1-1.807" transform="translate(-88.243 -2.795)" fill="#fff"/>
      <path id="패스_84982" data-name="패스 84982" d="M178.37,15.4h-6.439a4.37,4.37,0,0,0,.452,1.978,3.027,3.027,0,0,0,2.779,1.724,3.942,3.942,0,0,0,1.079-.139,3.5,3.5,0,0,0,.947-.434,7.175,7.175,0,0,0,.844-.633q.385-.337,1-.916a1.078,1.078,0,0,1,.724-.217,1.2,1.2,0,0,1,.82.277.994.994,0,0,1,.314.784,2.138,2.138,0,0,1-.35,1.043,4.144,4.144,0,0,1-1.055,1.146,6.015,6.015,0,0,1-1.773.91,7.637,7.637,0,0,1-2.454.362,6.566,6.566,0,0,1-4.931-1.809,6.736,6.736,0,0,1-1.761-4.908A8.169,8.169,0,0,1,169,11.86a5.974,5.974,0,0,1,1.266-2.141,5.481,5.481,0,0,1,2.05-1.368,7.364,7.364,0,0,1,2.7-.476,6.4,6.4,0,0,1,3.309.814,5.352,5.352,0,0,1,2.068,2.1,5.524,5.524,0,0,1,.687,2.628q0,1.242-.711,1.61a4.427,4.427,0,0,1-2,.368m-6.439-1.869H177.9A4,4,0,0,0,176.99,11a2.724,2.724,0,0,0-2.08-.838,2.635,2.635,0,0,0-2.02.85,4.224,4.224,0,0,0-.959,2.514" transform="translate(-61.622 -2.878)" fill="#fff"/>
      <path id="패스_84983" data-name="패스 84983" d="M200.679,15.4H194.24a4.369,4.369,0,0,0,.452,1.978,3.027,3.027,0,0,0,2.779,1.724,3.942,3.942,0,0,0,1.079-.139,3.5,3.5,0,0,0,.947-.434,7.17,7.17,0,0,0,.844-.633q.385-.337,1-.916a1.078,1.078,0,0,1,.724-.217,1.2,1.2,0,0,1,.82.277.994.994,0,0,1,.314.784,2.138,2.138,0,0,1-.35,1.043,4.144,4.144,0,0,1-1.055,1.146,6.016,6.016,0,0,1-1.773.91,7.637,7.637,0,0,1-2.454.362,6.566,6.566,0,0,1-4.931-1.809,6.736,6.736,0,0,1-1.761-4.908,8.169,8.169,0,0,1,.435-2.707,5.974,5.974,0,0,1,1.266-2.141,5.481,5.481,0,0,1,2.05-1.368,7.364,7.364,0,0,1,2.7-.476,6.4,6.4,0,0,1,3.309.814,5.352,5.352,0,0,1,2.068,2.1,5.524,5.524,0,0,1,.687,2.628q0,1.242-.711,1.61a4.427,4.427,0,0,1-2,.368m-6.439-1.869h5.969A4,4,0,0,0,199.3,11a2.724,2.724,0,0,0-2.08-.838,2.636,2.636,0,0,0-2.02.85,4.224,4.224,0,0,0-.959,2.514" transform="translate(-69.777 -2.878)" fill="#fff"/>
      <path id="패스_84984" data-name="패스 84984" d="M82.936.073A1.866,1.866,0,1,0,84.8,1.939,1.866,1.866,0,0,0,82.936.073" transform="translate(-29.636 -0.026)" fill="#fff"/>
      <path id="패스_84985" data-name="패스 84985" d="M91.065,3.8A1.866,1.866,0,1,0,89.2,1.938,1.865,1.865,0,0,0,91.065,3.8" transform="translate(-32.608 -0.026)" fill="#fff"/>
      <path id="패스_84986" data-name="패스 84986" d="M71.759,15.1,64.771,9.237,70.755,6.2a1.646,1.646,0,1,0-1.27-3.037L63.145,6.309V1.646a1.646,1.646,0,0,0-3.292,0V16.521a1.646,1.646,0,0,0,3.292,0V12.195l6.67,5.56A1.646,1.646,0,1,0,71.759,15.1" transform="translate(-21.88 0)" fill="#fff"/>
      <path id="패스_84987" data-name="패스 84987" d="M83.136,7.875A1.646,1.646,0,0,0,81.49,9.521v9.945a1.646,1.646,0,0,0,3.292,0V9.521a1.646,1.646,0,0,0-1.646-1.646" transform="translate(-29.79 -2.879)" fill="#fff"/>
      <path id="패스_84988" data-name="패스 84988" d="M46.921.117H35.732a1.852,1.852,0,1,0,0,3.7H39.68V16.63a1.646,1.646,0,0,0,3.292,0V3.821h3.949a1.852,1.852,0,1,0,0-3.7" transform="translate(-12.385 -0.043)" fill="#fff"/>
      <path id="패스_84989" data-name="패스 84989" d="M119.942,5.67a1.645,1.645,0,0,0-1.532,1.047A6.363,6.363,0,0,0,114.955,5.7h-.7a6.391,6.391,0,0,0-6.39,6.391v1.842a6.39,6.39,0,0,0,6.39,6.39h.7a6.36,6.36,0,0,0,3.435-1,1.645,1.645,0,0,0,3.2-.542V7.316a1.646,1.646,0,0,0-1.646-1.646M118.3,14.039a3.056,3.056,0,0,1-3.056,3.055h-1.273a3.056,3.056,0,0,1-3.056-3.056V11.891a3.057,3.057,0,0,1,3.056-3.057h1.273a3.056,3.056,0,0,1,3.056,3.054Z" transform="translate(-39.43 -2.073)" fill="#fff"/>
      <path id="패스_84990" data-name="패스 84990" d="M97.67,14.493a1.658,1.658,0,0,0-1.658,1.658v-.006a1.638,1.638,0,1,1-3.276,0V10.822h4.906a1.646,1.646,0,0,0,0-3.291h-4.93l-1.646-.019A1.646,1.646,0,0,0,89.42,9.158v6.986a4.954,4.954,0,0,0,9.908,0,1.658,1.658,0,0,0-1.658-1.656" transform="translate(-32.689 -2.746)" fill="#fff"/>
      <path id="패스_84991" data-name="패스 84991" d="M15.515.025H4.231A4.237,4.237,0,0,0,0,4.257V9.9A4.237,4.237,0,0,0,4.231,14.13H6.661l6.717,4.029a1.41,1.41,0,0,0,2.137-1.209V14.13A4.236,4.236,0,0,0,19.746,9.9V4.257A4.236,4.236,0,0,0,15.515.025M16.925,9.9a1.412,1.412,0,0,1-1.41,1.41H14.1a1.41,1.41,0,0,0-1.41,1.41h0v1.739L7.778,11.51a1.413,1.413,0,0,0-.726-.2H4.231A1.412,1.412,0,0,1,2.82,9.9V4.257a1.412,1.412,0,0,1,1.41-1.41H15.515a1.412,1.412,0,0,1,1.41,1.41Z" transform="translate(0 -0.009)" fill="#fff"/>
      <path id="패스_84992" data-name="패스 84992" d="M10.72,8.371a1.689,1.689,0,1,0,1.69,1.69,1.689,1.689,0,0,0-1.69-1.69" transform="translate(-3.301 -3.06)" fill="#fff"/>
      <path id="패스_84993" data-name="패스 84993" d="M18.729,8.371a1.689,1.689,0,1,0,1.69,1.69,1.69,1.69,0,0,0-1.69-1.69" transform="translate(-6.229 -3.06)" fill="#fff"/>
      <path id="패스_84994" data-name="패스 84994" d="M276.99,8.741a1.468,1.468,0,0,0-.06-.2,1.705,1.705,0,0,0-3.171,0,1.651,1.651,0,0,0-.06.2,1.715,1.715,0,0,0-.06.39v.025a5.7,5.7,0,0,0-4.34-1.835,6.872,6.872,0,0,0-7.118,7.117,7.368,7.368,0,0,0,2.188,5.379,6.456,6.456,0,0,0,4.826,1.835,5.49,5.49,0,0,0,4.444-1.932v1.771a4.246,4.246,0,0,1-1.111,3.414,3.813,3.813,0,0,1-2.673.9,3.622,3.622,0,0,1-2.639-.934,3.694,3.694,0,0,1-.648-.921,1.614,1.614,0,0,0-.379-1.022,1.578,1.578,0,0,0-.175-.182,1.632,1.632,0,0,0-2.708,1.216,4.788,4.788,0,0,0,.037.567v.005h0a7.05,7.05,0,0,0,1.65,2.431,6.756,6.756,0,0,0,4.791,1.674,7.8,7.8,0,0,0,4.861-1.449c2.014-1.578,2.4-3.864,2.4-7.053V9.053a1.812,1.812,0,0,0-.052-.312m-4.425,6.713a2.955,2.955,0,0,1-2.955,2.953h-1.23a2.955,2.955,0,0,1-2.955-2.955V13.377a2.955,2.955,0,0,1,2.955-2.955h1.23a2.955,2.955,0,0,1,2.955,2.953Z" transform="translate(-95.844 -2.677)" fill="#fff"/>
      <path id="패스_84995" data-name="패스 84995" d="M154.51,1.76a1.669,1.669,0,0,0-3.211-.638c-.006.014-.008.029-.013.043l-6.728,9.155L137.618.986a1.655,1.655,0,0,0-2.913-.052,1.655,1.655,0,0,0-.227.826,1.707,1.707,0,0,0,.022.214v14.6a1.707,1.707,0,0,0-.022.214,1.65,1.65,0,0,0,3.3,0,1.123,1.123,0,0,0-.012-.122c0,.01.006.019.007.029V6.006l5.331,7.413.305.379a1.653,1.653,0,0,0,2.333-.077l.191-.24,5.311-7.476V16.55a1.358,1.358,0,0,0-.022.135c0,.035-.011.068-.011.1a1.646,1.646,0,0,0,3.291.074c0,.013,0,.025,0,.039v-.075c0-.013,0-.025,0-.038s0-.025,0-.037ZM136.18,3.426l-.011,0s-.007,0-.011,0l.022,0m16.761-.007c-.027,0-.051.01-.079.011h-.011c.031,0,.059-.008.089-.01" transform="translate(-49.16 -0.033)" fill="#fff"/>
    </g>
  </g>
  <rect id="사각형_28478" data-name="사각형 28478" width="500" height="356" rx="12" fill="url(#linear-gradient)"/>
  <g id="그룹_26589" data-name="그룹 26589" transform="translate(105.726 212.519)">
    <rect id="사각형_28707" data-name="사각형 28707" width="277.189" height="72.727" rx="6" fill="#f40b0b"/>
    <g id="그룹_27079" data-name="그룹 27079" transform="translate(87.693 -34.519)">
      <g id="그룹_27078" data-name="그룹 27078" transform="translate(0 0)" clip-path="url(#clip-path-2)">
        <rect id="사각형_28708" data-name="사각형 28708" width="50.902" height="34.519" transform="translate(0 0)" fill="url(#linear-gradient-2)"/>
      </g>
    </g>
    <g id="그룹_27081" data-name="그룹 27081">
      <g id="그룹_27080" data-name="그룹 27080" clip-path="url(#clip-path-3)">
        <path id="패스_84997" data-name="패스 84997" d="M116,105.5c-.128,1.453-.678,8.864-8.656,8.864-8.174,0-9.113-7.182-9.113-14.908,0-9.31,2.73-14.794,9.42-14.794,7.624,0,8.215,6.539,8.333,8.839h-5.092c-.08-.977-.148-4.473-3.321-4.473-3.232,0-4.019,3.956-4.019,10.536,0,5.421.54,10.51,3.876,10.51,3.068,0,3.314-3.472,3.441-4.573Z" transform="translate(-73.267 -63.145)" fill="#fff"/>
        <path id="패스_84998" data-name="패스 84998" d="M197.019,99.27c0,10.513-2.857,15.09-9.485,15.09-6.191,0-9.208-4.509-9.208-15.149,0-10.373,3.512-14.553,9.443-14.553,6.265,0,9.25,4.63,9.25,14.612M183.6,99.163c0,6.822,1.035,10.879,4.052,10.879,3.176,0,4.084-3.758,4.084-10.869,0-6.68-.965-10.16-4.089-10.16-3.076,0-4.046,3.743-4.046,10.15" transform="translate(-133.011 -63.145)" fill="#fff"/>
        <path id="패스_84999" data-name="패스 84999" d="M285.637,104.515c0-4.908.085-10.514.17-13.777h-.117c-.993,5.46-2.586,15.162-4.468,24.47h-4.648c-1.393-8.671-3.045-18.991-3.968-24.55h-.16c.17,3.357.3,9.382.3,14.349v10.2h-4.707V86.457h7.695c1.505,7.945,2.824,15.973,3.4,20.168h.042c.585-3.9,2.386-12.562,3.886-20.168h7.513v28.751h-4.937Z" transform="translate(-199.925 -64.487)" fill="#fff"/>
        <rect id="사각형_28709" data-name="사각형 28709" width="5.156" height="28.75" transform="translate(95.614 21.97)" fill="#fff"/>
        <path id="패스_85000" data-name="패스 85000" d="M416.567,115.207V86.457h5.847c5.944,15.888,7.087,18.919,7.432,20.328h.042c-.245-3.454-.255-7.686-.255-12.4V86.457h4.6v28.75h-5.607c-6.14-16.94-7.229-19.993-7.6-21.312h-.042c.212,3.542.218,7.776.218,12.928v8.384Z" transform="translate(-310.712 -64.487)" fill="#fff"/>
        <path id="패스_85001" data-name="패스 85001" d="M519.786,113.865h-3.924a22.482,22.482,0,0,1-.245-2.447c-1.283,2.276-3.281,2.942-5.709,2.942-6,0-8.178-5.348-8.178-14.69,0-10.5,3.543-15.012,9.718-15.012,7.79,0,8.221,6.677,8.305,8.382h-5.087c-.085-1.16-.335-4.026-3.373-4.026-3.317,0-4.242,4.421-4.242,10.646,0,6.7.789,10.383,4.068,10.383,2.729,0,3.552-2.092,3.552-6.328V102.1H510.8V97.71h8.985Z" transform="translate(-374.235 -63.145)" fill="#fff"/>
        <path id="패스_85002" data-name="패스 85002" d="M620.334,105.829c.25,2.385,1.207,4.485,3.836,4.485,2.534,0,3.473-1.588,3.473-3.727,0-2.362-1.163-3.735-4.8-5.471-4.923-2.339-6.85-4.406-6.85-8.677,0-4.612,2.963-7.761,8.163-7.761,6.468,0,8.062,4.375,8.148,8.118h-5.044c-.165-1.644-.59-4.062-3.193-4.062-2.037,0-2.948,1.322-2.948,3.273,0,2.07.921,3.038,4.292,4.6,5.158,2.385,7.474,4.7,7.474,9.512,0,4.514-2.8,8.247-8.869,8.247-6.611,0-8.625-4.232-8.805-8.541Z" transform="translate(-458.877 -63.16)" fill="#fff"/>
        <path id="패스_85003" data-name="패스 85003" d="M714.062,99.27c0,10.513-2.857,15.09-9.485,15.09-6.19,0-9.208-4.509-9.208-15.149,0-10.373,3.512-14.553,9.443-14.553,6.266,0,9.25,4.63,9.25,14.612m-13.414-.107c0,6.822,1.035,10.879,4.052,10.879,3.176,0,4.084-3.758,4.084-10.869,0-6.68-.965-10.16-4.089-10.16-3.077,0-4.047,3.743-4.047,10.15" transform="translate(-518.667 -63.145)" fill="#fff"/>
        <path id="패스_85004" data-name="패스 85004" d="M800.513,99.27c0,10.513-2.858,15.09-9.485,15.09-6.19,0-9.208-4.509-9.208-15.149,0-10.373,3.512-14.553,9.443-14.553,6.265,0,9.25,4.63,9.25,14.612M787.1,99.163c0,6.822,1.035,10.879,4.052,10.879,3.176,0,4.084-3.758,4.084-10.869,0-6.68-.965-10.16-4.089-10.16-3.077,0-4.047,3.743-4.047,10.15" transform="translate(-583.15 -63.145)" fill="#fff"/>
        <path id="패스_85005" data-name="패스 85005" d="M871.236,115.207V86.457h5.847c5.944,15.888,7.087,18.919,7.432,20.328h.043c-.245-3.454-.255-7.686-.255-12.4V86.457h4.6v28.75H883.3c-6.14-16.94-7.229-19.993-7.6-21.312h-.042c.213,3.542.218,7.776.218,12.928v8.384Z" transform="translate(-649.844 -64.487)" fill="#fff"/>
        <path id="패스_85006" data-name="패스 85006" d="M964.69,104.948l-.507-13.611v-4.88h5.434v4.885l-.539,13.606Zm-.357,4.254h5.017v6.006h-5.017Z" transform="translate(-719.172 -64.487)" fill="#fff"/>
      </g>
    </g>
  </g>
</svg>
