<svg xmlns="http://www.w3.org/2000/svg" xmlns:xlink="http://www.w3.org/1999/xlink" width="358.839" height="29.985" viewBox="0 0 358.839 29.985">
  <defs>
    <clipPath id="clip-path">
      <rect id="사각형_23964" data-name="사각형 23964" width="143.147" height="29.985" fill="#2b2b2b"/>
    </clipPath>
    <clipPath id="clip-path-2">
      <rect id="사각형_23963" data-name="사각형 23963" width="183.209" height="29.985" fill="#2b2b2b"/>
    </clipPath>
  </defs>
  <g id="그룹_21894" data-name="그룹 21894" transform="translate(-709.709 -1799)">
    <g id="logo_노트" transform="translate(925.402 1799)">
      <g id="그룹_21578" data-name="그룹 21578" clip-path="url(#clip-path)">
        <path id="패스_50691" data-name="패스 50691" d="M29.57,5.606A2.192,2.192,0,1,1,31.763,7.8,2.193,2.193,0,0,1,29.57,5.606" transform="translate(7.374 0.851)" fill="#2b2b2b"/>
        <path id="패스_50692" data-name="패스 50692" d="M34.42,5.606A2.192,2.192,0,1,1,36.613,7.8,2.193,2.193,0,0,1,34.42,5.606" transform="translate(8.583 0.851)" fill="#2b2b2b"/>
        <path id="패스_50693" data-name="패스 50693" d="M22.688,14.223,30.9,21.11a1.934,1.934,0,1,1-2.283,3.122L20.778,17.7v5.084a1.934,1.934,0,0,1-3.868,0V5.3a1.934,1.934,0,1,1,3.868,0v5.48L28.227,7.09a1.934,1.934,0,1,1,1.493,3.568Z" transform="translate(4.217 0.84)" fill="#2b2b2b"/>
        <path id="패스_50694" data-name="패스 50694" d="M29.82,21.688V10a1.934,1.934,0,0,1,3.868,0V21.688a1.934,1.934,0,0,1-3.868,0" transform="translate(7.436 2.012)" fill="#2b2b2b"/>
        <path id="패스_50695" data-name="패스 50695" d="M6.867,22.806V5.522a1.934,1.934,0,1,1,3.868,0V22.806a1.934,1.934,0,1,1-3.868,0" transform="translate(1.712 0.895)" fill="#2b2b2b"/>
        <path id="패스_50696" data-name="패스 50696" d="M16.734,7.792H3.586a2.176,2.176,0,0,1,0-4.352H16.734a2.176,2.176,0,1,1,0,4.352" transform="translate(0.352 0.858)" fill="#2b2b2b"/>
        <path id="패스_50697" data-name="패스 50697" d="M61.684,8.575a1.933,1.933,0,0,0-3.733-.7,7.472,7.472,0,0,0-4.06-1.194h-.826a7.509,7.509,0,0,0-7.509,7.509v2.165a7.509,7.509,0,0,0,7.509,7.51h.826a7.479,7.479,0,0,0,4.037-1.178,1.933,1.933,0,0,0,3.758-.638ZM54.225,20.064h-1.5a3.591,3.591,0,0,1-3.591-3.592V13.95a3.591,3.591,0,0,1,3.591-3.591h1.5a3.591,3.591,0,0,1,3.591,3.588v2.527a3.59,3.59,0,0,1-3.591,3.589" transform="translate(11.36 1.656)" fill="#2b2b2b"/>
        <path id="패스_50698" data-name="패스 50698" d="M34.552,9.786a1.934,1.934,0,0,1,1.934-1.934l1.934.022h5.795a1.934,1.934,0,1,1,0,3.868H38.449V18A1.925,1.925,0,0,0,42.3,18V18a1.948,1.948,0,1,1,3.9,0V18a5.821,5.821,0,0,1-11.643,0Z" transform="translate(8.616 1.958)" fill="#2b2b2b"/>
        <path id="패스_50699" data-name="패스 50699" d="M84.071,6.641h-.58a7.7,7.7,0,0,0-7.7,7.7v1.933a7.7,7.7,0,0,0,7.7,7.7h.58a7.7,7.7,0,0,0,7.7-7.7V14.343a7.7,7.7,0,0,0-7.7-7.7m.407,13.423h-1.5a3.591,3.591,0,0,1-3.591-3.592V13.95a3.591,3.591,0,0,1,3.591-3.591h1.5a3.591,3.591,0,0,1,3.591,3.588v2.527a3.59,3.59,0,0,1-3.591,3.589" transform="translate(18.899 1.656)" fill="#2b2b2b"/>
        <path id="패스_50700" data-name="패스 50700" d="M92.339,7.713a2.172,2.172,0,1,0-2.171-2.171,2.172,2.172,0,0,0,2.171,2.171" transform="translate(22.484 0.84)" fill="#2b2b2b"/>
        <path id="패스_50701" data-name="패스 50701" d="M99.9,15.894a1.931,1.931,0,0,0-1.93,1.93v-.007a1.907,1.907,0,0,1-3.814,0v-6.2h5.712a1.916,1.916,0,1,0,0-3.832h-5.74l-1.917-.022A1.917,1.917,0,0,0,90.3,9.684v8.133a5.768,5.768,0,0,0,11.535,0,1.931,1.931,0,0,0-1.93-1.928" transform="translate(22.517 1.937)" fill="#2b2b2b"/>
        <path id="패스_50702" data-name="패스 50702" d="M65.646,5.948l8.067,12.206V5.836a2.709,2.709,0,0,1,.515-1.8,1.744,1.744,0,0,1,1.392-.6,1.794,1.794,0,0,1,1.427.6,2.682,2.682,0,0,1,.523,1.8V22.123q0,2.727-2.26,2.726a2.987,2.987,0,0,1-1.018-.162,2.6,2.6,0,0,1-.847-.515,5.04,5.04,0,0,1-.735-.827q-.339-.474-.678-.968L64.163,10.313V22.448a2.589,2.589,0,0,1-.551,1.794,1.822,1.822,0,0,1-1.413.607,1.8,1.8,0,0,1-1.427-.613,2.644,2.644,0,0,1-.537-1.788V6.47a4.551,4.551,0,0,1,.226-1.6,2.279,2.279,0,0,1,.891-1.038,2.419,2.419,0,0,1,1.342-.4,2.2,2.2,0,0,1,1.674.678,5.116,5.116,0,0,1,.621.8q.319.495.657,1.032" transform="translate(15.02 0.856)" fill="#2b2b2b"/>
        <path id="패스_50703" data-name="패스 50703" d="M112.444,16.817H104.9a5.129,5.129,0,0,0,.53,2.316,3.545,3.545,0,0,0,3.257,2.02,4.6,4.6,0,0,0,1.263-.162,4.1,4.1,0,0,0,1.109-.508,8.513,8.513,0,0,0,.99-.742q.452-.4,1.172-1.073a1.261,1.261,0,0,1,.847-.254,1.4,1.4,0,0,1,.961.324,1.165,1.165,0,0,1,.369.92,2.512,2.512,0,0,1-.41,1.221,4.849,4.849,0,0,1-1.237,1.343,7.066,7.066,0,0,1-2.076,1.067,8.953,8.953,0,0,1-2.875.424,7.689,7.689,0,0,1-5.778-2.12,7.886,7.886,0,0,1-2.063-5.75,9.6,9.6,0,0,1,.508-3.171,7.009,7.009,0,0,1,1.483-2.507,6.441,6.441,0,0,1,2.4-1.6A8.636,8.636,0,0,1,108.518,8a7.5,7.5,0,0,1,3.877.953,6.277,6.277,0,0,1,2.424,2.465,6.477,6.477,0,0,1,.8,3.08q0,1.456-.833,1.887a5.192,5.192,0,0,1-2.345.431m-7.544-2.19h6.993a4.691,4.691,0,0,0-1.066-2.96,3.2,3.2,0,0,0-2.437-.982,3.089,3.089,0,0,0-2.366,1,4.953,4.953,0,0,0-1.123,2.946" transform="translate(25.175 1.995)" fill="#2b2b2b"/>
      </g>
    </g>
    <g id="그룹_21590" data-name="그룹 21590" transform="translate(900.6 1804.622)">
      <line id="선_7" data-name="선 7" x2="17.491" y2="17.491" transform="translate(0 0)" fill="none" stroke="#2b2b2b" stroke-width="1"/>
      <line id="선_8" data-name="선 8" x1="17.491" y2="17.491" transform="translate(0 0)" fill="none" stroke="#2b2b2b" stroke-width="1"/>
    </g>
    <g id="logo_캡션" transform="translate(709.709 1799)">
      <g id="그룹_21576" data-name="그룹 21576" clip-path="url(#clip-path-2)">
        <path id="패스_50675" data-name="패스 50675" d="M107.041,5.781a2.186,2.186,0,1,0-2.186-2.186,2.186,2.186,0,0,0,2.186,2.186" transform="translate(26.147 0.351)" fill="#2b2b2b"/>
        <path id="패스_50676" data-name="패스 50676" d="M119.223,1.624a2.046,2.046,0,0,0-1.346-.487,2,2,0,0,0-1.381.537,1.759,1.759,0,0,0-.593,1.367,1.771,1.771,0,0,0,.58,1.416,2.055,2.055,0,0,0,1.394.5,1.978,1.978,0,0,0,1.359-.507,1.785,1.785,0,0,0,.573-1.409,1.735,1.735,0,0,0-.587-1.417" transform="translate(28.902 0.284)" fill="#2b2b2b"/>
        <path id="패스_50677" data-name="패스 50677" d="M31.325,1.766a2.186,2.186,0,1,0,2.186,2.186,2.186,2.186,0,0,0-2.186-2.186" transform="translate(7.266 0.44)" fill="#2b2b2b"/>
        <path id="패스_50678" data-name="패스 50678" d="M36.162,6.139a2.186,2.186,0,1,0-2.186-2.186,2.186,2.186,0,0,0,2.186,2.186" transform="translate(8.472 0.44)" fill="#2b2b2b"/>
        <path id="패스_50679" data-name="패스 50679" d="M114.47,14.015a1.942,1.942,0,0,0-1.943,1.943V15.95a1.92,1.92,0,1,1-3.839,0V9.714h5.75a1.929,1.929,0,0,0,0-3.858h-5.778l-1.928-.021A1.929,1.929,0,0,0,104.8,7.764V15.95a5.805,5.805,0,0,0,11.61,0,1.943,1.943,0,0,0-1.943-1.94" transform="translate(26.134 1.455)" fill="#2b2b2b"/>
        <path id="패스_50680" data-name="패스 50680" d="M76.7,13.863a1.521,1.521,0,0,0-1.288.522,4.519,4.519,0,0,0-.672,1.352,5.491,5.491,0,0,1-1.91,2.669,5.172,5.172,0,0,1-3.1.908,5.37,5.37,0,0,1-2.948-.8,5.139,5.139,0,0,1-1.945-2.425,10.486,10.486,0,0,1-.687-4.07,9,9,0,0,1,1.553-5.652,5.017,5.017,0,0,1,4.17-1.989,4.77,4.77,0,0,1,2.769.772A6.4,6.4,0,0,1,74.6,7.482a5.355,5.355,0,0,0,.91,1.331,1.719,1.719,0,0,0,1.223.387,1.633,1.633,0,0,0,1.244-.558,1.841,1.841,0,0,0,.515-1.288,4.958,4.958,0,0,0-1.058-2.826,8.22,8.22,0,0,0-3.047-2.511A9.838,9.838,0,0,0,69.85,1a10.421,10.421,0,0,0-3.934.745A9.2,9.2,0,0,0,62.7,3.912a9.673,9.673,0,0,0-2.11,3.427,13.051,13.051,0,0,0-.737,4.535,14.185,14.185,0,0,0,.294,2.947,11.492,11.492,0,0,0,.88,2.611,10.411,10.411,0,0,0,1.417,2.211A8.348,8.348,0,0,0,64.478,21.4a8.472,8.472,0,0,0,2.467.98,13.406,13.406,0,0,0,3.02.315,9.723,9.723,0,0,0,3.834-.7,7.94,7.94,0,0,0,2.7-1.824,7.832,7.832,0,0,0,1.552-2.29,5.6,5.6,0,0,0,.494-2.168,1.76,1.76,0,0,0-.543-1.316,1.8,1.8,0,0,0-1.3-.53" transform="translate(14.924 0.249)" fill="#2b2b2b"/>
        <path id="패스_50681" data-name="패스 50681" d="M103.206,6.608a6.232,6.232,0,0,0-3.32-.93,5.616,5.616,0,0,0-2.69.636,7.723,7.723,0,0,0-2.289,2V7.839a2.308,2.308,0,0,0-.522-1.624,1.76,1.76,0,0,0-1.352-.565A1.682,1.682,0,0,0,91.7,6.2a2.454,2.454,0,0,0-.487,1.667V24.723a4.179,4.179,0,0,0,.359,1.938,1.5,1.5,0,0,0,1.459.666q1.874,0,1.874-2.575V18.884a8.042,8.042,0,0,0,2.168,1.975,5.439,5.439,0,0,0,2.811.672,6.188,6.188,0,0,0,2.6-.551,6.1,6.1,0,0,0,2.1-1.574,7.421,7.421,0,0,0,1.394-2.532,10.329,10.329,0,0,0,.508-3.312,9.49,9.49,0,0,0-.881-4.235,6.4,6.4,0,0,0-2.4-2.719m-1.144,9.644a3.879,3.879,0,0,1-1.331,1.7,3.135,3.135,0,0,1-1.8.565A3.445,3.445,0,0,1,96.2,17.218a5.43,5.43,0,0,1-1.1-3.627A5.559,5.559,0,0,1,96.2,9.842a3.479,3.479,0,0,1,2.726-1.273,3.135,3.135,0,0,1,1.853.593,3.889,3.889,0,0,1,1.309,1.7,6.756,6.756,0,0,1,.472,2.655,6.726,6.726,0,0,1-.5,2.732" transform="translate(22.746 1.409)" fill="#2b2b2b"/>
        <path id="패스_50682" data-name="패스 50682" d="M117.835,5.65a1.809,1.809,0,0,0-1.4.586,2.513,2.513,0,0,0-.536,1.747V19.157a2.6,2.6,0,0,0,.536,1.76,1.767,1.767,0,0,0,1.4.615,1.849,1.849,0,0,0,1.417-.6,2.518,2.518,0,0,0,.558-1.774V7.868a2.274,2.274,0,0,0-.558-1.632,1.876,1.876,0,0,0-1.417-.586" transform="translate(28.902 1.409)" fill="#2b2b2b"/>
        <path id="패스_50683" data-name="패스 50683" d="M134.044,7.853a7,7,0,0,0-2.475-1.63,9.3,9.3,0,0,0-6.41-.007A6.872,6.872,0,0,0,122.7,7.824a7.079,7.079,0,0,0-1.559,2.519,9.322,9.322,0,0,0-.543,3.248,9.216,9.216,0,0,0,.536,3.212,7.043,7.043,0,0,0,4.028,4.155,8.438,8.438,0,0,0,3.191.573,8.7,8.7,0,0,0,3.22-.566,6.932,6.932,0,0,0,2.461-1.624A7.111,7.111,0,0,0,135.6,16.81a9.231,9.231,0,0,0,.545-3.218,9.245,9.245,0,0,0-.537-3.22,7.039,7.039,0,0,0-1.567-2.519m-2.869,9.436a3.408,3.408,0,0,1-2.826,1.338,3.452,3.452,0,0,1-2.039-.608,3.83,3.83,0,0,1-1.331-1.753,7.082,7.082,0,0,1-.465-2.675,7.132,7.132,0,0,1,.472-2.7,3.757,3.757,0,0,1,1.344-1.753,3.5,3.5,0,0,1,2.018-.593,3.415,3.415,0,0,1,2.826,1.331,5.865,5.865,0,0,1,1.052,3.721,5.844,5.844,0,0,1-1.052,3.7" transform="translate(30.072 1.409)" fill="#2b2b2b"/>
        <path id="패스_50684" data-name="패스 50684" d="M148.3,9.77a4.529,4.529,0,0,0-.5-1.545,4.284,4.284,0,0,0-1.817-1.9,5.61,5.61,0,0,0-2.762-.672,6.014,6.014,0,0,0-2.811.636,6.848,6.848,0,0,0-2.254,2V7.81a2.577,2.577,0,0,0-.25-1.187,1.743,1.743,0,0,0-.666-.731,1.81,1.81,0,0,0-.929-.242,1.682,1.682,0,0,0-1.331.551,2.454,2.454,0,0,0-.487,1.667V19.157a2.566,2.566,0,0,0,.545,1.759,1.766,1.766,0,0,0,1.387.616,1.858,1.858,0,0,0,1.424-.593,2.538,2.538,0,0,0,.551-1.782V14.263A12.222,12.222,0,0,1,138.687,11a3.582,3.582,0,0,1,1.259-1.71,3.166,3.166,0,0,1,1.9-.622,2.184,2.184,0,0,1,2.139,1.023,6.512,6.512,0,0,1,.536,2.955v6.51a2.566,2.566,0,0,0,.545,1.759,1.8,1.8,0,0,0,1.416.616,1.78,1.78,0,0,0,1.4-.6,2.59,2.59,0,0,0,.537-1.774V11.888A16.016,16.016,0,0,0,148.3,9.77" transform="translate(33.538 1.409)" fill="#2b2b2b"/>
        <path id="패스_50685" data-name="패스 50685" d="M90.4,5.086a1.928,1.928,0,0,0-1.8,1.228A7.452,7.452,0,0,0,84.56,5.123h-.823a7.487,7.487,0,0,0-7.487,7.487v2.16a7.487,7.487,0,0,0,7.487,7.487h.823a7.456,7.456,0,0,0,4.025-1.174,1.928,1.928,0,0,0,3.748-.636V7.015A1.929,1.929,0,0,0,90.4,5.086m-1.929,9.807a3.582,3.582,0,0,1-3.582,3.579H83.4a3.58,3.58,0,0,1-3.581-3.581V12.376A3.581,3.581,0,0,1,83.4,8.794h1.49a3.582,3.582,0,0,1,3.582,3.579Z" transform="translate(19.014 1.268)" fill="#2b2b2b"/>
        <path id="패스_50686" data-name="패스 50686" d="M30.466,19.414l-8.188-6.868,7.011-3.556A1.928,1.928,0,1,0,27.8,5.433L20.372,9.116V3.651a1.929,1.929,0,1,0-3.858,0V21.082a1.929,1.929,0,0,0,3.858,0v-5.07l7.816,6.515a1.929,1.929,0,1,0,2.278-3.113" transform="translate(4.118 0.429)" fill="#2b2b2b"/>
        <path id="패스_50687" data-name="패스 50687" d="M31.318,6.409a1.929,1.929,0,0,0-1.929,1.929V19.991a1.929,1.929,0,1,0,3.858,0V8.338a1.929,1.929,0,0,0-1.929-1.929" transform="translate(7.328 1.598)" fill="#2b2b2b"/>
        <path id="패스_50688" data-name="패스 50688" d="M16.34,1.792H3.228a2.17,2.17,0,0,0,0,4.34H7.856v15.01a1.929,1.929,0,1,0,3.858,0V6.132H16.34a2.17,2.17,0,0,0,0-4.34" transform="translate(0.264 0.447)" fill="#2b2b2b"/>
        <path id="패스_50689" data-name="패스 50689" d="M59.237,4.984a1.929,1.929,0,0,0-1.8,1.228,7.452,7.452,0,0,0-4.049-1.191h-.823a7.487,7.487,0,0,0-7.487,7.489v2.159a7.487,7.487,0,0,0,7.487,7.487h.823a7.449,7.449,0,0,0,4.025-1.174,1.928,1.928,0,0,0,3.748-.636V6.913a1.929,1.929,0,0,0-1.929-1.929m-1.929,9.807a3.581,3.581,0,0,1-3.581,3.579H52.236a3.58,3.58,0,0,1-3.581-3.581V12.274a3.581,3.581,0,0,1,3.581-3.582h1.492a3.582,3.582,0,0,1,3.581,3.579Z" transform="translate(11.242 1.243)" fill="#2b2b2b"/>
        <path id="패스_50690" data-name="패스 50690" d="M43.776,14.373a1.942,1.942,0,0,0-1.943,1.943v-.007a1.92,1.92,0,1,1-3.839,0V10.072h5.75a1.929,1.929,0,0,0,0-3.858H37.965l-1.928-.021a1.928,1.928,0,0,0-1.929,1.928v8.187a5.805,5.805,0,0,0,11.61,0,1.943,1.943,0,0,0-1.943-1.94" transform="translate(8.505 1.544)" fill="#2b2b2b"/>
      </g>
    </g>
  </g>
</svg>
