<svg id="logo_그림자포함" xmlns="http://www.w3.org/2000/svg" xmlns:xlink="http://www.w3.org/1999/xlink" width="133.672" height="28" viewBox="0 0 133.672 28">
  <defs>
    <clipPath id="clip-path">
      <rect id="사각형_23964" data-name="사각형 23964" width="133.672" height="28" fill="none"/>
    </clipPath>
    <filter id="패스_50693" x="19.228" y="3.43" width="16.556" height="22.711" filterUnits="userSpaceOnUse">
      <feOffset dx="1" dy="1" input="SourceAlpha"/>
      <feGaussianBlur stdDeviation="0.25" result="blur"/>
      <feFlood flood-color="#061058" flood-opacity="0.102"/>
      <feComposite operator="in" in2="blur"/>
      <feComposite in="SourceGraphic"/>
    </filter>
    <filter id="패스_50691" x="33.998" y="3.482" width="6.844" height="6.845" filterUnits="userSpaceOnUse">
      <feOffset dx="1" dy="1" input="SourceAlpha"/>
      <feGaussianBlur stdDeviation="0.25" result="blur-2"/>
      <feFlood flood-color="#061058" flood-opacity="0.102"/>
      <feComposite operator="in" in2="blur-2"/>
      <feComposite in="SourceGraphic"/>
    </filter>
    <filter id="패스_50694" x="34.29" y="8.914" width="6.362" height="17.274" filterUnits="userSpaceOnUse">
      <feOffset dx="1" dy="1" input="SourceAlpha"/>
      <feGaussianBlur stdDeviation="0.25" result="blur-3"/>
      <feFlood flood-color="#061058" flood-opacity="0.102"/>
      <feComposite operator="in" in2="blur-3"/>
      <feComposite in="SourceGraphic"/>
    </filter>
    <filter id="합치기_1" x="1.146" y="3.513" width="19.091" height="22.675" filterUnits="userSpaceOnUse">
      <feOffset dx="1" dy="1" input="SourceAlpha"/>
      <feGaussianBlur stdDeviation="0.25" result="blur-4"/>
      <feFlood flood-color="#061058" flood-opacity="0.102"/>
      <feComposite operator="in" in2="blur-4"/>
      <feComposite in="SourceGraphic"/>
    </filter>
    <filter id="패스_50697" x="52.649" y="7.248" width="17.812" height="18.94" filterUnits="userSpaceOnUse">
      <feOffset dx="1" dy="1" input="SourceAlpha"/>
      <feGaussianBlur stdDeviation="0.25" result="blur-5"/>
      <feFlood flood-color="#061058" flood-opacity="0.102"/>
      <feComposite operator="in" in2="blur-5"/>
      <feComposite in="SourceGraphic"/>
    </filter>
    <filter id="패스_50692" x="39.657" y="3.482" width="6.844" height="6.845" filterUnits="userSpaceOnUse">
      <feOffset dx="1" dy="1" input="SourceAlpha"/>
      <feGaussianBlur stdDeviation="0.25" result="blur-6"/>
      <feFlood flood-color="#061058" flood-opacity="0.102"/>
      <feComposite operator="in" in2="blur-6"/>
      <feComposite in="SourceGraphic"/>
    </filter>
    <filter id="패스_50698" x="39.811" y="8.661" width="13.622" height="17.658" filterUnits="userSpaceOnUse">
      <feOffset dx="1" dy="1" input="SourceAlpha"/>
      <feGaussianBlur stdDeviation="0.25" result="blur-7"/>
      <feFlood flood-color="#061058" flood-opacity="0.102"/>
      <feComposite operator="in" in2="blur-7"/>
      <feComposite in="SourceGraphic"/>
    </filter>
    <filter id="패스_50699" x="87.92" y="7.248" width="17.676" height="18.94" filterUnits="userSpaceOnUse">
      <feOffset dx="1" dy="1" input="SourceAlpha"/>
      <feGaussianBlur stdDeviation="0.25" result="blur-8"/>
      <feFlood flood-color="#061058" flood-opacity="0.102"/>
      <feComposite operator="in" in2="blur-8"/>
      <feComposite in="SourceGraphic"/>
    </filter>
    <filter id="패스_50700" x="104.696" y="3.43" width="6.807" height="6.807" filterUnits="userSpaceOnUse">
      <feOffset dx="1" dy="1" input="SourceAlpha"/>
      <feGaussianBlur stdDeviation="0.25" result="blur-9"/>
      <feFlood flood-color="#061058" flood-opacity="0.102"/>
      <feComposite operator="in" in2="blur-9"/>
      <feComposite in="SourceGraphic"/>
    </filter>
    <filter id="패스_50701" x="104.848" y="8.562" width="13.522" height="17.521" filterUnits="userSpaceOnUse">
      <feOffset dx="1" dy="1" input="SourceAlpha"/>
      <feGaussianBlur stdDeviation="0.25" result="blur-10"/>
      <feFlood flood-color="#061058" flood-opacity="0.102"/>
      <feComposite operator="in" in2="blur-10"/>
      <feComposite in="SourceGraphic"/>
    </filter>
    <filter id="패스_50702" x="69.774" y="3.505" width="18.938" height="22.749" filterUnits="userSpaceOnUse">
      <feOffset dx="1" dy="1" input="SourceAlpha"/>
      <feGaussianBlur stdDeviation="0.25" result="blur-11"/>
      <feFlood flood-color="#061058" flood-opacity="0.102"/>
      <feComposite operator="in" in2="blur-11"/>
      <feComposite in="SourceGraphic"/>
    </filter>
    <filter id="패스_50703" x="117.286" y="8.836" width="16.443" height="17.42" filterUnits="userSpaceOnUse">
      <feOffset dx="1" dy="1" input="SourceAlpha"/>
      <feGaussianBlur stdDeviation="0.25" result="blur-12"/>
      <feFlood flood-color="#061058" flood-opacity="0.102"/>
      <feComposite operator="in" in2="blur-12"/>
      <feComposite in="SourceGraphic"/>
    </filter>
  </defs>
  <g id="그룹_21578" data-name="그룹 21578" clip-path="url(#clip-path)">
    <g transform="matrix(1, 0, 0, 1, 0, 0)" filter="url(#패스_50693)">
      <path id="패스_50693-2" data-name="패스 50693" d="M22.306,13.505l7.667,6.431a1.806,1.806,0,1,1-2.132,2.916l-7.32-6.1V21.5a1.806,1.806,0,1,1-3.612,0V5.175a1.806,1.806,0,1,1,3.612,0v5.117l6.956-3.449a1.806,1.806,0,1,1,1.394,3.332Z" transform="translate(2.82 0.56)" fill="#fff" stroke="rgba(0,0,0,0)" stroke-miterlimit="10" stroke-width="1"/>
    </g>
    <g id="그룹_21592" data-name="그룹 21592" transform="translate(34.498 3.982)">
      <g transform="matrix(1, 0, 0, 1, -34.5, -3.98)" filter="url(#패스_50691)">
        <path id="패스_50691-2" data-name="패스 50691" d="M29.57,5.461a2.047,2.047,0,1,1,2.048,2.047A2.048,2.048,0,0,1,29.57,5.461" transform="translate(4.93 0.57)" fill="#fff" stroke="rgba(0,0,0,0)" stroke-miterlimit="10" stroke-width="1"/>
      </g>
      <g transform="matrix(1, 0, 0, 1, -34.5, -3.98)" filter="url(#패스_50694)">
        <path id="패스_50694-2" data-name="패스 50694" d="M29.82,20.787V9.875a1.806,1.806,0,1,1,3.612,0V20.787a1.806,1.806,0,1,1-3.612,0" transform="translate(4.97 1.34)" fill="#fff" stroke="rgba(0,0,0,0)" stroke-miterlimit="10" stroke-width="1"/>
      </g>
    </g>
    <g transform="matrix(1, 0, 0, 1, 0, 0)" filter="url(#합치기_1)">
      <path id="합치기_1-2" data-name="합치기 1" d="M6.365,18.119V4.063H2.031A2.032,2.032,0,0,1,2.031,0H14.309a2.032,2.032,0,0,1,0,4.063H9.977V18.119a1.806,1.806,0,1,1-3.612,0Z" transform="translate(1.65 4.01)" fill="#fff" stroke="rgba(0,0,0,0)" stroke-miterlimit="10" stroke-width="1"/>
    </g>
    <g transform="matrix(1, 0, 0, 1, 0, 0)" filter="url(#패스_50697)">
      <path id="패스_50697-2" data-name="패스 50697" d="M60.617,8.447a1.8,1.8,0,0,0-3.486-.657,6.977,6.977,0,0,0-3.792-1.115h-.771a7.012,7.012,0,0,0-7.012,7.012v2.022a7.012,7.012,0,0,0,7.012,7.013h.771a6.984,6.984,0,0,0,3.77-1.1,1.805,1.805,0,0,0,3.509-.6ZM53.652,19.176h-1.4A3.354,3.354,0,0,1,48.9,15.822V13.466a3.353,3.353,0,0,1,3.353-3.353h1.4A3.353,3.353,0,0,1,57,13.464v2.36a3.352,3.352,0,0,1-3.353,3.352" transform="translate(7.59 1.11)" fill="#fff" stroke="rgba(0,0,0,0)" stroke-miterlimit="10" stroke-width="1"/>
    </g>
    <g id="그룹_21593" data-name="그룹 21593" transform="translate(40.157 3.982)">
      <g transform="matrix(1, 0, 0, 1, -40.16, -3.98)" filter="url(#패스_50692)">
        <path id="패스_50692-2" data-name="패스 50692" d="M34.42,5.461a2.047,2.047,0,1,1,2.047,2.047A2.048,2.048,0,0,1,34.42,5.461" transform="translate(5.74 0.57)" fill="#fff" stroke="rgba(0,0,0,0)" stroke-miterlimit="10" stroke-width="1"/>
      </g>
      <g transform="matrix(1, 0, 0, 1, -40.16, -3.98)" filter="url(#패스_50698)">
        <path id="패스_50698-2" data-name="패스 50698" d="M34.552,9.658a1.806,1.806,0,0,1,1.806-1.806l1.806.021h5.411a1.806,1.806,0,1,1,0,3.612H38.191v5.839a1.8,1.8,0,0,0,3.594,0v.007a1.819,1.819,0,1,1,3.639,0v-.007a5.436,5.436,0,0,1-10.872,0Z" transform="translate(5.76 1.31)" fill="#fff" stroke="rgba(0,0,0,0)" stroke-miterlimit="10" stroke-width="1"/>
      </g>
    </g>
    <g transform="matrix(1, 0, 0, 1, 0, 0)" filter="url(#패스_50699)">
      <path id="패스_50699-2" data-name="패스 50699" d="M83.523,6.641h-.541a7.192,7.192,0,0,0-7.192,7.193v1.8a7.192,7.192,0,0,0,7.192,7.193h.541a7.192,7.192,0,0,0,7.193-7.193v-1.8a7.192,7.192,0,0,0-7.193-7.193m.38,12.535h-1.4a3.354,3.354,0,0,1-3.353-3.354V13.466a3.353,3.353,0,0,1,3.353-3.353h1.4a3.353,3.353,0,0,1,3.353,3.351v2.36A3.352,3.352,0,0,1,83.9,19.176" transform="translate(12.63 1.11)" fill="#fff" stroke="rgba(0,0,0,0)" stroke-miterlimit="10" stroke-width="1"/>
    </g>
    <g id="그룹_21594" data-name="그룹 21594" transform="translate(105.196 3.931)">
      <g transform="matrix(1, 0, 0, 1, -105.2, -3.93)" filter="url(#패스_50700)">
        <path id="패스_50700-2" data-name="패스 50700" d="M92.2,7.425A2.028,2.028,0,1,0,90.168,5.4,2.028,2.028,0,0,0,92.2,7.425" transform="translate(15.03 0.56)" fill="#fff" stroke="rgba(0,0,0,0)" stroke-miterlimit="10" stroke-width="1"/>
      </g>
      <g transform="matrix(1, 0, 0, 1, -105.2, -3.93)" filter="url(#패스_50701)">
        <path id="패스_50701-2" data-name="패스 50701" d="M99.267,15.356a1.8,1.8,0,0,0-1.8,1.8v-.007a1.781,1.781,0,0,1-3.562,0V11.366h5.334a1.789,1.789,0,1,0,0-3.578h-5.36l-1.79-.021a1.79,1.79,0,0,0-1.79,1.79v7.595a5.386,5.386,0,0,0,10.772,0,1.8,1.8,0,0,0-1.8-1.8" transform="translate(15.05 1.29)" fill="#fff" stroke="rgba(0,0,0,0)" stroke-miterlimit="10" stroke-width="1"/>
      </g>
    </g>
    <g transform="matrix(1, 0, 0, 1, 0, 0)" filter="url(#패스_50702)">
      <path id="패스_50702-2" data-name="패스 50702" d="M65.288,5.781l7.533,11.4V5.677A2.529,2.529,0,0,1,73.3,3.993a1.628,1.628,0,0,1,1.3-.56,1.675,1.675,0,0,1,1.332.56,2.5,2.5,0,0,1,.489,1.683v15.21q0,2.546-2.11,2.546a2.789,2.789,0,0,1-.951-.152,2.423,2.423,0,0,1-.791-.481,4.706,4.706,0,0,1-.686-.772q-.317-.443-.633-.9L63.9,9.858V21.19a2.418,2.418,0,0,1-.515,1.675,1.7,1.7,0,0,1-1.319.567,1.683,1.683,0,0,1-1.332-.573,2.469,2.469,0,0,1-.5-1.67V6.269a4.249,4.249,0,0,1,.211-1.491,2.128,2.128,0,0,1,.832-.969,2.259,2.259,0,0,1,1.253-.376,2.055,2.055,0,0,1,1.563.634,4.777,4.777,0,0,1,.58.751q.3.462.614.964" transform="translate(10.04 0.57)" fill="#fff" stroke="rgba(0,0,0,0)" stroke-miterlimit="10" stroke-width="1"/>
    </g>
    <g transform="matrix(1, 0, 0, 1, 0, 0)" filter="url(#패스_50703)">
      <path id="패스_50703-2" data-name="패스 50703" d="M111.684,16.234H104.64a4.789,4.789,0,0,0,.495,2.163,3.311,3.311,0,0,0,3.041,1.886,4.292,4.292,0,0,0,1.18-.152,3.826,3.826,0,0,0,1.036-.475,7.948,7.948,0,0,0,.924-.693q.422-.369,1.094-1a1.178,1.178,0,0,1,.791-.237,1.3,1.3,0,0,1,.9.3,1.088,1.088,0,0,1,.344.859,2.346,2.346,0,0,1-.383,1.14A4.528,4.528,0,0,1,112.9,21.28a6.6,6.6,0,0,1-1.939,1,8.361,8.361,0,0,1-2.684.4,7.18,7.18,0,0,1-5.4-1.98,7.364,7.364,0,0,1-1.926-5.369,8.964,8.964,0,0,1,.475-2.961,6.545,6.545,0,0,1,1.385-2.342,6.014,6.014,0,0,1,2.243-1.5A8.064,8.064,0,0,1,108.017,8a7,7,0,0,1,3.62.89,5.861,5.861,0,0,1,2.263,2.3,6.048,6.048,0,0,1,.751,2.876q0,1.36-.778,1.762a4.848,4.848,0,0,1-2.19.4m-7.044-2.045h6.53a4.381,4.381,0,0,0-1-2.764,2.984,2.984,0,0,0-2.276-.917,2.884,2.884,0,0,0-2.21.93,4.625,4.625,0,0,0-1.049,2.751" transform="translate(16.83 1.33)" fill="#fff" stroke="rgba(0,0,0,0)" stroke-miterlimit="10" stroke-width="1"/>
    </g>
  </g>
</svg>
