<svg id="icon_캡션로고_s" xmlns="http://www.w3.org/2000/svg" xmlns:xlink="http://www.w3.org/1999/xlink" width="37.606" height="34.158" viewBox="0 0 37.606 34.158">
  <defs>
    <linearGradient id="linear-gradient" x1="1" y1="0.934" x2="0" y2="0.032" gradientUnits="objectBoundingBox">
      <stop offset="0" stop-color="#335fff"/>
      <stop offset="1" stop-color="#2848ff"/>
    </linearGradient>
    <clipPath id="clip-path">
      <rect id="사각형_2176" data-name="사각형 2176" width="37.606" height="34.158" fill="url(#linear-gradient)"/>
    </clipPath>
  </defs>
  <g id="그룹_3961" data-name="그룹 3961" clip-path="url(#clip-path)">
    <path id="패스_8829" data-name="패스 8829" d="M29.548,0H8.058A7.981,7.981,0,0,0,0,7.882v10.51a7.982,7.982,0,0,0,8.058,7.882h4.628l12.791,7.507a2.72,2.72,0,0,0,3.686-.9,2.583,2.583,0,0,0,.384-1.354V26.275a7.981,7.981,0,0,0,8.058-7.882V7.882A7.981,7.981,0,0,0,29.548,0m2.686,18.393a2.66,2.66,0,0,1-2.686,2.627H26.862a2.657,2.657,0,0,0-2.686,2.626h0v3.24l-9.362-5.494a2.747,2.747,0,0,0-1.383-.373H8.058a2.66,2.66,0,0,1-2.686-2.628V7.882A2.66,2.66,0,0,1,8.058,5.255H29.548a2.66,2.66,0,0,1,2.686,2.627Z" transform="translate(0 0)" fill="url(#linear-gradient)"/>
    <path id="패스_8830" data-name="패스 8830" d="M29.215,30.148a3.218,3.218,0,1,1,3.217,3.147,3.182,3.182,0,0,1-3.217-3.147" transform="translate(-18.304 -17.137)" fill="url(#linear-gradient)"/>
    <path id="패스_8831" data-name="패스 8831" d="M55.125,30.148a3.218,3.218,0,1,1,3.217,3.147,3.183,3.183,0,0,1-3.217-3.147" transform="translate(-34.538 -17.137)" fill="url(#linear-gradient)"/>
  </g>
</svg>
