<svg id="icon_2음성추출" xmlns="http://www.w3.org/2000/svg" xmlns:xlink="http://www.w3.org/1999/xlink" width="54" height="54" viewBox="0 0 54 54">
  <defs>
    <clipPath id="clip-path">
      <rect id="사각형_27028" data-name="사각형 27028" width="54" height="54" fill="#a4b1ff"/>
    </clipPath>
  </defs>
  <g id="그룹_23076" data-name="그룹 23076" clip-path="url(#clip-path)">
    <path id="패스_74306" data-name="패스 74306" d="M14.151,24.688a1.594,1.594,0,0,0,2.091-.847,14.384,14.384,0,0,1,1.316-2.424,14.491,14.491,0,0,1,3.856-3.857,14.331,14.331,0,0,1,2.425-1.316A1.6,1.6,0,1,0,22.6,13.3a17.421,17.421,0,0,0-5.547,3.742A17.446,17.446,0,0,0,13.3,22.6a1.594,1.594,0,0,0,.846,2.091" transform="translate(-2.396 -2.396)" fill="#a4b1ff"/>
    <path id="패스_74307" data-name="패스 74307" d="M23.84,47.17a14.184,14.184,0,0,1-2.424-1.315,14.307,14.307,0,0,1-5.172-6.281,1.6,1.6,0,0,0-2.94,1.242A17.506,17.506,0,0,0,22.6,50.109a1.6,1.6,0,0,0,1.242-2.94" transform="translate(-2.396 -7.018)" fill="#a4b1ff"/>
    <path id="패스_74308" data-name="패스 74308" d="M49.26,38.725a1.6,1.6,0,0,0-2.09.849,14.318,14.318,0,0,1-7.6,7.6,1.6,1.6,0,1,0,1.242,2.94,17.433,17.433,0,0,0,5.55-3.742A17.68,17.68,0,0,0,48.5,43.784a17.425,17.425,0,0,0,1.609-2.969,1.6,1.6,0,0,0-.849-2.09" transform="translate(-7.018 -7.018)" fill="#a4b1ff"/>
    <path id="패스_74309" data-name="패스 74309" d="M39.574,16.244A14.23,14.23,0,0,1,42,17.558a14.412,14.412,0,0,1,2.117,1.75,14.233,14.233,0,0,1,3.058,4.533A1.6,1.6,0,0,0,50.109,22.6,17.513,17.513,0,0,0,40.816,13.3a1.6,1.6,0,0,0-1.242,2.94" transform="translate(-7.018 -2.396)" fill="#a4b1ff"/>
    <path id="패스_74310" data-name="패스 74310" d="M31.3,23.645A7.653,7.653,0,1,0,38.954,31.3,7.663,7.663,0,0,0,31.3,23.645m0,12.116A4.462,4.462,0,1,1,35.763,31.3,4.468,4.468,0,0,1,31.3,35.761" transform="translate(-4.299 -4.299)" fill="#a4b1ff"/>
    <path id="패스_74311" data-name="패스 74311" d="M56.559,31.049H51.78a1.6,1.6,0,0,0,0,3.191h4.778a1.6,1.6,0,1,0,0-3.191" transform="translate(-9.125 -5.645)" fill="#a4b1ff"/>
    <path id="패스_74312" data-name="패스 74312" d="M14.043,32.644a1.6,1.6,0,0,0-1.6-1.6H7.67a1.6,1.6,0,0,0,0,3.191h4.777a1.6,1.6,0,0,0,1.6-1.6" transform="translate(-1.105 -5.645)" fill="#a4b1ff"/>
    <path id="패스_74313" data-name="패스 74313" d="M32.645,14.043a1.6,1.6,0,0,0,1.6-1.6V7.669a1.6,1.6,0,0,0-3.191,0v4.778a1.6,1.6,0,0,0,1.6,1.6" transform="translate(-5.645 -1.104)" fill="#a4b1ff"/>
    <path id="패스_74314" data-name="패스 74314" d="M32.645,50.185a1.6,1.6,0,0,0-1.6,1.6v4.779a1.6,1.6,0,1,0,3.191,0V51.78a1.6,1.6,0,0,0-1.6-1.6" transform="translate(-5.645 -9.125)" fill="#a4b1ff"/>
  </g>
</svg>
