<svg id="icon_데이터검출" xmlns="http://www.w3.org/2000/svg" xmlns:xlink="http://www.w3.org/1999/xlink" width="54" height="54" viewBox="0 0 54 54">
  <defs>
    <clipPath id="clip-path">
      <rect id="사각형_27035" data-name="사각형 27035" width="54" height="54" fill="#8d9eff"/>
    </clipPath>
  </defs>
  <g id="그룹_23087" data-name="그룹 23087" clip-path="url(#clip-path)">
    <path id="패스_74319" data-name="패스 74319" d="M41.53,9.324H31.2c-.047,0-.092.01-.139.014l-1.18-1.492a1.654,1.654,0,0,0-2.5,0L26.213,9.324H15.736a6.762,6.762,0,0,0-6.753,6.755V36.2a6.762,6.762,0,0,0,6.753,6.755H41.53A6.762,6.762,0,0,0,48.284,36.2V16.079A6.762,6.762,0,0,0,41.53,9.324M24.555,19.1H22.549l5.465-6.911a1.6,1.6,0,0,0,.517-.654l.1-.129L34.718,19.1H32.711a1.6,1.6,0,0,0-1.6,1.6V30.882H26.151V20.7a1.6,1.6,0,0,0-1.6-1.6M45.093,36.2A3.567,3.567,0,0,1,41.53,39.76H15.736A3.567,3.567,0,0,1,12.174,36.2V16.079a3.567,3.567,0,0,1,3.562-3.564H23.69L18,19.708a1.6,1.6,0,0,0,1.252,2.585H22.96V32.478a1.6,1.6,0,0,0,1.6,1.6h8.156a1.6,1.6,0,0,0,1.6-1.6V22.293h3.707a1.6,1.6,0,0,0,1.252-2.585l-5.688-7.193H41.53a3.567,3.567,0,0,1,3.562,3.564Z" transform="translate(-1.633 -1.322)" fill="#8d9eff"/>
    <path id="패스_74320" data-name="패스 74320" d="M37.87,54.827H24.433a1.6,1.6,0,0,0,0,3.191H37.87a1.6,1.6,0,1,0,0-3.191" transform="translate(-4.152 -9.969)" fill="#8d9eff"/>
  </g>
</svg>
