<svg id="icon_3화자검증" xmlns="http://www.w3.org/2000/svg" xmlns:xlink="http://www.w3.org/1999/xlink" width="54" height="54" viewBox="0 0 54 54">
  <defs>
    <clipPath id="clip-path">
      <rect id="사각형_27030" data-name="사각형 27030" width="54" height="54" fill="#fff"/>
    </clipPath>
  </defs>
  <g id="그룹_23079" data-name="그룹 23079" clip-path="url(#clip-path)">
    <path id="패스_74316" data-name="패스 74316" d="M48.521,37.55a5.2,5.2,0,0,0-8.476,1.681l-7.332.008a5.225,5.225,0,0,0-3.146-2.917l-.007-9.953h6.014a6.922,6.922,0,0,0,6.914-6.914v-.71a6.922,6.922,0,0,0-6.914-6.914H20.684a6.922,6.922,0,0,0-6.914,6.914v.71a6.922,6.922,0,0,0,6.914,6.914h5.686l.007,9.912a5.221,5.221,0,0,0-3.262,2.968l-6.907.009a5.211,5.211,0,0,0-4.8-3.191h-.006a5.2,5.2,0,0,0,.01,10.4h0a5.21,5.21,0,0,0,5.055-4.022l6.385-.009a5.21,5.21,0,0,0,5.062,4.012h0a5.209,5.209,0,0,0,5.056-4.023l6.81-.008a5.19,5.19,0,0,0,5.056,4.012h.008a5.2,5.2,0,0,0,3.668-8.883M16.961,19.455v-.71a3.728,3.728,0,0,1,3.723-3.723H35.575A3.727,3.727,0,0,1,39.3,18.745v.71a3.727,3.727,0,0,1-3.723,3.723H20.684a3.728,3.728,0,0,1-3.723-3.723M11.415,43.28h0a2.011,2.011,0,0,1,0-4.022h0a2.011,2.011,0,0,1,0,4.022m16.5-.019h0a2.011,2.011,0,0,1,0-4.021h0a2.011,2.011,0,0,1,0,4.021m18.351-.61a2,2,0,0,1-1.421.59h0a2.01,2.01,0,0,1,0-4.021h0a2.011,2.011,0,0,1,1.421,3.431" transform="translate(-1.129 -2.151)" fill="#fff"/>
  </g>
</svg>
